{"glyphs":{"0":{"ha":675,"x_min":61,"x_max":614,"o":"m 498 453 q 492 585 498 532 q 471 688 487 639 q 421 762 454 738 q 338 787 388 787 q 253 762 286 787 q 203 688 220 738 q 182 585 187 639 q 176 453 176 532 q 182 314 176 372 q 203 199 187 256 q 252 113 218 142 q 338 83 286 83 q 421 113 388 83 q 471 199 454 142 q 492 314 487 255 q 498 453 498 373 m 614 453 q 610 324 614 381 q 588 199 605 267 q 543 87 571 132 q 462 12 514 42 q 338 -19 410 -19 q 214 12 266 -19 q 133 87 161 42 q 87 199 104 132 q 66 324 71 267 q 61 453 61 381 q 66 578 61 524 q 87 694 71 633 q 133 795 104 755 q 214 862 161 836 q 338 888 266 888 q 462 862 410 888 q 543 795 514 836 q 588 694 571 755 q 610 578 605 633 q 614 453 614 524 z "},"1":{"ha":675,"x_min":156,"x_max":457,"o":"m 457 0 l 346 0 l 346 726 q 156 627 260 651 l 156 726 q 335 872 264 761 l 457 872 l 457 0 z "},"2":{"ha":675,"x_min":75,"x_max":600,"o":"m 600 0 l 75 0 l 75 111 q 271 277 190 199 q 391 404 351 354 q 451 504 430 453 q 475 577 472 555 q 477 635 477 600 q 448 750 477 713 q 347 787 419 787 q 251 751 283 787 q 209 635 218 715 l 85 635 q 347 888 107 888 q 533 817 467 888 q 600 652 600 745 q 595 572 600 604 q 570 487 591 540 q 509 382 549 434 q 393 256 469 331 q 208 94 317 182 l 600 94 l 600 0 z "},"3":{"ha":675,"x_min":54,"x_max":618,"o":"m 618 232 q 538 53 618 125 q 334 -19 457 -19 q 125 55 195 -19 q 54 229 54 129 l 183 229 q 335 75 201 75 q 448 119 397 75 q 498 224 498 164 q 457 366 498 324 q 321 407 416 407 l 321 502 q 448 539 412 502 q 484 667 484 576 q 437 765 484 735 q 334 795 391 795 q 195 644 220 795 l 73 644 q 153 826 88 764 q 330 888 218 888 q 530 823 453 888 q 606 659 606 757 q 583 532 606 578 q 514 457 559 487 q 570 412 549 435 q 604 345 590 389 q 618 232 618 300 z "},"4":{"ha":675,"x_min":34,"x_max":639,"o":"m 419 313 l 419 738 l 132 313 l 419 313 m 639 212 l 530 212 l 530 0 l 419 0 l 419 212 l 34 212 l 34 338 l 399 872 l 530 872 l 530 313 l 639 313 l 639 212 z "},"5":{"ha":675,"x_min":62,"x_max":610,"o":"m 610 285 q 533 79 610 175 q 350 -16 456 -16 q 139 44 216 -16 q 62 212 62 104 l 191 212 q 231 113 191 146 q 335 79 270 79 q 442 133 396 79 q 488 282 488 187 q 347 490 488 490 q 184 363 244 490 l 77 363 l 94 872 l 555 872 l 555 770 l 212 770 l 197 498 q 270 560 232 541 q 372 579 308 579 q 547 494 483 579 q 610 285 610 408 z "},"6":{"ha":675,"x_min":57,"x_max":618,"o":"m 496 260 q 343 445 496 445 q 189 260 189 445 q 343 75 189 75 q 496 260 496 75 m 609 347 q 614 326 609 347 q 618 260 618 305 q 606 172 618 216 q 567 82 594 127 q 483 9 540 37 q 347 -19 426 -19 q 215 1 269 -19 q 130 52 161 20 q 83 142 99 83 q 62 261 66 202 q 57 415 57 320 q 68 585 57 510 q 109 734 80 661 q 200 848 138 807 q 351 888 262 888 q 522 834 467 888 q 594 665 578 780 l 477 665 q 440 766 472 736 q 350 795 408 795 q 175 427 175 795 q 359 537 239 537 q 494 509 439 537 q 574 435 549 481 q 609 347 600 388 z "},"7":{"ha":675,"x_min":69,"x_max":606,"o":"m 606 750 l 321 0 l 189 0 l 498 774 l 69 774 l 69 872 l 606 872 l 606 750 z "},"8":{"ha":675,"x_min":53,"x_max":624,"o":"m 506 248 q 462 370 506 324 q 338 415 418 415 q 213 369 259 415 q 167 248 167 323 q 209 124 167 171 q 338 77 251 77 q 506 248 506 77 m 488 651 q 448 757 488 719 q 338 795 408 795 q 228 757 267 795 q 189 651 189 719 q 232 547 189 587 q 338 506 275 506 q 444 546 400 506 q 488 651 488 586 m 624 224 q 537 43 624 102 q 338 -16 450 -16 q 240 -3 288 -16 q 149 36 193 9 q 79 111 106 62 q 53 224 53 160 q 217 461 53 388 q 77 675 77 529 q 157 833 77 777 q 338 888 236 888 q 520 833 441 888 q 600 675 600 777 q 557 543 600 600 q 456 461 514 486 q 571 376 518 438 q 624 224 624 315 z "},"9":{"ha":675,"x_min":57,"x_max":618,"o":"m 448 471 q 466 495 448 471 q 484 610 484 518 q 448 749 484 703 q 331 795 412 795 q 214 749 250 795 q 179 610 179 703 q 214 471 179 518 q 331 425 250 425 q 448 471 412 425 m 618 457 q 323 -19 618 -19 q 151 37 208 -19 q 79 208 95 92 l 197 208 q 235 104 202 134 q 326 75 267 75 q 419 113 381 75 q 473 215 457 151 q 495 332 490 279 q 500 445 500 385 q 423 360 465 387 q 313 334 381 334 q 200 353 248 334 q 125 401 152 373 q 83 470 99 430 q 62 543 66 510 q 57 610 57 575 q 64 681 57 646 q 89 755 71 716 q 136 822 107 793 q 214 869 165 850 q 327 888 263 888 q 460 869 406 888 q 545 818 514 849 q 593 728 576 787 q 614 611 609 670 q 618 457 618 552 z "},"\r":{"ha":1356,"x_min":0,"x_max":0,"o":""}," ":{"ha":513,"x_min":0,"x_max":0,"o":""},"!":{"ha":311,"x_min":76,"x_max":236,"o":"m 156 1103 q 203 1027 199 1103 q 205 958 205 1008 q 178 363 205 613 q 165 262 168 279 q 156 244 161 244 q 147 262 151 244 q 134 365 144 281 q 109 958 109 601 q 110 1027 109 1008 q 156 1103 114 1103 m 212 111 q 224 100 212 111 q 236 57 236 88 q 212 3 236 26 q 156 -20 187 -20 q 100 3 125 -20 q 76 57 76 26 q 100 111 76 88 q 156 134 125 134 q 212 111 187 134 z "},"\"":{"ha":547,"x_min":83,"x_max":461,"o":"m 212 872 l 183 525 l 111 525 l 83 872 l 212 872 m 461 872 l 433 525 l 359 525 l 334 872 l 461 872 z "},"#":{"ha":700,"x_min":75,"x_max":624,"o":"m 439 382 l 277 382 l 256 220 l 419 220 l 439 382 m 624 151 l 480 151 l 456 -41 l 387 -41 l 411 151 l 248 151 l 224 -41 l 155 -41 l 179 151 l 75 151 l 75 220 l 187 220 l 208 382 l 75 382 l 75 452 l 217 452 l 244 663 l 313 663 l 286 452 l 449 452 l 476 663 l 545 663 l 518 452 l 624 452 l 624 382 l 509 382 l 488 220 l 624 220 l 624 151 z "},"$":{"ha":675,"x_min":42,"x_max":632,"o":"m 510 225 q 501 298 510 270 q 474 342 492 327 q 435 365 456 357 q 384 380 414 373 q 370 382 374 381 l 370 90 q 477 121 444 91 q 510 225 510 151 m 309 506 l 309 757 q 235 747 263 757 q 194 717 206 738 q 178 677 182 696 q 175 627 175 659 q 178 589 175 605 q 187 563 180 574 q 200 545 194 552 q 221 532 206 538 q 245 524 236 526 q 275 515 254 521 q 309 506 297 510 m 632 233 q 370 -16 632 0 l 370 -126 l 309 -126 l 309 -19 q 109 54 176 -19 q 42 252 42 127 l 164 252 q 309 87 164 87 l 309 388 q 250 404 269 399 q 199 420 232 408 q 149 442 165 431 q 111 471 133 453 q 79 511 88 490 q 61 562 69 532 q 53 631 53 593 q 121 798 53 732 q 309 863 189 863 l 309 960 l 370 960 l 370 864 q 541 798 484 864 q 598 632 598 731 l 476 632 q 454 730 476 704 q 370 757 431 757 l 370 492 q 404 485 374 491 q 447 475 434 479 q 489 462 460 472 q 533 441 518 452 q 570 410 548 430 q 604 367 593 391 q 623 309 614 343 q 632 233 632 274 z "},"%":{"ha":846,"x_min":38,"x_max":807,"o":"m 710 56 q 725 72 710 56 q 741 127 741 87 q 711 199 741 168 q 640 229 681 229 q 568 199 597 229 q 538 127 538 170 q 568 56 538 87 q 640 26 598 26 q 710 56 680 26 m 307 453 q 277 525 307 495 q 208 555 247 555 q 135 525 164 555 q 106 453 106 495 q 136 382 106 412 q 208 351 165 351 q 277 382 247 351 q 307 453 307 412 m 807 127 q 757 11 807 62 q 640 -41 707 -41 q 522 10 572 -41 q 472 127 472 61 q 522 247 472 197 q 640 297 572 297 q 758 247 708 297 q 807 127 807 197 m 374 453 q 324 336 374 388 q 208 285 274 285 q 89 336 140 285 q 38 453 38 387 q 88 572 38 522 q 208 623 138 623 q 325 572 275 623 q 374 453 374 522 m 704 628 l 195 -92 l 142 -47 l 647 671 l 704 628 z "},"&":{"ha":925,"x_min":71,"x_max":916,"o":"m 586 157 q 319 439 467 264 q 231 370 269 427 q 193 254 193 313 q 245 143 193 201 q 372 85 298 85 q 586 157 503 85 m 506 711 q 474 773 506 747 q 400 799 442 799 q 314 772 342 799 q 286 705 286 746 q 358 559 286 648 q 464 627 422 585 q 506 711 506 669 m 916 0 l 746 0 l 651 85 q 368 -16 526 -16 q 157 58 244 -16 q 71 250 71 133 q 121 410 71 351 q 262 509 172 468 q 168 696 168 610 q 230 834 168 780 q 384 888 292 888 q 544 843 481 888 q 606 722 606 798 q 589 642 606 678 q 538 577 572 606 q 481 534 503 548 q 416 496 458 519 q 644 250 494 400 q 667 389 667 317 q 659 496 667 420 l 785 496 l 785 472 q 720 175 785 300 q 807 90 742 148 q 916 0 872 33 z "},"'":{"ha":445,"x_min":159,"x_max":285,"o":"m 285 872 l 258 525 l 184 525 l 159 872 l 285 872 z "},"(":{"ha":537,"x_min":102,"x_max":461,"o":"m 461 -610 l 392 -610 q 169 -202 236 -418 q 102 285 102 14 q 170 788 102 564 q 392 1225 239 1012 l 461 1225 q 240 798 309 1019 q 171 285 171 576 q 461 -610 171 -251 z "},")":{"ha":537,"x_min":75,"x_max":435,"o":"m 435 301 q 368 -186 435 28 q 144 -594 300 -401 l 75 -594 q 366 301 366 -235 q 296 813 366 591 q 75 1241 227 1035 l 144 1241 q 366 804 297 1028 q 435 301 435 579 z "},"*":{"ha":765,"x_min":75,"x_max":690,"o":"m 690 486 l 650 418 l 422 552 l 422 286 l 346 286 l 346 552 l 114 418 l 75 486 l 307 618 l 75 753 l 114 817 l 342 685 l 342 951 l 422 951 l 422 686 l 650 817 l 690 753 l 457 618 l 690 486 z "},"+":{"ha":773,"x_min":126,"x_max":647,"o":"m 647 335 l 647 266 l 420 266 l 420 42 l 351 42 l 351 266 l 126 266 l 126 335 l 351 335 l 351 563 l 420 563 l 420 335 l 647 335 z "},",":{"ha":313,"x_min":54,"x_max":259,"o":"m 259 72 q 215 -106 259 -26 q 119 -205 171 -186 l 100 -193 q 190 -5 190 -130 q 186 37 190 24 q 141 14 175 27 q 88 0 107 0 q 54 72 54 0 q 86 150 54 119 q 157 180 118 180 q 229 151 198 180 q 259 72 259 122 z "},"-":{"ha":671,"x_min":75,"x_max":595,"o":"m 595 335 l 595 266 l 75 266 l 75 335 l 595 335 z "},".":{"ha":270,"x_min":54,"x_max":216,"o":"m 216 57 q 192 2 216 24 q 136 -20 168 -20 q 79 2 103 -20 q 54 57 54 24 q 79 111 54 88 q 136 134 103 134 q 191 111 167 134 q 216 57 216 88 z "},"/":{"ha":671,"x_min":75,"x_max":595,"o":"m 595 1051 l 126 -288 l 75 -236 l 545 1103 l 595 1051 z "},":":{"ha":270,"x_min":54,"x_max":216,"o":"m 216 58 q 191 3 216 27 q 136 -20 167 -20 q 79 3 104 -20 q 54 58 54 27 q 79 113 54 91 q 136 136 103 136 q 192 113 168 136 q 216 58 216 91 m 216 543 q 191 488 216 511 q 136 465 167 465 q 79 488 103 465 q 54 543 54 511 q 79 599 54 575 q 136 623 103 623 q 191 599 167 623 q 216 543 216 575 z "},";":{"ha":281,"x_min":54,"x_max":217,"o":"m 217 45 q 186 -66 217 -16 q 122 -137 156 -117 l 111 -129 q 168 8 168 -88 q 167 24 168 19 q 83 -3 115 -3 q 62 14 71 -3 q 54 54 54 31 q 79 111 54 87 q 132 134 103 134 q 191 109 165 134 q 217 45 217 83 m 216 545 q 191 489 216 513 q 136 465 167 465 q 79 489 103 465 q 54 545 54 513 q 79 600 54 576 q 136 623 103 623 q 191 600 167 623 q 216 545 216 576 z "},"<":{"ha":1208,"x_min":241,"x_max":966,"o":"m 966 122 l 966 46 l 241 323 l 241 400 l 966 677 l 966 602 l 319 362 l 966 122 z "},"=":{"ha":781,"x_min":75,"x_max":705,"o":"m 705 452 l 705 382 l 75 382 l 75 452 l 705 452 m 705 220 l 705 151 l 75 151 l 75 220 l 705 220 z "},">":{"ha":1208,"x_min":241,"x_max":966,"o":"m 966 400 l 966 323 l 241 46 l 241 122 l 888 362 l 241 602 l 241 677 l 966 400 z "},"?":{"ha":605,"x_min":47,"x_max":530,"o":"m 530 800 q 509 703 530 745 q 456 638 487 662 q 396 593 426 614 q 345 541 366 572 q 323 468 323 510 l 323 271 l 254 271 l 254 487 q 275 572 254 536 q 328 632 297 609 q 388 677 358 655 q 439 730 418 699 q 461 800 461 761 q 410 923 461 867 q 289 979 358 979 q 165 918 214 979 q 117 814 117 856 l 117 743 l 47 743 l 47 814 q 60 872 47 837 q 99 949 73 907 q 175 1019 125 990 q 289 1048 225 1048 q 463 975 395 1048 q 530 800 530 901 m 363 75 q 340 20 363 41 q 289 0 317 0 q 237 20 260 0 q 214 75 214 41 q 237 131 214 111 q 289 151 259 151 q 340 130 317 151 q 363 75 363 110 z "},"@":{"ha":1208,"x_min":71,"x_max":1135,"o":"m 716 321 q 682 456 716 403 q 583 510 648 510 q 484 456 517 510 q 452 321 452 403 q 583 114 452 114 q 682 175 647 114 q 716 321 716 236 m 1135 359 q 1065 125 1135 225 q 891 24 994 24 q 732 140 784 24 q 660 57 701 84 q 551 30 618 30 q 397 111 458 30 q 335 313 335 193 q 396 518 335 442 q 551 594 457 594 q 646 577 609 594 q 720 514 684 560 l 720 586 l 830 586 l 830 179 q 901 130 830 130 q 981 185 943 130 q 1019 359 1019 240 q 910 664 1019 571 q 602 757 802 757 q 459 736 528 757 q 327 671 391 715 q 225 544 263 627 q 187 351 187 461 q 296 15 187 136 q 616 -106 406 -106 q 730 -102 694 -106 q 822 -84 765 -99 l 822 -183 q 725 -210 760 -205 q 627 -216 690 -216 q 464 -200 540 -216 q 314 -144 388 -184 q 188 -41 240 -103 q 103 122 136 22 q 71 350 71 222 q 227 724 71 583 q 594 864 384 864 q 989 734 844 864 q 1135 359 1135 604 z "},"A":{"ha":905,"x_min":18,"x_max":887,"o":"m 614 335 l 448 736 l 285 335 l 614 335 m 887 0 l 761 0 l 665 232 l 237 232 l 142 0 l 18 0 l 382 872 l 517 872 l 887 0 z "},"B":{"ha":814,"x_min":98,"x_max":741,"o":"m 623 256 q 566 368 623 328 q 403 407 510 407 l 217 407 l 217 106 l 408 106 q 563 148 503 106 q 623 256 623 190 m 595 639 q 411 766 595 766 l 217 766 l 217 506 l 408 506 q 595 639 595 506 m 741 241 q 662 69 741 138 q 477 0 583 0 l 98 0 l 98 872 l 448 872 q 635 817 560 872 q 709 656 709 762 q 664 534 709 587 q 559 465 618 481 q 688 385 635 445 q 741 241 741 324 z "},"C":{"ha":822,"x_min":71,"x_max":749,"o":"m 749 232 q 663 53 749 125 q 431 -19 578 -19 q 261 17 334 -19 q 149 117 189 53 q 90 258 109 182 q 71 429 71 335 q 90 601 71 522 q 149 746 109 680 q 261 850 189 812 q 433 888 334 888 q 667 819 589 888 q 745 639 745 749 l 623 639 q 578 755 623 718 q 433 793 533 793 q 195 429 195 793 q 254 159 195 240 q 429 79 313 79 q 627 232 627 79 l 749 232 z "},"D":{"ha":868,"x_min":98,"x_max":798,"o":"m 677 437 q 595 681 677 595 q 370 766 514 766 l 217 766 l 217 106 l 370 106 q 595 193 513 106 q 677 437 677 279 m 798 437 q 785 310 798 370 q 741 192 772 250 q 662 92 709 134 q 538 25 614 50 q 368 0 463 0 l 98 0 l 98 872 l 368 872 q 573 836 487 872 q 707 737 659 800 q 776 600 754 674 q 798 437 798 525 z "},"E":{"ha":732,"x_min":98,"x_max":648,"o":"m 648 0 l 98 0 l 98 872 l 636 872 l 636 766 l 217 766 l 217 498 l 624 498 l 624 395 l 217 395 l 217 106 l 648 106 l 648 0 z "},"F":{"ha":688,"x_min":98,"x_max":604,"o":"m 579 395 l 217 395 l 217 0 l 98 0 l 98 872 l 604 872 l 604 766 l 217 766 l 217 498 l 579 498 l 579 395 z "},"G":{"ha":920,"x_min":71,"x_max":827,"o":"m 822 42 q 505 -19 647 -19 q 71 469 71 -19 q 186 769 71 650 q 494 888 301 888 q 739 813 651 888 q 827 655 827 738 l 705 655 q 648 740 705 697 q 505 783 590 783 q 272 697 347 783 q 197 468 197 612 q 212 326 197 391 q 260 206 227 260 q 351 121 293 152 q 490 90 410 90 q 701 118 608 90 l 701 359 l 502 359 l 502 465 l 822 465 l 822 42 z "},"H":{"ha":856,"x_min":98,"x_max":761,"o":"m 761 0 l 636 0 l 636 395 l 217 395 l 217 0 l 98 0 l 98 872 l 217 872 l 217 498 l 636 498 l 636 872 l 761 872 l 761 0 z "},"I":{"ha":315,"x_min":98,"x_max":217,"o":"m 217 0 l 98 0 l 98 872 l 217 872 l 217 0 z "},"J":{"ha":688,"x_min":71,"x_max":590,"o":"m 590 260 q 515 58 590 136 q 323 -19 441 -19 q 140 52 210 -19 q 71 233 71 122 l 191 233 q 330 90 193 90 q 428 134 388 90 q 468 260 468 178 l 468 872 l 590 872 l 590 260 z "},"K":{"ha":803,"x_min":98,"x_max":773,"o":"m 773 0 l 610 0 l 217 460 l 217 0 l 98 0 l 98 872 l 217 872 l 217 500 l 578 872 l 728 872 l 358 496 l 773 0 z "},"L":{"ha":639,"x_min":98,"x_max":604,"o":"m 604 0 l 98 0 l 98 872 l 217 872 l 217 106 l 604 106 l 604 0 z "},"M":{"ha":1084,"x_min":98,"x_max":986,"o":"m 986 0 l 867 0 l 867 757 l 587 0 l 492 0 l 217 750 l 217 0 l 98 0 l 98 872 l 289 872 l 541 168 l 795 872 l 986 872 l 986 0 z "},"N":{"ha":872,"x_min":98,"x_max":777,"o":"m 777 0 l 602 0 l 217 713 l 217 0 l 98 0 l 98 872 l 269 872 l 655 156 l 655 872 l 777 872 l 777 0 z "},"O":{"ha":933,"x_min":71,"x_max":863,"o":"m 736 453 q 676 694 736 606 q 468 783 616 783 q 197 453 197 783 q 210 318 197 380 q 252 203 222 256 q 337 120 282 151 q 468 90 392 90 q 599 120 544 90 q 682 204 654 151 q 724 319 711 258 q 736 453 736 380 m 863 453 q 821 220 863 324 q 688 48 780 115 q 468 -19 597 -19 q 248 48 339 -19 q 113 220 156 115 q 71 453 71 324 q 172 768 71 647 q 468 888 274 888 q 762 768 662 888 q 863 453 863 648 z "},"P":{"ha":753,"x_min":98,"x_max":680,"o":"m 563 620 q 511 733 563 700 q 347 766 458 766 l 217 766 l 217 476 l 347 476 q 511 509 460 476 q 563 620 563 541 m 680 620 q 652 489 680 541 q 572 412 624 437 q 468 379 521 388 q 343 370 415 370 l 217 370 l 217 0 l 98 0 l 98 872 l 343 872 q 443 867 399 872 q 533 846 487 863 q 610 804 579 830 q 660 730 640 777 q 680 620 680 684 z "},"Q":{"ha":948,"x_min":71,"x_max":911,"o":"m 736 453 q 676 694 736 606 q 468 783 616 783 q 197 453 197 783 q 210 318 197 380 q 252 203 222 256 q 337 120 282 151 q 468 90 392 90 q 599 120 544 90 q 682 204 654 151 q 724 319 711 258 q 736 453 736 380 m 911 0 l 583 0 q 468 -19 511 -19 q 174 117 277 -19 q 71 453 71 254 q 172 768 71 648 q 468 888 274 888 q 762 768 662 888 q 863 453 863 648 q 829 239 863 338 q 732 83 795 140 l 911 83 l 911 0 z "},"R":{"ha":761,"x_min":98,"x_max":709,"o":"m 566 632 q 515 736 566 707 q 370 766 465 766 l 217 766 l 217 500 l 370 500 q 566 632 566 500 m 709 0 l 586 0 q 562 121 571 66 q 545 209 552 176 q 527 286 534 258 q 506 338 519 315 q 481 371 492 361 q 443 388 469 381 q 393 395 416 395 q 323 396 370 396 l 217 396 l 217 0 l 98 0 l 98 872 l 372 872 q 610 817 532 872 q 688 632 688 762 q 525 445 688 522 q 636 351 606 427 q 663 204 646 326 q 709 0 680 83 z "},"S":{"ha":799,"x_min":71,"x_max":726,"o":"m 726 241 q 693 115 726 168 q 605 35 661 62 q 489 -6 549 7 q 359 -19 429 -19 q 153 58 235 -19 q 71 260 71 134 l 195 260 q 241 139 195 189 q 358 90 288 90 q 441 94 406 90 q 518 111 476 98 q 583 154 560 123 q 606 232 606 184 q 577 322 606 288 q 502 372 548 357 q 400 395 456 387 q 289 417 345 404 q 187 452 233 430 q 112 525 141 475 q 83 651 83 575 q 176 823 83 758 q 380 888 269 888 q 494 876 441 888 q 593 838 548 864 q 665 764 639 811 q 692 652 692 716 l 570 652 q 553 722 570 694 q 507 762 537 750 q 446 779 476 774 q 374 783 416 783 q 205 647 205 783 q 243 563 205 594 q 340 521 282 532 q 465 493 397 510 q 591 455 533 476 q 687 380 648 434 q 726 241 726 326 z "},"T":{"ha":741,"x_min":24,"x_max":716,"o":"m 716 766 l 431 766 l 431 0 l 309 0 l 309 766 l 24 766 l 24 872 l 716 872 l 716 766 z "},"U":{"ha":888,"x_min":98,"x_max":793,"o":"m 793 388 q 711 76 793 171 q 445 -19 628 -19 q 179 76 260 -19 q 98 388 98 171 l 98 872 l 217 872 l 217 388 q 235 231 217 293 q 286 140 252 170 q 357 100 320 110 q 445 90 393 90 q 531 100 495 90 q 602 139 567 110 q 654 231 636 168 q 671 388 671 293 l 671 872 l 793 872 l 793 388 z "},"V":{"ha":789,"x_min":18,"x_max":770,"o":"m 770 872 l 461 0 l 327 0 l 18 872 l 155 872 l 395 156 l 635 872 l 770 872 z "},"W":{"ha":1173,"x_min":18,"x_max":1156,"o":"m 1156 872 l 897 0 l 787 0 l 586 726 l 384 0 l 277 0 l 18 872 l 146 872 l 330 180 l 514 872 l 659 872 l 844 180 l 1027 872 l 1156 872 z "},"X":{"ha":850,"x_min":28,"x_max":819,"o":"m 819 0 l 665 0 l 416 378 l 172 0 l 28 0 l 350 465 l 71 872 l 225 872 l 433 551 l 635 872 l 777 872 l 498 465 l 819 0 z "},"Y":{"ha":806,"x_min":18,"x_max":785,"o":"m 785 872 l 461 347 l 461 0 l 342 0 l 342 347 l 18 872 l 167 872 l 408 453 l 648 872 l 785 872 z "},"Z":{"ha":745,"x_min":54,"x_max":689,"o":"m 689 0 l 54 0 l 54 132 l 545 766 l 77 766 l 77 872 l 677 872 l 677 738 l 187 106 l 689 106 l 689 0 z "},"[":{"ha":477,"x_min":127,"x_max":351,"o":"m 351 -240 l 127 -240 l 127 872 l 351 872 l 351 810 l 232 810 l 232 -179 l 351 -179 l 351 -240 z "},"\\":{"ha":671,"x_min":75,"x_max":595,"o":"m 595 -236 l 545 -288 l 75 1051 l 126 1103 l 595 -236 z "},"]":{"ha":477,"x_min":127,"x_max":351,"o":"m 351 -240 l 127 -240 l 127 -179 l 248 -179 l 248 810 l 127 810 l 127 872 l 351 872 l 351 -240 z "},"^":{"ha":614,"x_min":0,"x_max":614,"o":"m 614 868 l 578 831 l 307 1100 l 37 831 l 0 868 l 307 1176 l 614 868 z "},"_":{"ha":781,"x_min":0,"x_max":781,"o":"m 781 -186 l 0 -186 l 0 -117 l 781 -117 l 781 -186 z "},"`":{"ha":277,"x_min":-31,"x_max":212,"o":"m 212 724 l 138 724 l -31 932 l 91 932 l 212 724 z "},"a":{"ha":667,"x_min":58,"x_max":595,"o":"m 468 297 q 407 301 427 301 q 335 295 372 301 q 260 276 298 289 q 196 236 221 263 q 171 172 171 209 q 205 94 171 123 q 290 65 240 65 q 431 126 393 65 q 468 297 468 187 m 595 0 l 488 0 q 473 87 479 42 q 389 7 430 31 q 290 -16 349 -16 q 131 31 203 -16 q 58 159 58 77 q 88 270 58 224 q 170 338 118 316 q 274 370 221 361 q 387 380 327 380 l 469 380 q 472 416 472 404 q 338 537 472 537 q 243 513 283 537 q 203 441 203 490 l 91 441 q 334 618 91 618 q 567 517 530 618 q 579 368 579 486 l 579 170 q 595 0 579 41 z "},"b":{"ha":712,"x_min":83,"x_max":652,"o":"m 534 315 q 494 483 534 416 q 366 549 454 549 q 236 480 281 549 q 191 315 191 411 q 363 65 191 65 q 486 133 438 65 q 534 315 534 201 m 652 327 q 574 77 652 170 q 396 -16 496 -16 q 193 71 274 -16 l 193 0 l 83 0 l 83 872 l 189 872 l 189 521 q 395 618 256 618 q 518 589 465 618 q 599 513 571 560 q 640 420 627 467 q 652 327 652 373 z "},"c":{"ha":628,"x_min":61,"x_max":570,"o":"m 570 203 q 511 47 570 110 q 327 -16 453 -16 q 61 301 61 -16 q 121 541 61 463 q 315 618 182 618 q 501 570 438 618 q 564 438 564 521 q 563 415 564 423 l 456 415 q 457 438 457 423 q 307 537 457 537 q 168 301 168 537 q 208 120 168 175 q 327 65 248 65 q 429 109 397 65 q 461 203 461 153 l 570 203 z "},"d":{"ha":713,"x_min":61,"x_max":628,"o":"m 517 297 q 463 473 517 399 q 330 547 410 547 q 210 474 250 547 q 171 305 171 401 q 220 139 171 208 q 346 71 269 71 q 473 140 429 71 q 517 297 517 210 m 628 0 l 521 0 l 521 69 q 342 -16 448 -16 q 146 73 232 -16 q 61 290 61 161 q 83 441 61 372 q 163 565 104 511 q 311 618 222 618 q 521 525 453 618 l 521 872 l 628 872 l 628 0 z "},"e":{"ha":673,"x_min":61,"x_max":612,"o":"m 492 363 q 494 391 494 373 q 456 500 494 457 q 338 543 419 543 q 176 363 205 543 l 492 363 m 608 193 q 526 45 593 106 q 335 -16 458 -16 q 208 14 263 -16 q 122 92 153 43 q 76 193 91 140 q 61 301 61 245 q 76 414 61 361 q 122 515 91 468 q 210 591 153 563 q 343 618 267 618 q 462 598 411 618 q 541 549 513 578 q 585 479 568 519 q 607 408 602 439 q 612 342 612 376 q 608 285 612 311 l 176 285 q 216 123 176 184 q 338 62 255 62 q 448 102 412 62 q 492 193 484 141 l 608 193 z "},"f":{"ha":399,"x_min":12,"x_max":399,"o":"m 399 783 q 334 798 363 798 q 263 773 285 798 q 241 692 241 749 l 241 604 l 387 604 l 387 525 l 241 525 l 241 0 l 132 0 l 132 525 l 12 525 l 12 604 l 132 604 l 132 696 q 176 842 132 802 q 312 883 220 883 q 399 872 359 883 l 399 783 z "},"g":{"ha":712,"x_min":61,"x_max":628,"o":"m 517 319 q 473 482 517 422 q 335 543 429 543 q 172 321 172 543 q 216 155 172 216 q 342 94 259 94 q 474 158 431 94 q 517 319 517 222 m 628 34 q 551 -163 628 -87 q 334 -240 473 -240 q 212 -219 263 -240 q 137 -165 161 -198 q 102 -104 113 -133 q 91 -49 91 -75 l 203 -49 q 248 -136 203 -106 q 354 -165 293 -165 q 479 -104 439 -165 q 518 111 518 -42 q 439 43 494 69 q 327 16 385 16 q 131 92 201 16 q 61 321 61 168 q 132 534 61 450 q 315 618 202 618 q 518 537 472 618 l 518 604 l 628 604 l 628 34 z "},"h":{"ha":692,"x_min":83,"x_max":608,"o":"m 608 0 l 498 0 l 498 380 q 462 500 498 460 q 372 541 426 541 q 242 499 292 541 q 193 411 193 457 l 193 0 l 83 0 l 83 872 l 193 872 l 193 526 q 382 618 259 618 q 555 560 502 618 q 608 374 608 502 l 608 0 z "},"i":{"ha":277,"x_min":79,"x_max":197,"o":"m 193 0 l 83 0 l 83 604 l 193 604 l 193 0 m 197 761 l 79 761 l 79 872 l 197 872 l 197 761 z "},"j":{"ha":347,"x_min":-37,"x_max":264,"o":"m 262 -98 q 230 -210 262 -164 q 122 -255 198 -255 q 38 -237 84 -255 q -37 -191 -8 -220 l 33 -122 q 106 -159 61 -159 q 142 -136 133 -159 q 152 -61 152 -113 l 152 604 l 262 604 l 262 -98 m 264 761 l 151 761 l 151 872 l 264 872 l 264 761 z "},"k":{"ha":602,"x_min":83,"x_max":578,"o":"m 578 0 l 433 0 l 193 321 l 193 0 l 83 0 l 83 872 l 193 872 l 193 351 l 423 604 l 559 604 l 317 342 l 578 0 z "},"l":{"ha":277,"x_min":83,"x_max":193,"o":"m 193 0 l 83 0 l 83 872 l 193 872 l 193 0 z "},"m":{"ha":1082,"x_min":83,"x_max":998,"o":"m 998 0 l 888 0 l 888 391 q 854 502 888 461 q 753 543 821 543 q 644 493 690 543 q 598 391 598 444 l 598 0 l 488 0 l 488 391 q 451 497 488 452 q 355 543 414 543 q 241 492 289 543 q 193 391 193 442 l 193 0 l 83 0 l 83 604 l 193 604 l 193 521 q 372 618 266 618 q 498 594 454 618 q 578 513 543 570 q 773 618 655 618 q 998 391 998 618 l 998 0 z "},"n":{"ha":693,"x_min":83,"x_max":608,"o":"m 608 0 l 500 0 l 500 400 q 456 504 500 461 q 351 547 412 547 q 239 502 286 547 q 193 391 193 457 l 193 0 l 83 0 l 83 604 l 193 604 l 193 526 q 376 618 258 618 q 608 396 608 618 l 608 0 z "},"o":{"ha":713,"x_min":61,"x_max":655,"o":"m 494 134 q 517 170 494 134 q 541 301 541 206 q 494 469 541 396 q 358 543 446 543 q 220 470 267 543 q 172 301 172 397 q 220 134 172 205 q 358 62 267 62 q 494 134 446 62 m 655 301 q 571 65 655 146 q 358 -16 487 -16 q 144 65 227 -16 q 61 301 61 146 q 144 538 61 457 q 358 618 227 618 q 572 538 488 618 q 655 301 655 457 z "},"p":{"ha":724,"x_min":83,"x_max":663,"o":"m 547 301 q 503 473 547 403 q 370 543 458 543 q 236 473 279 543 q 193 301 193 404 q 236 130 193 198 q 370 61 279 61 q 503 130 458 61 q 547 301 547 198 m 595 532 q 629 488 595 532 q 663 301 663 445 q 595 69 663 157 q 382 -19 528 -19 q 193 62 296 -19 l 193 -240 l 83 -240 l 83 604 l 193 604 l 193 526 q 285 595 243 572 q 382 618 327 618 q 595 532 528 618 z "},"q":{"ha":724,"x_min":61,"x_max":639,"o":"m 530 301 q 486 473 530 403 q 354 543 442 543 q 219 473 263 543 q 175 301 175 403 q 219 130 175 198 q 354 61 263 61 q 486 130 442 61 q 530 301 530 198 m 639 -240 l 529 -240 l 529 62 q 338 -19 426 -19 q 127 68 194 -19 q 61 301 61 156 q 127 532 61 445 q 338 618 194 618 q 529 526 433 618 l 529 604 l 639 604 l 639 -240 z "},"r":{"ha":437,"x_min":83,"x_max":415,"o":"m 415 506 q 193 338 193 506 l 193 0 l 83 0 l 83 604 l 193 604 l 193 521 q 262 585 218 566 q 415 604 307 604 l 415 506 z "},"s":{"ha":608,"x_min":61,"x_max":547,"o":"m 547 176 q 471 29 547 75 q 282 -16 395 -16 q 122 30 183 -16 q 61 175 61 76 l 171 175 q 297 62 172 62 q 393 90 351 62 q 435 168 435 118 q 398 231 435 210 q 308 261 361 252 q 202 283 255 270 q 112 339 149 297 q 75 453 75 381 q 128 570 75 522 q 301 618 182 618 q 469 581 410 618 q 529 441 529 543 l 419 441 q 298 543 419 543 q 218 517 251 543 q 184 453 184 492 q 222 389 184 411 q 313 357 259 366 q 419 334 366 347 q 509 281 472 320 q 547 176 547 243 z "},"t":{"ha":423,"x_min":34,"x_max":387,"o":"m 387 0 q 297 -16 339 -16 q 178 22 213 -16 q 144 159 144 60 l 144 526 l 34 526 l 34 604 l 144 604 l 144 724 l 254 769 l 254 604 l 387 604 l 387 526 l 254 526 l 254 159 q 269 85 254 104 q 319 66 285 66 q 387 77 354 66 l 387 0 z "},"u":{"ha":692,"x_min":83,"x_max":608,"o":"m 608 0 l 498 0 l 498 77 q 315 -16 441 -16 q 83 205 83 -16 l 83 604 l 193 604 l 193 203 q 236 99 193 141 q 338 57 279 57 q 451 101 404 57 q 498 216 498 145 l 498 604 l 608 604 l 608 0 z "},"v":{"ha":647,"x_min":18,"x_max":628,"o":"m 628 604 l 378 0 l 269 0 l 18 604 l 144 604 l 330 132 l 513 604 l 628 604 z "},"w":{"ha":982,"x_min":18,"x_max":964,"o":"m 964 604 l 761 0 l 652 0 l 492 500 l 330 0 l 221 0 l 18 604 l 134 604 l 277 132 l 419 604 l 563 604 l 705 132 l 850 604 l 964 604 z "},"x":{"ha":661,"x_min":24,"x_max":636,"o":"m 636 0 l 498 0 l 321 237 l 151 0 l 24 0 l 264 313 l 42 604 l 179 604 l 338 387 l 494 604 l 620 604 l 396 313 l 636 0 z "},"y":{"ha":647,"x_min":18,"x_max":628,"o":"m 628 604 l 338 -134 q 285 -218 316 -190 q 193 -247 254 -247 q 30 -137 84 -247 l 115 -92 q 191 -151 144 -151 q 224 -131 210 -151 q 252 -69 237 -111 l 277 0 l 18 604 l 144 604 l 334 148 l 510 604 l 628 604 z "},"z":{"ha":566,"x_min":61,"x_max":505,"o":"m 505 0 l 61 0 l 61 99 l 380 518 l 83 518 l 83 604 l 505 604 l 505 505 l 180 83 l 505 83 l 505 0 z "},"{":{"ha":551,"x_min":95,"x_max":476,"o":"m 476 -601 q 395 -583 430 -601 q 335 -535 359 -564 q 294 -455 311 -506 q 267 -355 277 -404 q 252 -230 258 -305 q 245 -92 247 -155 q 244 62 244 -30 q 221 150 244 110 q 170 212 198 190 q 118 260 141 235 q 95 305 95 285 q 118 349 95 324 q 170 397 141 374 q 221 459 198 419 q 244 547 244 499 q 245 701 244 639 q 252 839 247 764 q 267 964 258 914 q 294 1064 277 1013 q 335 1144 311 1115 q 395 1192 359 1173 q 476 1210 430 1210 l 476 1143 q 345 999 377 1143 q 313 526 313 854 q 290 431 313 475 q 239 366 267 388 q 187 328 210 345 q 164 305 164 311 q 187 282 164 300 q 239 243 210 264 q 290 178 267 221 q 313 83 313 134 q 345 -389 313 -244 q 476 -533 377 -533 l 476 -601 z "},"|":{"ha":416,"x_min":176,"x_max":240,"o":"m 240 -312 l 176 -312 l 176 962 l 240 962 l 240 -312 z "},"}":{"ha":551,"x_min":75,"x_max":456,"o":"m 456 305 q 433 260 456 285 q 381 212 410 235 q 330 150 353 190 q 307 62 307 110 q 305 -92 307 -30 q 298 -230 304 -155 q 283 -355 293 -305 q 257 -455 274 -404 q 216 -535 240 -506 q 156 -583 191 -564 q 75 -601 121 -601 l 75 -533 q 205 -389 174 -533 q 237 83 237 -244 q 260 178 237 134 q 312 243 283 221 q 363 282 340 264 q 387 305 387 300 q 363 328 387 311 q 312 366 340 345 q 260 431 283 388 q 237 526 237 475 q 205 999 237 854 q 75 1143 174 1143 l 75 1210 q 156 1192 121 1210 q 216 1144 191 1173 q 257 1064 240 1115 q 283 964 274 1013 q 298 839 293 914 q 305 701 304 764 q 307 547 307 639 q 330 459 307 499 q 381 397 353 419 q 433 349 410 374 q 456 305 456 324 z "},"~":{"ha":762,"x_min":75,"x_max":688,"o":"m 688 323 q 506 241 602 241 q 366 284 445 241 q 262 327 288 327 q 193 312 227 327 q 95 248 159 297 l 75 298 q 170 363 127 345 q 262 382 212 382 q 380 340 308 382 q 506 297 453 297 q 652 363 567 297 l 688 323 z "},"×":{"ha":671,"x_min":126,"x_max":545,"o":"m 543 142 l 494 94 l 335 252 l 176 94 l 126 144 l 285 302 l 126 461 l 175 510 l 334 351 l 494 513 l 545 461 l 384 301 l 543 142 z "},"က":{"ha":1359,"x_min":75,"x_max":1283,"o":"m 1283 301 q 1190 74 1283 168 q 968 -20 1097 -20 q 872 0 914 -20 l 899 62 q 968 49 930 49 q 1142 123 1070 49 q 1214 301 1214 197 q 1142 479 1214 406 q 968 553 1070 553 q 794 460 871 553 q 718 260 718 368 q 586 -20 716 81 l 545 38 q 648 274 648 132 q 575 473 648 395 q 396 551 502 551 q 217 473 290 551 q 144 274 144 395 q 248 38 144 132 l 208 -20 q 109 100 144 33 q 75 274 75 168 q 168 523 75 426 q 396 620 260 620 q 572 568 494 620 q 689 425 651 515 q 807 568 732 513 q 968 623 882 623 q 1190 528 1097 623 q 1283 301 1283 433 z "},"ခ":{"ha":781,"x_min":75,"x_max":705,"o":"m 507 80 q 416 172 477 136 q 289 208 355 208 q 156 172 221 208 q 384 49 229 49 q 507 80 449 49 m 705 301 q 611 74 705 168 q 384 -20 517 -20 q 180 43 267 -20 q 75 208 92 107 q 285 277 189 277 q 451 231 374 277 q 566 123 528 186 q 636 301 636 201 q 562 479 636 404 q 384 553 488 553 q 245 513 312 553 q 144 403 178 472 l 85 437 q 205 572 121 521 q 384 623 289 623 q 611 528 517 623 q 705 301 705 433 z "},"ဂ":{"ha":793,"x_min":75,"x_max":718,"o":"m 718 274 q 684 99 718 167 q 586 -20 651 31 l 545 38 q 648 274 648 132 q 575 473 648 395 q 396 551 502 551 q 217 473 290 551 q 144 274 144 395 q 248 38 144 132 l 208 -20 q 109 100 144 33 q 75 274 75 168 q 168 523 75 426 q 396 620 260 620 q 625 524 532 620 q 718 274 718 427 z "},"ဃ":{"ha":1355,"x_min":75,"x_max":1279,"o":"m 1279 301 q 1186 74 1279 168 q 964 -20 1093 -20 q 800 34 876 -20 q 680 176 723 88 q 563 33 642 85 q 387 -20 484 -20 q 163 59 252 -20 q 75 228 75 138 q 104 326 75 286 q 170 380 134 365 q 235 416 205 396 q 264 460 264 437 q 243 528 264 506 q 193 549 221 549 q 153 534 171 549 q 134 509 136 518 l 75 545 q 119 593 81 567 q 193 618 157 618 q 292 576 251 618 q 334 460 334 533 q 304 385 334 416 q 239 339 274 354 q 174 296 203 324 q 144 228 144 267 q 158 186 144 213 q 199 127 172 159 q 275 72 225 95 q 387 49 326 49 q 571 134 503 49 q 639 342 639 218 q 609 466 639 408 q 534 562 579 524 l 575 620 q 708 326 708 513 q 789 139 708 229 q 964 49 869 49 q 1138 123 1066 49 q 1210 301 1210 197 q 1138 479 1210 406 q 964 553 1066 553 q 895 538 925 553 l 868 602 q 964 623 914 623 q 1186 528 1093 623 q 1279 301 1279 433 z "},"င":{"ha":770,"x_min":75,"x_max":696,"o":"m 696 164 q 575 28 659 76 q 396 -20 491 -20 q 169 74 263 -20 q 75 301 75 168 q 170 528 75 433 q 396 623 264 623 q 575 574 491 623 q 696 437 659 525 l 636 403 q 534 513 600 473 q 396 553 469 553 q 218 479 293 553 q 144 301 144 404 q 218 123 144 198 q 396 49 293 49 q 534 89 469 49 q 636 199 600 129 l 696 164 z "},"စ":{"ha":781,"x_min":75,"x_max":705,"o":"m 327 301 q 237 498 327 408 q 170 411 195 464 q 144 301 144 358 q 236 106 144 176 q 327 301 327 197 m 636 301 q 564 479 636 404 q 392 553 492 553 q 298 534 345 553 q 396 301 396 441 q 298 66 396 164 q 388 49 349 49 q 564 123 491 49 q 636 301 636 197 m 613 528 q 659 481 613 528 q 705 301 705 434 q 614 74 705 168 q 392 -20 522 -20 q 166 73 258 -20 q 75 301 75 167 q 166 528 75 433 q 388 623 258 623 q 613 528 521 623 z "},"ဆ":{"ha":1343,"x_min":75,"x_max":1267,"o":"m 506 79 q 415 172 472 137 q 290 208 358 208 q 156 171 236 208 q 384 49 225 49 q 506 79 442 49 m 1198 301 q 1126 479 1198 404 q 952 553 1054 553 q 778 479 850 553 q 705 301 705 404 q 778 123 705 197 q 952 49 850 49 q 1126 123 1054 49 q 1198 301 1198 197 m 1267 301 q 1174 74 1267 168 q 952 -20 1081 -20 q 785 28 861 -20 q 671 155 709 76 q 553 28 629 76 q 384 -20 476 -20 q 180 44 273 -20 q 75 208 87 109 q 149 244 122 232 q 212 267 175 256 q 285 277 250 277 q 441 235 366 277 q 566 123 515 194 q 636 301 636 201 q 562 479 636 404 q 384 553 488 553 q 248 513 313 553 q 144 403 183 472 l 85 437 q 203 572 121 522 q 384 623 286 623 q 553 574 476 623 q 671 448 629 526 q 785 574 709 526 q 952 623 861 623 q 1174 528 1081 623 q 1267 301 1267 433 z "},"ဇ":{"ha":826,"x_min":75,"x_max":770,"o":"m 591 354 q 490 392 545 392 q 420 326 420 392 q 440 290 420 302 q 490 277 460 277 q 557 295 528 277 q 591 354 587 313 m 770 212 l 716 172 q 643 290 665 260 q 578 229 620 251 q 490 208 536 208 q 391 238 431 208 q 351 326 351 269 q 389 423 351 385 q 490 461 426 461 q 575 441 534 461 q 392 553 532 553 q 216 477 288 553 q 144 301 144 401 q 214 121 144 193 q 388 49 283 49 q 489 68 446 49 q 582 132 532 87 l 627 77 q 515 3 567 26 q 388 -20 463 -20 q 163 73 252 -20 q 75 301 75 165 q 167 527 75 431 q 388 623 259 623 q 582 553 507 623 q 661 384 656 483 q 770 212 709 327 z "},"ဈ":{"ha":978,"x_min":75,"x_max":903,"o":"m 327 301 q 237 498 327 411 q 144 301 144 422 q 233 106 144 182 q 327 301 327 195 m 564 123 q 600 160 564 123 q 636 301 636 197 q 564 479 636 406 q 392 553 492 553 q 301 534 353 553 q 396 301 396 435 q 298 66 396 164 q 388 49 338 49 q 564 123 491 49 m 903 -610 l 476 -500 l 476 -8 q 392 -20 435 -20 q 166 73 258 -20 q 75 301 75 167 q 167 528 75 433 q 388 623 259 623 q 613 528 521 623 q 705 301 705 434 q 663 136 705 210 q 547 20 620 61 l 547 -446 l 834 -521 l 834 602 l 903 602 l 903 -610 z "},"ဉ":{"ha":770,"x_min":75,"x_max":1246,"o":"m 1246 -410 l 1246 -471 q 1225 -574 1246 -548 q 1133 -610 1195 -610 l 435 -610 q 276 -589 339 -610 q 164 -517 213 -567 q 75 -251 75 -426 l 75 164 l 136 199 q 237 89 172 129 q 374 49 301 49 q 552 123 477 49 q 627 301 627 198 q 552 479 627 404 q 374 553 477 553 q 237 513 301 553 q 136 403 172 473 l 75 437 q 195 574 111 525 q 374 623 279 623 q 601 528 506 623 q 696 301 696 433 q 602 74 696 168 q 374 -20 507 -20 q 144 66 241 -20 l 144 -227 q 216 -471 144 -399 q 457 -541 285 -541 l 1099 -541 q 1165 -528 1153 -541 q 1177 -458 1177 -515 l 1177 -410 l 1246 -410 z "},"ည":{"ha":1343,"x_min":75,"x_max":1267,"o":"m 1267 301 q 1174 74 1267 168 q 952 -20 1081 -20 q 789 33 864 -20 q 669 172 713 87 q 551 33 631 85 q 374 -20 471 -20 q 144 66 241 -20 l 144 -227 q 216 -471 144 -399 q 457 -541 285 -541 l 1099 -541 q 1165 -528 1153 -541 q 1177 -458 1177 -515 l 1177 -410 l 1246 -410 l 1246 -471 q 1225 -574 1246 -548 q 1133 -610 1195 -610 l 435 -610 q 276 -589 339 -610 q 164 -517 213 -567 q 75 -251 75 -426 l 75 164 l 136 199 q 237 89 172 129 q 374 49 301 49 q 552 122 477 49 q 627 297 627 195 q 553 473 627 393 q 374 553 480 553 q 136 403 213 553 l 75 437 q 195 574 111 525 q 374 623 279 623 q 596 530 502 623 q 696 309 690 437 q 785 129 708 209 q 952 49 861 49 q 1126 123 1054 49 q 1198 301 1198 197 q 1126 479 1198 406 q 952 553 1054 553 q 883 538 920 553 l 856 602 q 952 623 914 623 q 1174 528 1081 623 q 1267 301 1267 433 z "},"ဋ":{"ha":770,"x_min":75,"x_max":810,"o":"m 810 -574 q 705 -610 730 -610 q 627 -513 627 -610 l 627 -357 q 396 -397 529 -397 q 115 -316 229 -397 l 115 -56 q 396 -145 260 -145 q 627 -81 507 -145 l 627 66 q 396 -20 529 -20 q 169 74 263 -20 q 75 301 75 168 q 170 528 75 433 q 396 623 264 623 q 575 574 491 623 q 696 437 659 525 l 636 403 q 534 513 600 473 q 396 553 469 553 q 218 479 293 553 q 144 301 144 404 q 218 123 144 198 q 396 49 293 49 q 534 89 469 49 q 636 199 600 129 l 696 164 l 696 -121 q 396 -214 548 -214 q 184 -170 282 -214 l 184 -277 q 396 -328 283 -328 q 696 -252 540 -328 l 696 -500 q 712 -536 696 -536 q 791 -507 743 -536 l 810 -574 z "},"ဌ":{"ha":770,"x_min":75,"x_max":696,"o":"m 696 164 l 696 -373 q 627 -536 696 -467 q 457 -610 552 -610 l 232 -610 q 132 -569 170 -610 q 95 -471 95 -528 q 136 -374 95 -416 q 245 -332 178 -332 q 331 -362 301 -332 l 285 -415 q 245 -401 263 -401 q 185 -420 206 -401 q 164 -471 164 -439 q 184 -519 164 -496 q 232 -541 203 -541 l 416 -541 q 510 -532 480 -541 q 574 -491 540 -524 q 627 -358 627 -442 l 627 66 q 396 -20 529 -20 q 169 74 263 -20 q 75 301 75 168 q 170 528 75 433 q 396 623 264 623 q 575 574 491 623 q 696 437 659 525 l 636 403 q 534 513 600 473 q 396 553 469 553 q 218 479 293 553 q 144 301 144 404 q 218 123 144 198 q 396 49 293 49 q 534 89 469 49 q 636 199 600 129 l 696 164 z "},"ဍ":{"ha":770,"x_min":75,"x_max":742,"o":"m 742 -610 l 566 -610 l 566 -178 q 374 -214 469 -214 q 75 -121 222 -214 l 75 164 l 136 199 q 237 89 172 129 q 374 49 301 49 q 552 123 477 49 q 627 301 627 198 q 552 479 627 404 q 374 553 477 553 q 237 513 301 553 q 136 403 172 473 l 75 437 q 195 574 111 525 q 374 623 279 623 q 601 528 506 623 q 696 301 696 433 q 602 74 696 168 q 374 -20 507 -20 q 144 66 241 -20 l 144 -81 q 374 -145 263 -145 q 635 -69 496 -145 l 635 -541 l 742 -541 l 742 -610 z "},"ဎ":{"ha":783,"x_min":75,"x_max":708,"o":"m 708 326 q 616 76 708 172 q 387 -20 524 -20 q 163 59 252 -20 q 75 228 75 138 q 104 326 75 286 q 170 380 134 365 q 235 416 205 396 q 264 460 264 437 q 243 528 264 506 q 193 549 221 549 q 153 534 171 549 q 134 509 136 518 l 75 545 q 114 591 77 564 q 193 618 151 618 q 292 576 251 618 q 334 460 334 533 q 304 385 334 416 q 239 339 274 354 q 174 296 203 324 q 144 228 144 267 q 158 186 144 213 q 199 127 172 159 q 275 72 225 95 q 387 49 326 49 q 566 127 492 49 q 639 326 639 205 q 534 562 639 468 l 575 620 q 708 326 708 517 z "},"ဏ":{"ha":1400,"x_min":75,"x_max":1324,"o":"m 818 517 q 700 553 762 553 q 582 517 636 553 q 644 301 644 426 q 628 214 644 278 q 612 136 612 149 q 637 72 612 95 q 700 49 662 49 q 758 73 728 49 q 787 136 787 96 q 772 222 787 163 q 757 301 757 281 q 818 517 757 427 m 1324 301 q 1250 71 1324 163 q 1050 -20 1176 -20 q 974 0 1001 -20 l 1002 61 q 1050 49 1025 49 q 1201 121 1147 49 q 1255 301 1255 193 q 1192 480 1255 407 q 1029 553 1128 553 q 878 482 930 553 q 826 301 826 411 q 841 212 826 259 q 856 136 856 165 q 813 24 856 69 q 700 -20 770 -20 q 588 25 633 -20 q 543 136 543 71 q 559 212 543 165 q 575 301 575 259 q 522 481 575 410 q 370 553 468 553 q 208 480 271 553 q 144 301 144 407 q 197 120 144 191 q 350 49 251 49 q 400 61 382 49 l 425 0 q 350 -20 397 -20 q 149 71 224 -20 q 75 301 75 163 q 158 529 75 435 q 370 623 241 623 q 530 570 463 623 q 700 623 587 623 q 868 570 811 623 q 1029 623 941 623 q 1240 528 1157 623 q 1324 301 1324 434 z "},"တ":{"ha":1352,"x_min":75,"x_max":1278,"o":"m 636 294 q 566 477 636 401 q 392 553 496 553 q 216 479 289 553 q 144 301 144 406 q 216 123 144 197 q 388 49 288 49 q 565 124 494 49 q 636 294 636 199 m 1278 301 q 1184 74 1278 168 q 962 -20 1090 -20 q 867 0 907 -20 l 895 62 q 962 49 926 49 q 1137 123 1065 49 q 1208 301 1208 197 q 1137 479 1208 406 q 962 553 1065 553 q 823 500 884 553 q 733 386 761 446 q 705 282 705 326 q 671 153 705 221 q 562 33 636 85 q 392 -20 487 -20 q 166 73 258 -20 q 75 301 75 167 q 167 528 75 433 q 388 623 259 623 q 564 569 484 623 q 680 429 643 515 q 801 568 724 513 q 962 623 878 623 q 1184 528 1090 623 q 1278 301 1278 433 z "},"ထ":{"ha":1343,"x_min":75,"x_max":1267,"o":"m 564 123 q 600 160 564 123 q 636 301 636 197 q 564 479 636 406 q 392 553 492 553 q 216 479 289 553 q 144 301 144 406 q 216 123 144 197 q 388 49 288 49 q 564 123 491 49 m 1126 123 q 1162 160 1126 123 q 1198 301 1198 197 q 1126 479 1198 406 q 952 553 1054 553 q 777 479 849 553 q 705 301 705 406 q 777 123 705 197 q 952 49 849 49 q 1126 123 1054 49 m 1267 301 q 1174 74 1267 168 q 952 -20 1081 -20 q 785 28 861 -20 q 671 155 709 76 q 555 27 629 75 q 392 -20 481 -20 q 166 73 258 -20 q 75 301 75 167 q 167 528 75 433 q 388 623 259 623 q 553 575 479 623 q 671 448 628 528 q 785 574 709 526 q 952 623 861 623 q 1174 528 1081 623 q 1267 301 1267 433 z "},"ဒ":{"ha":724,"x_min":75,"x_max":648,"o":"m 648 167 q 577 31 648 83 q 362 -20 506 -20 q 150 28 225 -20 q 75 156 75 76 l 138 180 q 362 49 138 52 q 516 77 453 49 q 579 167 579 104 q 388 266 579 250 l 388 335 q 446 343 423 339 q 505 357 469 347 q 560 387 541 368 q 579 435 579 407 q 516 526 579 498 q 362 553 453 553 q 138 420 138 553 l 75 445 q 150 574 75 525 q 362 623 225 623 q 577 570 506 623 q 648 435 648 518 q 618 349 648 387 q 534 301 587 311 q 618 252 587 290 q 648 167 648 214 z "},"ဓ":{"ha":781,"x_min":75,"x_max":705,"o":"m 583 146 q 392 232 498 232 q 197 144 290 232 q 388 49 273 49 q 583 146 510 49 m 636 301 q 564 479 636 404 q 392 553 492 553 q 216 479 289 553 q 144 301 144 404 q 163 208 144 252 q 388 301 256 301 q 618 208 525 301 q 636 301 636 251 m 613 528 q 659 481 613 528 q 705 301 705 434 q 614 74 705 168 q 392 -20 522 -20 q 166 73 258 -20 q 75 301 75 167 q 166 528 75 433 q 388 623 258 623 q 613 528 521 623 z "},"န":{"ha":719,"x_min":75,"x_max":644,"o":"m 376 49 q 332 155 366 111 q 250 199 298 199 q 175 180 206 199 q 144 132 144 161 q 159 87 144 104 q 205 62 175 69 q 261 52 235 54 q 323 49 288 49 l 376 49 m 644 197 q 595 58 644 107 q 448 -11 547 9 l 448 -610 l 378 -610 l 378 -20 l 323 -20 q 75 132 75 -20 q 125 227 75 186 q 250 269 175 269 q 385 206 335 269 q 445 57 434 145 q 575 197 575 80 q 536 275 575 243 q 441 327 496 308 q 330 365 385 346 q 235 416 274 384 q 195 492 195 448 q 250 589 195 555 q 370 623 304 623 q 522 571 461 623 l 477 518 q 435 541 465 529 q 370 553 404 553 q 297 539 330 553 q 264 494 264 525 q 304 450 264 469 q 399 414 343 431 q 510 372 454 396 q 605 304 566 349 q 644 197 644 259 z "},"ပ":{"ha":792,"x_min":75,"x_max":718,"o":"m 718 326 q 625 77 718 174 q 396 -20 532 -20 q 168 77 260 -20 q 75 326 75 174 q 208 620 75 510 l 248 562 q 144 326 144 467 q 217 127 144 205 q 396 49 290 49 q 575 127 502 49 q 648 326 648 205 q 545 562 648 467 l 586 620 q 718 326 718 515 z "},"ဖ":{"ha":793,"x_min":75,"x_max":718,"o":"m 648 326 q 553 513 648 412 q 502 351 502 434 q 600 159 502 232 q 648 326 648 227 m 718 326 q 625 76 718 172 q 396 -20 532 -20 q 168 76 260 -20 q 75 326 75 172 q 208 620 75 513 l 248 562 q 144 326 144 467 q 217 127 144 205 q 396 49 290 49 q 551 103 487 49 q 433 354 433 202 q 549 620 433 506 q 608 567 585 590 q 659 507 631 544 q 703 423 688 469 q 718 326 718 377 z "},"ဗ":{"ha":793,"x_min":75,"x_max":718,"o":"m 648 301 q 595 502 648 423 q 396 395 526 395 q 197 502 269 395 q 144 301 144 429 q 219 123 144 198 q 396 49 294 49 q 573 123 498 49 q 648 301 648 198 m 718 301 q 623 74 718 168 q 396 -20 528 -20 q 170 74 264 -20 q 75 301 75 168 q 106 494 75 408 q 201 620 138 581 q 248 541 228 570 q 307 488 267 513 q 396 464 346 464 q 511 503 471 464 q 591 620 552 543 q 684 494 651 581 q 718 301 718 407 z "},"ဘ":{"ha":1337,"x_min":75,"x_max":1263,"o":"m 1263 301 q 1170 74 1263 168 q 948 -20 1077 -20 q 852 0 895 -20 l 879 62 q 948 49 907 49 q 1122 123 1050 49 q 1194 301 1194 197 q 1122 479 1194 404 q 948 553 1050 553 q 773 459 853 553 q 693 264 693 365 q 604 77 693 175 q 374 -20 515 -20 q 193 29 277 -20 q 75 164 110 79 l 136 199 q 237 89 172 129 q 374 49 301 49 q 554 123 481 49 q 627 294 627 197 q 553 477 627 401 q 374 553 480 553 q 237 513 301 553 q 136 403 172 472 l 75 437 q 196 573 114 524 q 374 623 278 623 q 551 570 472 623 q 669 431 631 518 q 787 569 712 515 q 948 623 861 623 q 1170 528 1077 623 q 1263 301 1263 433 z "},"မ":{"ha":793,"x_min":75,"x_max":718,"o":"m 591 144 q 396 232 502 232 q 203 142 292 232 q 396 49 274 49 q 591 144 518 49 m 718 326 q 625 76 718 172 q 396 -20 532 -20 q 168 76 260 -20 q 75 326 75 172 q 208 620 75 513 l 248 562 q 144 326 144 467 q 167 205 144 267 q 396 301 264 301 q 627 208 533 301 q 648 326 648 263 q 545 562 648 463 l 586 620 q 718 326 718 515 z "},"ယ":{"ha":1348,"x_min":75,"x_max":1274,"o":"m 1274 301 q 1180 74 1274 168 q 958 -20 1086 -20 q 803 34 875 -20 q 688 172 731 88 q 571 31 648 83 q 396 -20 494 -20 q 168 77 260 -20 q 75 326 75 174 q 208 620 75 510 l 248 562 q 144 326 144 467 q 217 127 144 205 q 396 49 290 49 q 575 127 502 49 q 648 326 648 205 q 545 562 648 467 l 586 620 q 718 335 718 510 q 790 138 718 228 q 958 49 863 49 q 1133 123 1061 49 q 1204 301 1204 197 q 1133 479 1204 406 q 958 553 1061 553 q 888 538 920 553 l 863 602 q 958 623 907 623 q 1180 528 1086 623 q 1274 301 1274 433 z "},"ရ":{"ha":798,"x_min":75,"x_max":834,"o":"m 452 54 q 399 158 430 118 q 311 224 368 198 q 210 245 262 245 l 152 240 q 239 103 172 157 q 396 49 307 49 q 452 54 426 49 m 834 -610 l 652 -610 l 652 274 q 577 475 652 396 q 396 553 502 553 q 223 481 297 553 q 144 311 149 408 q 202 315 172 315 q 342 285 283 315 q 462 184 422 247 q 538 9 502 122 q 477 -10 522 0 q 396 -20 433 -20 q 169 74 263 -20 q 75 301 75 168 q 170 526 75 431 q 396 620 264 620 q 627 524 533 620 q 722 274 722 427 l 722 -541 l 834 -541 l 834 -610 z "},"လ":{"ha":1302,"x_min":75,"x_max":1226,"o":"m 1226 301 q 1139 73 1226 167 q 921 -20 1051 -20 q 719 70 798 -20 q 616 301 640 160 q 538 482 598 411 q 380 553 477 553 q 212 479 281 553 q 144 301 144 404 q 212 122 144 195 q 380 49 281 49 q 448 62 419 49 l 473 0 q 380 -20 431 -20 q 163 73 251 -20 q 75 301 75 167 q 163 528 75 434 q 380 623 252 623 q 584 530 503 623 q 685 301 665 438 q 763 121 701 193 q 921 49 825 49 q 1089 122 1021 49 q 1157 301 1157 195 q 1088 479 1157 406 q 921 553 1020 553 q 854 538 887 553 l 827 602 q 921 623 871 623 q 1139 528 1051 623 q 1226 301 1226 434 z "},"ဝ":{"ha":780,"x_min":75,"x_max":705,"o":"m 563 123 q 600 161 563 123 q 636 301 636 198 q 563 479 636 404 q 389 553 490 553 q 215 479 286 553 q 144 301 144 406 q 215 123 144 197 q 389 49 286 49 q 563 123 490 49 m 705 301 q 612 74 705 168 q 389 -20 519 -20 q 168 74 260 -20 q 75 301 75 168 q 168 528 75 433 q 389 623 260 623 q 612 528 519 623 q 705 301 705 433 z "},"သ":{"ha":1343,"x_min":75,"x_max":1267,"o":"m 1267 301 q 1174 74 1267 168 q 952 -20 1081 -20 q 791 34 867 -20 q 669 172 715 88 q 551 33 631 85 q 374 -20 472 -20 q 196 28 278 -20 q 75 164 114 76 l 136 199 q 237 89 172 129 q 374 49 301 49 q 557 124 487 49 q 627 311 627 199 q 549 481 627 408 q 374 553 472 553 q 237 513 301 553 q 136 403 172 472 l 75 437 q 193 572 110 522 q 374 623 277 623 q 593 534 494 623 q 693 330 693 446 q 770 142 693 235 q 952 49 848 49 q 1126 123 1054 49 q 1198 301 1198 197 q 1126 479 1198 404 q 952 553 1054 553 q 883 538 916 553 l 856 602 q 952 623 898 623 q 1174 528 1081 623 q 1267 301 1267 433 z "},"ဟ":{"ha":1359,"x_min":75,"x_max":1283,"o":"m 1283 301 q 1190 74 1283 168 q 968 -20 1097 -20 q 872 0 914 -20 l 899 62 q 968 49 928 49 q 1142 123 1070 49 q 1214 301 1214 197 q 1142 479 1214 406 q 968 553 1070 553 q 794 464 871 553 q 718 298 718 374 q 631 79 718 179 q 396 -20 544 -20 q 168 77 260 -20 q 75 326 75 174 q 208 620 75 510 l 248 562 q 144 326 144 467 q 217 127 144 205 q 396 49 290 49 q 575 127 502 49 q 648 326 648 205 q 545 562 648 467 l 586 620 q 701 452 674 545 q 819 575 747 528 q 968 623 890 623 q 1190 528 1097 623 q 1283 301 1283 433 z "},"ဠ":{"ha":791,"x_min":75,"x_max":696,"o":"m 696 -121 q 396 -214 548 -214 q 184 -170 278 -214 l 184 -358 q 240 -491 184 -445 q 304 -532 278 -524 q 395 -541 330 -541 l 549 -541 q 627 -471 627 -541 q 606 -420 627 -439 q 545 -401 585 -401 q 506 -415 528 -401 l 460 -362 q 545 -332 487 -332 q 654 -374 612 -332 q 696 -471 696 -416 q 664 -572 696 -534 q 566 -610 632 -610 l 354 -610 q 184 -537 258 -610 q 136 -467 157 -513 q 115 -373 115 -422 l 115 -56 q 396 -145 262 -145 q 627 -81 506 -145 l 627 66 q 396 -20 532 -20 q 169 74 263 -20 q 75 301 75 168 q 169 528 75 433 q 396 623 263 623 q 575 574 491 623 q 696 437 659 525 l 636 403 q 535 514 600 475 q 396 553 471 553 q 218 479 293 553 q 144 301 144 404 q 218 123 144 198 q 396 49 293 49 q 535 88 471 49 q 636 199 600 127 l 696 164 l 696 -121 z "},"အ":{"ha":1275,"x_min":75,"x_max":1200,"o":"m 1124 244 q 1076 247 1107 247 q 966 224 1013 247 q 876 157 907 197 q 826 54 844 117 q 880 49 849 49 q 1024 94 960 49 q 1124 244 1097 144 m 1200 301 q 1103 71 1200 161 q 872 -20 1005 -20 q 734 9 799 -20 q 764 96 751 64 q 800 168 777 129 q 857 234 823 206 q 936 285 890 262 q 1085 317 1001 317 q 1133 313 1112 317 q 1057 481 1133 410 q 879 553 981 553 q 749 518 810 553 q 647 419 688 483 q 611 342 640 373 q 534 301 582 311 q 617 252 586 290 q 648 167 648 214 q 581 34 648 90 q 362 -20 514 -20 q 149 28 224 -20 q 75 156 75 76 l 138 180 q 362 49 138 52 q 517 76 454 49 q 579 167 579 103 q 388 266 579 254 l 388 335 q 447 342 426 339 q 505 357 468 346 q 560 387 541 368 q 579 435 579 407 q 516 525 579 496 q 362 553 453 553 q 138 420 138 553 l 75 445 q 150 574 75 525 q 362 623 225 623 q 631 514 566 623 q 879 623 731 623 q 1106 528 1012 623 q 1200 301 1200 434 z "},"ဢ":{"ha":1355,"x_min":75,"x_max":1279,"o":"m 1186 528 q 1233 480 1186 528 q 1279 301 1279 433 q 1186 75 1279 170 q 964 -20 1093 -20 q 868 0 910 -20 l 895 62 q 964 49 926 49 q 1138 123 1066 49 q 1210 301 1210 197 q 1138 479 1210 406 q 964 553 1066 553 q 789 463 869 553 q 708 277 708 372 q 575 -16 708 87 l 534 42 q 639 262 639 127 q 571 470 639 385 q 387 555 503 555 q 275 532 326 555 q 199 477 225 509 q 158 418 172 445 q 144 376 144 391 q 174 308 144 336 q 239 264 203 279 q 304 216 274 250 q 334 130 334 182 q 292 25 334 65 q 193 -15 250 -15 q 118 7 155 -15 q 75 58 81 30 l 133 94 q 193 54 152 54 q 243 74 222 54 q 264 130 264 94 q 235 184 264 161 q 170 223 205 208 q 104 278 134 239 q 75 376 75 317 q 163 545 75 465 q 387 624 252 624 q 562 570 484 624 q 680 425 640 517 q 800 568 724 513 q 964 623 876 623 q 1186 528 1093 623 z "},"ဣ":{"ha":1367,"x_min":75,"x_max":1291,"o":"m 1198 -610 l 1021 -610 l 1021 -566 q 1099 -382 1099 -488 q 1043 -228 1099 -286 q 905 -170 987 -170 q 766 -229 822 -170 q 709 -382 709 -288 l 709 -496 l 656 -496 l 656 -382 q 600 -229 656 -288 q 461 -170 544 -170 q 324 -229 380 -170 q 269 -382 269 -288 q 346 -566 269 -499 l 317 -610 q 216 -382 216 -533 q 287 -192 216 -267 q 461 -117 358 -117 q 593 -154 534 -117 q 684 -256 651 -191 q 773 -154 715 -191 q 905 -117 831 -117 q 1080 -192 1009 -117 q 1152 -382 1152 -267 q 1099 -557 1152 -486 l 1198 -557 l 1198 -610 m 1291 274 q 1160 -20 1291 87 l 1119 38 q 1222 274 1222 133 q 1149 473 1222 395 q 970 551 1076 551 q 791 473 864 551 q 718 274 718 395 l 718 127 l 648 127 l 648 274 q 575 473 648 395 q 396 551 502 551 q 217 473 290 551 q 144 274 144 395 q 248 38 144 133 l 208 -20 q 75 274 75 87 q 168 523 75 426 q 396 620 260 620 q 566 571 490 620 q 684 437 642 522 q 800 571 724 522 q 970 620 876 620 q 1198 523 1105 620 q 1291 274 1291 426 z "},"ဤ":{"ha":1600,"x_min":75,"x_max":1526,"o":"m 1506 -610 l 1436 -610 l 1436 529 q 1412 625 1436 582 q 1350 696 1388 669 q 1270 753 1313 723 q 1190 812 1227 784 q 1128 884 1153 840 q 1104 985 1104 929 q 1175 1156 1104 1085 q 1348 1226 1246 1226 q 1465 1190 1419 1226 q 1526 1107 1511 1154 l 1462 1080 q 1418 1135 1451 1114 q 1348 1157 1385 1157 q 1225 1107 1278 1157 q 1173 985 1173 1057 q 1198 905 1173 941 q 1259 844 1222 868 q 1339 788 1297 819 q 1419 726 1382 757 q 1481 644 1457 694 q 1506 529 1506 593 l 1506 -610 m 1283 -373 q 1214 -536 1283 -467 q 1046 -610 1139 -610 l 225 -610 q 113 -564 152 -610 q 75 -471 75 -517 q 439 -271 75 -271 q 712 -302 600 -271 q 867 -373 825 -334 l 826 -422 q 745 -384 779 -397 q 629 -355 712 -370 q 439 -340 547 -340 q 144 -471 144 -340 q 165 -517 144 -494 q 225 -541 186 -541 l 1005 -541 q 1097 -532 1072 -541 q 1160 -491 1123 -524 q 1214 -358 1214 -441 l 1214 301 q 1142 479 1214 406 q 968 553 1070 553 q 794 460 871 553 q 718 260 718 366 q 586 -20 718 80 l 545 38 q 648 274 648 133 q 575 473 648 395 q 396 551 502 551 q 217 473 290 551 q 144 274 144 395 q 248 38 144 133 l 208 -20 q 75 274 75 87 q 168 523 75 426 q 396 620 260 620 q 573 568 495 620 q 689 425 651 517 q 806 568 732 513 q 968 623 880 623 q 1190 528 1097 623 q 1283 301 1283 433 l 1283 -373 z "},"ဥ":{"ha":770,"x_min":75,"x_max":696,"o":"m 675 -410 l 675 -475 q 643 -583 675 -553 q 534 -610 613 -610 l 313 -610 q 144 -537 217 -610 q 96 -466 117 -510 q 75 -373 75 -422 l 75 164 l 136 199 q 237 89 172 129 q 374 49 301 49 q 552 123 477 49 q 627 301 627 198 q 552 479 627 404 q 374 553 477 553 q 237 513 301 553 q 136 403 172 473 l 75 437 q 195 574 111 525 q 374 623 279 623 q 601 528 506 623 q 696 301 696 433 q 602 74 696 168 q 374 -20 507 -20 q 144 66 241 -20 l 144 -358 q 197 -491 144 -446 q 331 -541 256 -541 l 530 -541 q 592 -530 578 -541 q 606 -475 606 -518 l 606 -410 l 675 -410 z "},"ဦ":{"ha":770,"x_min":75,"x_max":696,"o":"m 675 -410 l 675 -475 q 643 -583 675 -553 q 534 -610 613 -610 l 313 -610 q 144 -537 217 -610 q 96 -466 117 -510 q 75 -373 75 -422 l 75 164 l 136 199 q 237 89 172 129 q 374 49 301 49 q 552 123 477 49 q 627 301 627 198 q 552 479 627 404 q 374 553 477 553 q 237 513 301 553 q 136 403 172 473 l 75 437 q 195 574 111 525 q 374 623 279 623 q 601 528 506 623 q 696 301 696 433 q 602 74 696 168 q 374 -20 507 -20 q 144 66 241 -20 l 144 -358 q 197 -491 144 -446 q 331 -541 256 -541 l 530 -541 q 592 -530 578 -541 q 606 -475 606 -518 l 606 -410 l 675 -410 m 529 860 q 451 915 495 898 q 374 932 407 932 q 224 860 293 932 q 290 804 248 827 q 374 781 332 781 q 529 860 476 781 m 564 977 q 509 1114 564 1057 q 374 1172 453 1172 q 241 1114 297 1172 q 186 977 186 1057 q 199 905 186 941 q 374 978 273 978 q 552 905 483 978 q 564 977 564 939 m 546 1152 q 582 1116 546 1152 q 617 977 617 1080 q 546 801 617 873 q 374 728 475 728 q 204 801 275 728 q 133 977 133 873 q 204 1152 133 1080 q 374 1225 275 1225 q 546 1152 475 1225 z "},"ဧ":{"ha":781,"x_min":75,"x_max":705,"o":"m 618 164 q 496 199 548 199 q 368 169 416 199 q 278 77 320 138 q 396 49 339 49 q 618 164 545 49 m 620 435 q 525 523 586 492 q 396 553 464 553 q 277 524 339 553 q 375 431 326 460 q 492 401 425 401 q 620 435 563 401 m 705 184 q 396 -20 614 -20 q 169 74 263 -20 q 75 301 75 168 q 170 528 75 433 q 396 623 264 623 q 585 568 502 623 q 704 416 667 513 q 492 346 609 346 q 225 486 330 346 q 144 301 144 418 q 225 115 144 193 q 496 256 330 256 q 705 184 606 256 z "},"ဨ":{"ha":781,"x_min":75,"x_max":705,"o":"m 705 -290 q 618 -511 705 -412 q 396 -610 530 -610 q 163 -512 252 -610 q 75 -289 75 -414 l 75 305 q 163 526 75 430 q 396 623 251 623 q 617 522 529 623 q 705 304 705 420 q 692 191 705 245 q 650 87 678 136 q 572 9 623 38 q 456 -20 522 -20 q 351 10 396 -20 q 305 100 305 41 q 328 157 305 136 q 380 183 351 178 q 431 199 408 189 q 454 224 454 209 q 433 281 454 262 q 382 300 411 300 q 342 284 361 300 q 324 259 324 269 l 264 296 q 304 342 269 316 q 382 369 340 369 q 481 329 439 369 q 524 224 524 289 q 500 166 524 189 q 449 137 477 144 q 397 121 420 130 q 374 100 374 113 q 456 49 374 49 q 585 114 533 49 q 636 304 636 179 q 562 481 636 408 q 396 553 487 553 q 217 482 290 553 q 144 301 144 411 l 144 -289 q 218 -469 144 -396 q 396 -541 292 -541 q 567 -463 498 -541 q 636 -290 636 -385 l 705 -290 z "},"ဩ":{"ha":1592,"x_min":95,"x_max":1518,"o":"m 1518 -149 l 1518 -251 q 1428 -517 1518 -426 q 1309 -592 1374 -574 q 1157 -610 1244 -610 l 456 -610 q 205 -519 302 -610 q 121 -392 148 -468 q 95 -251 95 -316 l 95 936 q 121 1074 95 1002 q 205 1202 148 1146 q 456 1295 304 1295 l 1157 1295 q 1308 1276 1245 1295 q 1426 1200 1370 1256 q 1490 1102 1466 1157 q 1518 1006 1514 1047 l 1449 1006 q 1428 1076 1449 1031 q 1375 1156 1408 1120 q 1275 1213 1335 1199 q 1128 1226 1215 1226 l 496 1226 q 258 1156 336 1226 q 186 1044 208 1112 q 164 913 164 975 l 164 -227 q 186 -357 164 -288 q 258 -472 208 -426 q 496 -541 334 -541 l 1128 -541 q 1215 -539 1183 -541 q 1295 -520 1246 -537 q 1375 -471 1344 -503 q 1449 -227 1449 -396 l 1449 -149 l 1518 -149 m 1497 301 q 1404 74 1497 168 q 1181 -20 1312 -20 q 1020 34 1096 -20 q 899 172 944 88 q 781 33 861 85 q 604 -20 701 -20 q 425 28 507 -20 q 305 164 342 76 l 363 199 q 467 88 403 127 q 604 49 530 49 q 786 123 716 49 q 856 311 856 198 q 778 481 856 410 q 604 553 700 553 q 467 514 530 553 q 363 403 403 475 l 305 437 q 425 574 342 525 q 604 623 509 623 q 824 534 724 623 q 924 330 924 445 q 1000 141 924 233 q 1181 49 1077 49 q 1356 123 1284 49 q 1428 301 1428 197 q 1356 479 1428 406 q 1181 553 1284 553 q 1115 538 1147 553 l 1086 602 q 1181 623 1131 623 q 1404 528 1312 623 q 1497 301 1497 433 z "},"ဪ":{"ha":2915,"x_min":75,"x_max":2840,"o":"m 2837 1120 l 2798 1088 q 2652 1172 2748 1172 q 2521 1118 2578 1172 q 2463 977 2463 1063 q 2486 883 2463 925 q 2543 819 2509 841 q 2607 786 2577 798 q 2658 774 2637 774 l 2658 722 q 2492 792 2573 722 q 2410 977 2410 863 q 2483 1154 2410 1082 q 2650 1225 2555 1225 q 2764 1196 2713 1225 q 2837 1120 2814 1168 m 624 172 q 492 205 559 205 q 274 79 350 205 q 396 49 338 49 q 624 172 555 49 m 705 208 q 684 144 704 180 q 629 69 665 107 q 532 5 594 31 q 396 -20 471 -20 q 169 74 263 -20 q 75 301 75 168 q 170 528 75 433 q 396 623 264 623 q 577 572 494 623 q 696 437 661 522 l 636 403 q 534 513 598 472 q 396 553 469 553 q 218 479 293 553 q 144 301 144 404 q 216 123 144 202 q 496 274 317 274 q 705 208 576 274 m 2840 301 q 2747 74 2840 168 q 2524 -20 2653 -20 q 2406 4 2458 -20 l 2433 66 q 2524 49 2469 49 q 2698 123 2626 49 q 2771 301 2771 197 q 2698 479 2771 404 q 2524 553 2626 553 q 2400 522 2456 553 q 2247 414 2344 491 q 2268 301 2268 359 q 2175 74 2268 168 q 1953 -20 2082 -20 q 1792 34 1868 -20 q 1670 172 1716 88 q 1552 33 1632 85 q 1375 -20 1473 -20 q 1194 29 1278 -20 q 1076 164 1111 79 l 1137 199 q 1238 89 1173 129 q 1375 49 1302 49 q 1558 124 1488 49 q 1628 311 1628 199 q 1550 481 1628 408 q 1375 553 1473 553 q 1238 513 1302 553 q 1137 403 1173 472 l 1076 437 q 1197 573 1115 524 q 1375 623 1279 623 q 1594 534 1495 623 q 1694 330 1694 446 q 1771 142 1694 235 q 1953 49 1849 49 q 2127 123 2055 49 q 2199 301 2199 197 q 2127 479 2199 404 q 1953 553 2055 553 q 1884 538 1917 553 l 1857 602 q 1953 623 1899 623 q 2103 583 2032 623 q 2214 477 2174 543 q 2379 590 2313 557 q 2524 623 2445 623 q 2747 528 2653 623 q 2840 301 2840 433 m 2288 1006 l 2219 1006 q 2197 1074 2219 1028 q 2143 1153 2174 1120 q 2064 1203 2112 1185 q 1983 1223 2017 1221 q 1899 1226 1949 1226 l 1267 1226 q 1028 1156 1107 1226 q 935 909 935 1076 l 935 -227 q 956 -357 935 -288 q 1028 -472 978 -426 q 1267 -541 1104 -541 l 1899 -541 q 1985 -539 1953 -541 q 2066 -520 2017 -537 q 2146 -471 2115 -503 q 2219 -227 2219 -396 l 2219 -149 l 2288 -149 l 2288 -251 q 2199 -517 2288 -426 q 2079 -592 2144 -574 q 1927 -610 2014 -610 l 1226 -610 q 975 -519 1073 -610 q 892 -392 918 -468 q 865 -251 865 -316 l 865 936 q 892 1074 865 1002 q 975 1202 918 1146 q 1226 1295 1074 1295 l 1927 1295 q 2196 1200 2102 1295 q 2260 1102 2237 1157 q 2288 1006 2284 1047 z "},"ါ":{"ha":240,"x_min":-292,"x_max":164,"o":"m 164 0 l 95 0 l 95 968 q 54 1107 95 1066 q -64 1149 14 1147 q -222 968 -222 1149 l -292 968 q -232 1150 -292 1082 q -64 1218 -172 1218 q 104 1154 43 1218 q 164 968 164 1089 l 164 0 z "},"ာ":{"ha":571,"x_min":-159,"x_max":496,"o":"m 496 301 q 403 74 496 168 q 180 -20 309 -20 q 62 4 114 -20 l 90 66 q 180 49 125 49 q 355 123 282 49 q 427 301 427 197 q 355 479 427 404 q 180 553 282 553 q 45 516 109 553 q -118 396 -19 479 l -159 457 q -45 546 -84 518 q 56 598 -5 574 q 180 623 117 623 q 403 528 309 623 q 496 301 496 433 z "},"ိ":{"ha":0,"x_min":-559,"x_max":-75,"o":"m -127 977 q -184 1114 -127 1055 q -317 1172 -240 1172 q -450 1114 -395 1172 q -506 977 -506 1055 q -450 839 -506 897 q -317 781 -395 781 q -183 839 -239 781 q -127 977 -127 897 m -75 977 q -146 800 -75 872 q -317 728 -217 728 q -488 800 -418 728 q -559 977 -559 872 q -488 1152 -559 1080 q -317 1225 -418 1225 q -146 1152 -217 1225 q -75 977 -75 1080 z "},"ီ":{"ha":0,"x_min":-559,"x_max":-75,"o":"m -163 860 q -241 915 -197 898 q -317 932 -285 932 q -468 860 -399 932 q -401 804 -444 827 q -317 781 -359 781 q -163 860 -216 781 m -317 1172 q -450 1114 -395 1172 q -506 977 -506 1057 q -492 905 -506 941 q -317 978 -419 978 q -140 905 -209 978 q -127 977 -127 939 q -183 1114 -127 1057 q -317 1172 -239 1172 m -146 1152 q -110 1116 -146 1152 q -75 977 -75 1080 q -146 801 -75 873 q -317 728 -217 728 q -488 801 -416 728 q -559 977 -559 873 q -488 1152 -559 1080 q -317 1225 -416 1225 q -146 1152 -217 1225 z "},"ု":{"ha":199,"x_min":54,"x_max":236,"o":"m 236 -610 l 54 -610 l 54 602 l 123 602 l 123 -541 l 236 -541 l 236 -610 z "},"ူ":{"ha":400,"x_min":54,"x_max":435,"o":"m 123 -610 l 54 -610 l 54 602 l 123 602 l 123 -610 m 435 -610 l 256 -610 l 256 602 l 326 602 l 326 -541 l 435 -541 l 435 -610 z "},"ေ":{"ha":781,"x_min":75,"x_max":705,"o":"m 624 172 q 492 205 559 205 q 274 79 350 205 q 396 49 338 49 q 624 172 555 49 m 705 208 q 684 144 704 180 q 629 69 665 107 q 532 5 594 31 q 396 -20 471 -20 q 169 74 263 -20 q 75 301 75 168 q 170 528 75 433 q 396 623 264 623 q 578 572 495 623 q 696 437 662 522 l 636 403 q 534 513 598 472 q 396 553 469 553 q 218 479 293 553 q 144 301 144 404 q 216 123 144 202 q 496 274 317 274 q 705 208 576 274 z "},"ဲ":{"ha":0,"x_min":-510,"x_max":-75,"o":"m -75 872 l -106 827 l -510 1149 l -480 1194 l -75 872 z "},"ဳ":{"ha":0,"x_min":-560,"x_max":-75,"o":"m -252 977 q -271 1021 -252 1002 q -315 1039 -289 1039 q -360 1021 -342 1039 q -378 977 -378 1002 q -360 930 -378 949 q -315 911 -342 911 q -271 930 -289 911 q -252 977 -252 949 m -213 977 q -243 903 -213 935 q -315 872 -274 872 q -387 903 -357 872 q -416 977 -416 935 q -387 1048 -416 1017 q -315 1078 -357 1078 q -243 1048 -274 1078 q -213 977 -213 1017 m -127 977 q -182 1113 -127 1055 q -315 1171 -237 1171 q -450 1113 -395 1171 q -506 977 -506 1055 q -451 839 -506 895 q -319 783 -396 783 q -183 839 -239 783 q -127 977 -127 895 m -75 977 q -145 801 -75 873 q -315 728 -216 728 q -489 801 -418 728 q -560 977 -560 873 q -490 1151 -560 1078 q -319 1223 -419 1223 q -146 1151 -217 1223 q -75 977 -75 1078 z "},"ဴ":{"ha":0,"x_min":-513,"x_max":-75,"o":"m -75 1111 l -481 787 l -513 831 l -106 1156 l -75 1111 z "},"ဵ":{"ha":0,"x_min":-559,"x_max":-75,"o":"m -134 887 q -236 916 -187 916 q -339 887 -290 916 q -412 811 -388 859 q -313 785 -358 785 q -208 812 -258 785 q -134 887 -157 840 m -75 909 q -140 795 -75 859 q -313 732 -206 732 q -487 805 -415 732 q -559 981 -559 878 q -487 1156 -559 1084 q -313 1229 -415 1229 q -176 1190 -241 1229 q -83 1086 -111 1152 l -127 1058 q -206 1145 -156 1114 q -313 1176 -256 1176 q -450 1118 -393 1176 q -506 981 -506 1061 q -449 844 -506 901 q -236 962 -377 962 q -75 909 -172 962 z "},"ံ":{"ha":0,"x_min":-278,"x_max":-75,"o":"m -114 899 q -132 943 -114 925 q -176 962 -151 962 q -222 943 -203 962 q -240 899 -240 925 q -222 853 -240 872 q -176 834 -203 834 q -132 853 -151 834 q -114 899 -114 872 m -75 899 q -105 826 -75 857 q -176 795 -136 795 q -248 826 -218 795 q -278 899 -278 857 q -248 970 -278 940 q -176 1001 -218 1001 q -105 970 -136 1001 q -75 899 -75 940 z "},"့":{"ha":75,"x_min":-203,"x_max":0,"o":"m -39 -308 q -58 -262 -39 -281 q -102 -244 -76 -244 q -147 -262 -129 -244 q -165 -308 -165 -281 q -147 -353 -165 -334 q -102 -373 -129 -373 q -58 -353 -76 -373 q -39 -308 -39 -334 m 0 -308 q -31 -380 0 -349 q -102 -411 -61 -411 q -173 -380 -142 -411 q -203 -308 -203 -349 q -174 -236 -203 -266 q -102 -206 -144 -206 q -31 -236 -61 -206 q 0 -308 0 -266 z "},"း":{"ha":353,"x_min":75,"x_max":278,"o":"m 221 476 q 230 486 221 476 q 239 521 239 496 q 221 564 239 545 q 176 583 203 583 q 130 564 148 583 q 113 521 113 545 q 130 476 113 496 q 176 456 148 456 q 221 476 203 456 m 248 593 q 263 579 248 593 q 278 521 278 564 q 248 447 278 477 q 176 416 217 416 q 104 447 134 416 q 75 521 75 477 q 104 593 75 564 q 176 623 134 623 q 248 593 218 623 m 221 58 q 230 67 221 58 q 239 102 239 77 q 221 146 239 126 q 176 167 203 167 q 130 146 148 167 q 113 102 113 126 q 130 57 113 76 q 176 38 146 38 q 221 58 203 38 m 278 102 q 248 30 278 60 q 176 0 217 0 q 104 30 134 0 q 75 102 75 60 q 104 175 75 145 q 176 205 134 205 q 248 175 217 205 q 278 102 278 145 z "},"္":{"ha":75,"x_min":-499,"x_max":0,"o":"m -18 -449 q -39 -471 -18 -471 q -62 -449 -62 -471 q -39 -426 -62 -426 q -18 -449 -18 -426 m -90 -499 q -78 -499 -90 -499 q -66 -522 -66 -499 q -90 -545 -66 -545 q -113 -522 -113 -545 q -90 -499 -113 -499 m -141 -571 q -163 -591 -141 -591 q -186 -571 -186 -591 q -163 -548 -186 -548 q -141 -571 -141 -548 m -228 -589 q -248 -609 -228 -609 q -271 -589 -271 -609 q -248 -566 -271 -566 q -228 -589 -228 -566 m -313 -571 q -336 -591 -313 -591 q -359 -571 -359 -591 q -336 -548 -359 -548 q -313 -571 -313 -548 m -410 -499 q -388 -522 -388 -499 q -410 -545 -388 -545 q -433 -522 -433 -545 q -410 -499 -433 -499 m -437 -449 q -458 -471 -437 -471 q -481 -449 -481 -471 q -458 -426 -481 -426 q -437 -449 -437 -426 m -476 -338 q -454 -361 -454 -338 q -476 -384 -454 -384 q -499 -361 -499 -384 q -476 -338 -499 -338 m -437 -275 q -458 -297 -437 -297 q -481 -275 -481 -297 q -458 -252 -481 -252 q -437 -275 -437 -252 m -410 -179 q -388 -202 -388 -179 q -410 -225 -388 -225 q -433 -202 -433 -225 q -410 -179 -433 -179 m -336 -129 q -325 -129 -336 -129 q -313 -152 -313 -129 q -336 -175 -313 -175 q -359 -152 -359 -175 q -336 -129 -359 -129 m -228 -136 q -248 -157 -228 -157 q -271 -136 -271 -157 q -248 -113 -271 -113 q -228 -136 -228 -113 m -163 -129 q -141 -152 -141 -129 q -163 -175 -141 -175 q -186 -152 -186 -175 q -163 -129 -186 -129 m -90 -179 q -78 -179 -90 -179 q -66 -202 -66 -179 q -90 -225 -66 -225 q -113 -202 -113 -225 q -90 -179 -113 -179 m -18 -275 q -39 -297 -18 -297 q -62 -275 -62 -297 q -39 -252 -62 -252 q -18 -275 -18 -252 m -23 -338 q -12 -338 -23 -338 q 0 -361 0 -338 q -23 -384 0 -384 q -46 -361 -46 -384 q -23 -338 -46 -338 z "},"်":{"ha":75,"x_min":-427,"x_max":0,"o":"m 0 1131 l -39 1099 q -186 1183 -90 1183 q -317 1128 -259 1183 q -374 987 -374 1074 q -351 894 -374 936 q -294 830 -328 852 q -231 797 -260 808 q -179 785 -201 785 l -179 732 q -346 803 -264 732 q -427 987 -427 873 q -355 1164 -427 1093 q -187 1236 -282 1236 q -74 1207 -125 1236 q 0 1131 -23 1179 z "},"ျ":{"ha":220,"x_min":-281,"x_max":144,"o":"m 144 -610 l -281 -500 l -281 62 l -212 62 l -212 -446 l 75 -521 l 75 602 l 144 602 l 144 -610 z "},"ြ":{"ha":233,"x_min":95,"x_max":945,"o":"m 945 -129 l 945 -251 q 856 -517 945 -425 q 737 -592 802 -574 q 586 -610 673 -610 l 456 -610 q 304 -592 369 -610 q 184 -517 239 -574 q 95 -251 95 -426 l 95 936 q 184 1202 95 1112 q 456 1295 278 1295 l 586 1295 q 854 1200 761 1295 q 921 1101 897 1157 q 945 1006 945 1044 l 876 1006 q 854 1076 876 1029 q 802 1153 833 1122 q 722 1204 769 1187 q 642 1223 674 1221 q 557 1226 609 1226 l 484 1226 q 400 1223 433 1226 q 319 1204 368 1221 q 237 1156 271 1188 q 164 909 164 1082 l 164 -227 q 237 -471 164 -397 q 486 -541 308 -541 l 555 -541 q 803 -471 732 -541 q 876 -227 876 -397 l 876 -129 l 945 -129 z "},"ွ":{"ha":0,"x_min":-559,"x_max":-75,"o":"m -183 -500 q -155 -471 -183 -500 q -127 -362 -127 -442 q -183 -224 -127 -282 q -316 -167 -239 -167 q -450 -224 -395 -167 q -506 -362 -506 -282 q -450 -500 -506 -442 q -316 -557 -395 -557 q -183 -500 -239 -557 m -146 -186 q -110 -223 -146 -186 q -75 -362 -75 -259 q -146 -538 -75 -465 q -316 -610 -217 -610 q -488 -538 -416 -610 q -559 -362 -559 -465 q -488 -186 -559 -259 q -316 -114 -416 -114 q -146 -186 -217 -114 z "},"ှ":{"ha":0,"x_min":-256,"x_max":-75,"o":"m -75 -610 l -256 -610 l -256 -541 l -144 -541 l -144 -129 l -75 -129 l -75 -610 z "},"ဿ":{"ha":1914,"x_min":75,"x_max":1839,"o":"m 1839 301 q 1747 74 1839 168 q 1523 -20 1655 -20 q 1361 32 1435 -20 q 1241 172 1287 84 q 1126 33 1204 85 q 952 -20 1048 -20 q 791 34 867 -20 q 669 172 715 88 q 551 33 631 85 q 374 -20 472 -20 q 196 28 278 -20 q 75 164 114 76 l 136 199 q 237 89 172 129 q 374 49 301 49 q 554 124 481 49 q 627 307 627 199 q 551 481 627 408 q 374 553 476 553 q 237 513 301 553 q 136 403 172 472 l 75 437 q 193 572 110 522 q 374 623 277 623 q 600 529 503 623 q 696 313 696 435 q 712 248 696 289 q 758 161 728 206 q 839 82 787 115 q 952 49 891 49 q 1128 124 1058 49 q 1198 307 1198 199 q 1128 476 1198 399 q 952 553 1058 553 q 883 538 916 553 l 856 602 q 952 623 898 623 q 1177 525 1086 623 q 1267 313 1267 427 q 1284 246 1267 288 q 1331 159 1301 205 q 1412 81 1360 114 q 1523 49 1463 49 q 1697 123 1625 49 q 1770 301 1770 197 q 1697 479 1770 404 q 1523 553 1625 553 q 1457 538 1489 553 l 1428 602 q 1523 623 1470 623 q 1747 528 1655 623 q 1839 301 1839 433 z "},"၀":{"ha":781,"x_min":75,"x_max":705,"o":"m 564 123 q 600 160 564 123 q 636 301 636 197 q 565 479 636 406 q 392 553 494 553 q 216 479 289 553 q 144 301 144 406 q 215 123 144 197 q 388 49 286 49 q 564 123 491 49 m 613 528 q 659 481 613 528 q 705 301 705 434 q 614 74 705 168 q 392 -20 522 -20 q 166 73 258 -20 q 75 301 75 167 q 166 528 75 433 q 388 623 258 623 q 613 528 521 623 z "},"၁":{"ha":781,"x_min":79,"x_max":700,"o":"m 700 301 q 606 74 700 168 q 378 -20 511 -20 q 199 28 283 -20 q 79 164 115 76 l 138 199 q 240 89 175 129 q 378 49 305 49 q 557 123 483 49 q 631 301 631 198 q 557 479 631 404 q 378 553 483 553 q 240 513 305 553 q 138 403 175 473 l 79 437 q 199 574 115 525 q 378 623 283 623 q 605 528 510 623 q 700 301 700 433 z "},"၂":{"ha":682,"x_min":75,"x_max":608,"o":"m 608 604 l 608 -387 q 538 -546 608 -481 q 342 -610 469 -610 q 143 -544 212 -610 q 75 -365 75 -477 l 144 -365 q 199 -499 144 -457 q 342 -541 255 -541 q 482 -497 426 -541 q 538 -365 538 -453 l 538 604 l 608 604 z "},"၃":{"ha":781,"x_min":79,"x_max":700,"o":"m 700 301 q 606 74 700 168 q 378 -20 511 -20 q 254 1 319 -20 l 620 -610 l 537 -610 l 114 103 q 79 164 88 140 l 138 199 q 240 89 175 129 q 378 49 305 49 q 556 123 481 49 q 631 301 631 197 q 556 479 631 404 q 378 553 481 553 q 241 513 305 553 q 138 403 176 472 l 79 437 q 200 573 118 524 q 378 623 282 623 q 605 528 510 623 q 700 301 700 433 z "},"၄":{"ha":781,"x_min":81,"x_max":701,"o":"m 701 164 q 665 103 685 130 l 244 -610 l 160 -610 l 526 1 q 403 -20 461 -20 q 176 74 270 -20 q 81 301 81 168 q 176 528 81 433 q 403 623 270 623 q 583 572 500 623 q 701 437 666 522 l 643 403 q 538 513 604 472 q 403 553 473 553 q 224 479 298 553 q 151 301 151 404 q 224 123 151 197 q 403 49 298 49 q 539 89 475 49 q 643 199 604 129 l 701 164 z "},"၅":{"ha":781,"x_min":75,"x_max":705,"o":"m 305 305 q 281 360 305 338 q 224 382 258 382 q 166 360 189 382 q 144 305 144 338 q 168 245 144 270 q 224 221 191 221 q 281 245 256 221 q 305 305 305 270 m 705 -293 q 617 -514 705 -418 q 384 -610 529 -610 q 162 -511 250 -610 q 75 -292 75 -412 l 144 -292 q 214 -463 144 -385 q 384 -541 283 -541 q 563 -470 490 -541 q 636 -289 636 -399 l 636 301 q 563 481 636 408 q 384 553 490 553 q 191 448 266 553 q 224 452 208 452 q 328 410 281 452 q 374 305 374 369 q 330 197 374 243 q 224 152 285 152 q 118 199 161 152 q 75 305 75 245 l 75 317 q 167 528 80 434 q 384 623 254 623 q 616 524 528 623 q 705 301 705 426 l 705 -293 z "},"၆":{"ha":781,"x_min":75,"x_max":705,"o":"m 529 461 q 507 519 529 496 q 449 541 484 541 q 393 519 416 541 q 370 461 370 496 q 393 403 370 427 q 449 378 416 378 q 507 403 484 378 q 529 461 529 427 m 705 298 q 617 80 705 180 q 396 -20 529 -20 q 163 76 251 -20 q 75 297 75 172 l 75 891 q 163 1114 75 1016 q 396 1213 252 1213 q 618 1114 530 1213 q 705 892 705 1015 l 636 892 q 567 1065 636 987 q 396 1143 498 1143 q 218 1071 292 1143 q 144 891 144 998 l 144 301 q 217 120 144 191 q 396 49 290 49 q 547 109 480 49 q 631 250 613 170 l 423 315 q 301 461 301 351 q 345 566 301 522 q 449 610 388 610 q 554 565 510 610 q 598 461 598 519 q 545 347 598 391 l 705 298 z "},"၇":{"ha":781,"x_min":75,"x_max":705,"o":"m 571 -562 q 519 -601 544 -591 q 456 -610 494 -610 q 358 -568 396 -610 q 309 -485 320 -526 q 298 -410 298 -444 q 351 -223 298 -332 q 467 -24 404 -114 q 583 160 530 66 q 636 301 636 254 q 612 418 636 366 q 550 497 589 469 q 470 539 511 525 q 388 553 429 553 q 211 474 278 553 q 144 301 144 395 l 75 301 q 109 446 75 374 q 218 570 144 518 q 388 623 292 623 q 604 535 503 623 q 705 301 705 448 q 652 151 705 248 q 536 -39 600 53 q 420 -237 473 -132 q 368 -410 368 -343 q 374 -452 368 -425 q 401 -510 380 -479 q 456 -541 423 -541 q 525 -511 495 -541 l 571 -562 z "},"၈":{"ha":793,"x_min":75,"x_max":718,"o":"m 290 250 q 193 441 290 372 q 144 274 144 366 q 240 87 144 183 q 290 250 290 168 m 718 274 q 684 98 718 167 q 586 -20 650 30 l 545 38 q 648 274 648 137 q 575 473 648 395 q 396 551 502 551 q 241 496 304 551 q 332 389 304 446 q 359 250 359 332 q 244 -20 359 95 q 122 104 170 35 q 75 274 75 174 q 168 524 75 427 q 396 620 260 620 q 625 524 532 620 q 718 274 718 427 z "},"၉":{"ha":781,"x_min":75,"x_max":705,"o":"m 529 99 q 505 157 529 134 q 449 180 481 180 q 393 157 416 180 q 370 99 370 134 q 393 43 370 66 q 449 20 415 20 q 507 43 484 20 q 529 99 529 66 m 705 -251 q 620 -509 705 -408 q 396 -610 534 -610 q 163 -513 251 -610 q 75 -289 75 -415 l 75 305 q 163 526 75 429 q 396 623 251 623 q 621 521 537 623 q 705 262 705 419 l 545 213 q 598 99 598 165 q 554 -5 598 38 q 449 -49 510 -49 q 345 -5 388 -49 q 301 99 301 38 q 423 248 301 212 l 632 311 q 556 488 620 422 q 396 553 492 553 q 218 481 292 553 q 144 301 144 408 l 144 -289 q 217 -470 144 -399 q 396 -541 290 -541 q 570 -463 503 -541 q 636 -251 636 -384 l 705 -251 z "},"၊":{"ha":220,"x_min":75,"x_max":144,"o":"m 144 0 l 75 0 l 75 602 l 144 602 l 144 0 z "},"။":{"ha":420,"x_min":75,"x_max":346,"o":"m 144 0 l 75 0 l 75 602 l 144 602 l 144 0 m 346 0 l 277 0 l 277 602 l 346 602 l 346 0 z "},"၌":{"ha":770,"x_min":75,"x_max":696,"o":"m 675 1120 l 636 1088 q 490 1172 581 1172 q 359 1117 418 1172 q 301 977 301 1062 q 317 899 301 935 q 357 842 334 864 q 409 804 381 819 q 459 781 437 788 q 496 774 481 774 l 496 722 q 328 791 408 722 q 248 977 248 861 q 321 1154 248 1084 q 490 1225 393 1225 q 602 1196 551 1225 q 675 1120 652 1168 m 696 301 q 602 74 696 168 q 374 -20 507 -20 q 144 66 239 -20 l 144 -81 q 374 -145 264 -145 q 655 -56 511 -145 l 655 -373 q 587 -536 655 -468 q 416 -610 513 -610 l 212 -610 q 111 -569 146 -610 q 75 -471 75 -528 q 115 -374 75 -416 q 225 -332 156 -332 q 311 -362 281 -332 l 264 -415 q 225 -401 243 -401 q 165 -420 186 -401 q 144 -471 144 -439 q 162 -519 144 -498 q 212 -541 180 -541 l 376 -541 q 468 -532 439 -541 q 533 -491 496 -522 q 586 -358 586 -446 l 586 -170 q 374 -214 487 -214 q 75 -121 222 -214 l 75 164 l 136 199 q 235 88 171 127 q 374 49 300 49 q 552 123 477 49 q 627 301 627 198 q 552 479 627 404 q 374 553 477 553 q 236 513 300 553 q 136 403 172 473 l 75 437 q 195 574 111 525 q 374 623 279 623 q 601 528 506 623 q 696 301 696 433 z "},"၍":{"ha":1039,"x_min":75,"x_max":964,"o":"m 452 53 q 311 224 407 180 q 208 245 262 245 q 152 240 190 245 q 239 103 171 157 q 396 49 308 49 q 452 53 431 49 m 722 -415 l 652 -415 l 652 274 q 577 475 652 396 q 396 553 502 553 q 222 482 296 553 q 144 312 149 411 q 201 317 170 317 q 342 285 273 317 q 465 182 426 243 q 541 9 505 121 q 396 -20 477 -20 q 169 74 263 -20 q 75 301 75 168 q 169 526 75 431 q 396 620 263 620 q 627 523 532 620 q 722 274 722 426 l 722 -415 m 944 -373 q 875 -536 944 -467 q 705 -610 800 -610 l 232 -610 q 132 -569 170 -610 q 95 -471 95 -528 q 136 -374 95 -416 q 245 -332 178 -332 q 331 -362 301 -332 l 285 -415 q 245 -401 263 -401 q 185 -420 206 -401 q 164 -471 164 -439 q 183 -519 164 -496 q 232 -541 202 -541 l 665 -541 q 755 -532 730 -541 q 819 -491 781 -524 q 875 -358 875 -445 l 875 529 q 850 625 875 582 q 789 696 826 669 q 709 753 751 723 q 629 812 666 784 q 567 884 591 840 q 543 985 543 929 q 615 1156 543 1085 q 787 1226 688 1226 q 903 1190 857 1226 q 964 1107 949 1154 l 901 1080 q 857 1136 890 1115 q 787 1157 825 1157 q 664 1107 716 1157 q 612 985 612 1057 q 636 905 612 941 q 698 844 661 868 q 778 788 735 819 q 858 726 821 757 q 920 644 895 694 q 944 529 944 593 l 944 -373 z "},"၎":{"ha":770,"x_min":75,"x_max":696,"o":"m 696 -610 l 627 -610 l 627 66 q 396 -20 532 -20 q 169 74 263 -20 q 75 301 75 168 q 169 528 75 433 q 396 623 263 623 q 575 574 491 623 q 696 437 659 525 l 636 403 q 535 514 600 475 q 396 553 471 553 q 218 479 293 553 q 144 301 144 404 q 218 123 144 198 q 396 49 293 49 q 535 88 471 49 q 636 199 600 127 l 696 164 l 696 -610 z "},"၏":{"ha":1237,"x_min":75,"x_max":1161,"o":"m 618 437 q 524 524 585 494 q 396 553 464 553 q 278 525 345 553 q 492 401 359 401 q 618 437 556 401 m 618 164 q 496 201 548 201 q 278 77 363 201 q 396 49 339 49 q 618 164 545 49 m 1141 0 l 1072 0 l 1072 529 q 1047 625 1072 582 q 986 696 1023 669 q 906 753 949 723 q 826 812 863 784 q 765 884 789 840 q 741 985 741 929 q 812 1156 741 1085 q 985 1226 884 1226 q 1161 1107 1115 1226 l 1099 1080 q 1055 1136 1088 1115 q 985 1157 1023 1157 q 861 1107 913 1157 q 810 985 810 1058 q 834 905 810 941 q 895 844 859 868 q 975 788 932 819 q 1055 726 1019 757 q 1116 644 1092 696 q 1141 529 1141 593 l 1141 0 m 920 0 l 850 0 l 850 433 q 753 553 850 553 q 648 509 693 553 q 704 416 682 467 q 595 361 642 376 q 492 346 549 346 q 225 486 331 346 q 144 301 144 418 q 225 115 144 193 q 342 218 273 180 q 496 256 412 256 q 613 234 553 256 q 705 184 673 212 q 396 -20 614 -20 q 169 74 263 -20 q 75 301 75 168 q 170 528 75 433 q 396 623 264 623 q 595 557 506 623 q 753 623 665 623 q 920 433 920 623 l 920 0 z "},"ၐ":{"ha":793,"x_min":75,"x_max":718,"o":"m 477 274 q 454 332 477 308 q 396 355 430 355 q 337 332 361 355 q 313 274 313 308 q 337 214 313 239 q 396 190 361 190 q 454 214 430 190 q 477 274 477 239 m 488 366 q 508 347 488 366 q 528 274 528 327 q 489 180 528 221 q 396 138 450 138 q 302 179 342 138 q 263 274 263 220 q 302 366 263 327 q 396 406 342 406 q 488 366 449 406 m 718 274 q 586 -20 718 81 l 545 38 q 648 274 648 133 q 575 473 648 395 q 396 551 502 551 q 217 473 290 551 q 144 274 144 395 q 248 38 144 133 l 208 -20 q 75 274 75 87 q 168 523 75 426 q 396 620 260 620 q 625 523 532 620 q 718 274 718 426 z "},"ၑ":{"ha":793,"x_min":75,"x_max":718,"o":"m 477 326 q 454 383 477 359 q 396 407 430 407 q 337 383 361 407 q 313 326 313 359 q 337 266 313 290 q 396 241 361 241 q 454 266 430 241 q 477 326 477 290 m 488 418 q 508 398 488 418 q 528 326 528 378 q 489 231 528 273 q 396 190 450 190 q 302 231 342 190 q 263 326 263 271 q 302 418 263 378 q 396 457 342 457 q 488 418 449 457 m 718 326 q 625 77 718 174 q 396 -20 532 -20 q 168 77 260 -20 q 75 326 75 174 q 208 620 75 513 l 248 562 q 144 326 144 467 q 217 127 144 205 q 396 49 290 49 q 575 127 502 49 q 648 326 648 205 q 545 562 648 467 l 586 620 q 718 326 718 518 z "},"ၒ":{"ha":783,"x_min":75,"x_max":708,"o":"m 708 228 q 619 59 708 138 q 396 -20 530 -20 q 167 77 259 -20 q 75 326 75 174 q 109 500 75 431 q 208 620 142 568 l 248 562 q 144 326 144 467 q 217 127 144 205 q 396 49 290 49 q 507 72 457 49 q 583 127 556 95 q 625 186 610 159 q 639 228 639 213 q 619 285 639 260 q 572 324 600 309 q 516 355 544 339 q 469 398 488 372 q 449 460 449 425 q 490 576 449 533 q 590 618 532 618 q 664 595 628 618 q 708 545 700 572 l 648 509 q 627 536 646 522 q 590 549 609 549 q 539 528 560 549 q 518 460 518 506 q 548 416 518 437 q 613 381 578 396 q 678 326 648 366 q 708 228 708 286 z "},"ၓ":{"ha":854,"x_min":75,"x_max":779,"o":"m 779 547 l 720 510 q 713 519 720 510 q 703 534 708 529 q 686 545 697 540 q 661 551 674 551 q 611 529 632 551 q 590 461 590 507 q 605 426 590 442 q 642 396 620 410 q 686 363 665 382 q 723 310 708 345 q 738 228 738 275 q 650 59 738 138 q 427 -20 562 -20 q 204 59 293 -20 q 115 228 115 138 q 131 310 115 275 q 168 363 146 345 q 212 396 190 382 q 249 426 233 410 q 264 461 264 442 q 243 529 264 507 q 193 551 221 551 q 175 548 183 551 q 161 542 167 545 q 151 533 156 538 q 143 524 145 528 q 138 515 141 521 l 134 510 l 75 547 q 115 595 83 571 q 193 620 146 620 q 292 578 251 620 q 334 461 334 536 q 311 387 334 418 q 259 340 288 355 q 208 296 231 324 q 184 228 184 267 q 199 186 184 213 q 239 127 213 159 q 316 72 266 95 q 427 49 366 49 q 538 72 488 49 q 614 127 587 95 q 654 186 640 159 q 669 228 669 213 q 646 296 669 267 q 595 340 623 324 q 544 387 567 355 q 521 461 521 418 q 562 578 521 536 q 661 620 602 620 q 739 595 708 620 q 779 547 770 571 z "},"ၔ":{"ha":781,"x_min":75,"x_max":705,"o":"m 624 430 q 396 553 555 553 q 274 524 338 553 q 368 429 311 463 q 491 395 426 395 q 624 430 547 395 m 705 395 q 587 340 631 355 q 495 326 544 326 q 336 368 412 326 q 214 479 259 411 q 144 301 144 401 q 218 123 144 198 q 396 49 292 49 q 534 88 471 49 q 636 199 597 127 l 694 165 q 573 28 654 77 q 396 -20 492 -20 q 169 75 263 -20 q 75 301 75 170 q 169 528 75 434 q 396 623 263 623 q 532 597 471 623 q 629 532 594 571 q 684 458 665 494 q 705 395 703 423 z "},"ၕ":{"ha":781,"x_min":75,"x_max":705,"o":"m 624 430 q 396 553 555 553 q 274 524 338 553 q 491 397 350 397 q 624 430 553 397 m 705 395 q 495 328 576 328 q 335 369 410 328 q 214 479 260 410 q 144 301 144 401 q 184 133 144 217 q 282 49 225 49 q 308 73 296 49 q 330 124 320 96 q 361 176 340 152 q 410 199 382 199 q 468 162 445 199 q 506 87 491 125 q 537 49 521 49 q 585 82 563 49 q 621 157 608 115 l 685 130 q 627 25 666 71 q 537 -20 589 -20 q 481 3 505 -20 q 448 55 457 27 q 428 106 438 83 q 410 130 418 130 q 387 93 400 130 q 348 18 374 56 q 279 -20 321 -20 q 172 31 220 -20 q 99 155 123 83 q 75 301 75 228 q 169 528 75 434 q 396 623 263 623 q 532 597 471 623 q 629 532 594 571 q 684 458 665 494 q 705 395 703 423 z "},"ၖ":{"ha":681,"x_min":75,"x_max":606,"o":"m 606 237 q 530 45 606 110 q 340 -19 453 -19 q 252 -7 297 -19 q 155 43 206 5 q 75 141 103 81 l 133 180 q 221 82 161 115 q 338 49 281 49 q 477 93 416 49 q 537 237 537 137 q 510 305 537 278 q 444 347 483 332 q 367 376 406 361 q 301 420 328 391 q 274 494 274 449 q 311 589 274 553 q 393 624 349 624 q 538 559 484 624 l 494 506 q 437 547 456 538 q 393 555 419 555 q 358 537 373 555 q 343 494 343 519 q 385 447 343 467 q 475 412 426 427 q 565 353 524 397 q 606 237 606 308 z "},"ၗ":{"ha":693,"x_min":75,"x_max":618,"o":"m 618 237 q 573 66 618 153 q 479 -20 528 -20 q 423 3 446 -20 q 389 55 400 27 q 368 106 378 83 q 350 130 358 130 q 328 93 340 130 q 290 18 316 56 q 222 -20 264 -20 q 134 22 174 -20 q 75 130 95 65 l 138 157 q 178 79 155 109 q 222 49 201 49 q 248 73 236 49 q 271 124 260 96 q 302 176 281 152 q 350 199 323 199 q 408 162 385 199 q 446 87 431 125 q 477 49 461 49 q 526 116 502 49 q 549 237 549 183 q 522 305 549 278 q 456 347 495 332 q 379 376 418 361 q 313 420 340 391 q 286 494 286 449 q 323 589 286 553 q 406 624 361 624 q 551 559 496 624 l 506 506 q 450 547 468 538 q 406 555 431 555 q 370 537 385 555 q 355 494 355 519 q 397 447 355 467 q 487 412 438 427 q 577 353 536 397 q 618 237 618 308 z "},"ၘ":{"ha":635,"x_min":75,"x_max":559,"o":"m 499 -269 q 427 -195 476 -221 q 320 -168 377 -168 q 221 -193 273 -168 q 294 -267 243 -237 q 397 -297 345 -297 q 499 -269 446 -297 m 559 -290 q 397 -346 457 -346 q 275 -311 340 -346 q 184 -225 210 -275 q 127 -362 127 -282 q 184 -498 127 -442 q 320 -555 240 -555 q 427 -525 377 -555 q 506 -439 477 -495 l 551 -468 q 457 -572 522 -533 q 320 -610 392 -610 q 146 -538 218 -610 q 75 -362 75 -465 q 146 -186 75 -259 q 320 -114 218 -114 q 493 -177 427 -114 q 559 -290 559 -240 z "},"ၙ":{"ha":636,"x_min":75,"x_max":560,"o":"m 498 -262 q 323 -167 444 -167 q 229 -190 278 -167 q 396 -286 289 -286 q 498 -262 445 -286 m 560 -289 q 399 -340 460 -340 q 183 -224 262 -340 q 129 -362 129 -282 q 160 -492 129 -427 q 235 -556 191 -556 q 258 -527 247 -556 q 288 -469 270 -498 q 334 -441 307 -441 q 378 -470 361 -441 q 408 -528 396 -499 q 431 -556 419 -556 q 473 -516 450 -556 q 507 -441 496 -476 l 552 -467 q 506 -564 540 -517 q 431 -610 472 -610 q 379 -581 399 -610 q 350 -523 359 -552 q 334 -494 340 -494 q 315 -523 326 -494 q 286 -581 305 -552 q 233 -610 266 -610 q 119 -531 164 -610 q 75 -362 75 -452 q 147 -186 75 -259 q 323 -114 220 -114 q 494 -175 431 -114 q 560 -289 556 -236 z "},"ၚ":{"ha":770,"x_min":75,"x_max":696,"o":"m 515 -260 q 451 -383 515 -298 q 387 -506 387 -468 q 422 -541 387 -541 q 460 -526 442 -541 l 479 -587 q 422 -610 456 -610 q 316 -506 316 -610 q 349 -408 316 -461 q 415 -315 382 -355 q 448 -260 448 -274 q 393 -206 448 -206 q 357 -221 370 -206 q 343 -260 343 -236 l 275 -260 q 307 -176 275 -214 q 393 -137 339 -137 q 478 -167 441 -137 q 515 -260 515 -197 m 696 164 q 576 28 661 76 q 396 -20 491 -20 q 169 74 263 -20 q 75 301 75 168 q 169 528 75 433 q 396 623 263 623 q 575 574 491 623 q 696 437 659 525 l 636 403 q 535 514 600 475 q 396 553 471 553 q 218 479 293 553 q 144 301 144 404 q 218 123 144 198 q 396 49 293 49 q 535 88 471 49 q 636 199 600 127 l 696 164 z "},"ၛ":{"ha":978,"x_min":75,"x_max":903,"o":"m 591 354 q 490 392 545 392 q 420 326 420 392 q 440 290 420 302 q 490 277 460 277 q 558 295 529 277 q 591 354 587 313 m 903 -610 l 479 -500 l 479 -9 q 388 -20 435 -20 q 163 73 252 -20 q 75 301 75 165 q 167 528 75 433 q 388 623 259 623 q 583 552 510 623 q 661 372 655 481 q 770 212 711 315 l 716 172 q 643 290 669 252 q 578 229 620 251 q 490 208 536 208 q 391 238 431 208 q 351 326 351 269 q 389 424 351 387 q 490 461 426 461 q 575 441 533 461 q 511 522 557 490 q 392 553 465 553 q 216 477 288 553 q 144 301 144 401 q 214 121 144 193 q 388 49 285 49 q 490 68 446 49 q 582 132 533 87 l 627 77 q 548 18 583 38 l 548 -446 l 834 -521 l 834 602 l 903 602 l 903 -610 z "},"ၜ":{"ha":780,"x_min":75,"x_max":705,"o":"m 475 301 q 451 359 475 335 q 393 382 427 382 q 334 359 358 382 q 311 301 311 335 q 334 241 311 266 q 393 217 358 217 q 451 241 427 217 q 475 301 475 266 m 525 301 q 486 206 525 247 q 393 165 446 165 q 300 206 339 165 q 260 301 260 247 q 300 393 260 354 q 393 433 339 433 q 486 393 446 433 q 525 301 525 354 m 636 301 q 565 478 636 403 q 393 553 494 553 q 218 479 290 553 q 145 301 145 404 q 216 122 145 195 q 388 49 286 49 q 564 122 492 49 q 636 301 636 195 m 705 301 q 614 73 705 167 q 393 -22 522 -22 q 167 73 259 -22 q 75 301 75 167 q 166 528 75 433 q 388 623 258 623 q 613 528 521 623 q 705 301 705 433 z "},"ၝ":{"ha":792,"x_min":75,"x_max":718,"o":"m 591 144 q 396 232 502 232 q 203 142 292 232 q 396 49 274 49 q 591 144 518 49 m 718 -359 q 646 -539 718 -468 q 471 -610 574 -610 l 254 -610 q 154 -569 191 -610 q 117 -471 117 -528 q 158 -374 117 -416 q 267 -332 199 -332 q 353 -362 323 -332 l 307 -415 q 267 -401 285 -401 q 207 -420 228 -401 q 186 -471 186 -439 q 205 -519 186 -496 q 254 -541 224 -541 l 465 -541 q 602 -485 555 -541 q 648 -358 648 -429 l 648 103 q 537 12 605 43 q 396 -20 469 -20 q 168 76 260 -20 q 75 326 75 172 q 208 620 75 513 l 248 562 q 144 326 144 467 q 167 205 144 267 q 396 301 264 301 q 627 208 533 301 q 648 326 648 263 q 545 562 648 463 l 586 620 q 718 326 718 515 l 718 -359 z "},"ၞ":{"ha":0,"x_min":-366,"x_max":96,"o":"m -144 -340 q -297 -441 -297 -350 q -264 -511 -297 -480 q -194 -541 -232 -541 q -154 -528 -164 -541 q -144 -487 -144 -515 l -144 -340 m 96 -357 l 69 -397 q -75 -343 7 -355 l -75 -488 q -101 -583 -75 -556 q -194 -610 -127 -610 q -235 -604 -210 -610 q -291 -581 -259 -597 q -345 -528 -323 -564 q -366 -441 -366 -491 q -144 -271 -366 -281 l -144 -129 l -75 -129 l -75 -274 q 96 -357 23 -289 z "},"ၟ":{"ha":0,"x_min":-366,"x_max":83,"o":"m 83 -525 q -136 -610 -11 -610 q -366 -441 -366 -610 q -342 -353 -366 -389 q -279 -301 -317 -317 q -208 -278 -240 -285 q -144 -271 -175 -271 l -144 -129 l -75 -129 l -75 -345 q -136 -340 -98 -340 q -210 -348 -176 -340 q -270 -379 -243 -355 q -297 -441 -297 -403 q -136 -541 -297 -541 q 56 -484 -28 -541 l 83 -525 z "},"ၠ":{"ha":0,"x_min":-521,"x_max":-75,"o":"m -75 -610 l -521 -610 l -256 -129 l -179 -129 l -403 -541 l -75 -541 l -75 -610 z "},"ၡ":{"ha":798,"x_min":75,"x_max":722,"o":"m 521 -610 l 339 -610 l 339 -541 l 452 -541 l 452 -129 l 521 -129 l 521 -610 m 452 53 q 399 158 430 117 q 311 224 368 199 q 209 245 258 245 q 152 240 178 245 q 239 103 172 157 q 396 49 307 49 q 452 53 431 49 m 722 -610 l 652 -610 l 652 274 q 577 475 652 396 q 396 553 502 553 q 223 481 297 553 q 144 312 149 410 q 202 316 172 316 q 342 285 278 316 q 465 183 423 245 q 541 9 506 121 q 396 -20 476 -20 q 169 74 263 -20 q 75 301 75 168 q 170 526 75 431 q 396 620 264 620 q 627 524 533 620 q 722 274 722 427 l 722 -610 z "},"ၢ":{"ha":368,"x_min":54,"x_max":293,"o":"m 293 0 l 224 0 l 224 533 l 54 533 l 54 602 l 293 602 l 293 0 z "},"ၣ":{"ha":770,"x_min":75,"x_max":696,"o":"m 696 301 q 602 74 696 168 q 374 -20 507 -20 q 144 66 241 -20 l 144 -610 l 75 -610 l 75 164 l 134 199 q 236 89 171 129 q 374 49 301 49 q 552 123 477 49 q 627 301 627 198 q 552 479 627 404 q 374 553 477 553 q 236 513 301 553 q 134 403 171 473 l 75 437 q 187 569 107 515 q 374 623 267 623 q 601 528 506 623 q 696 301 696 433 z "},"ၤ":{"ha":521,"x_min":54,"x_max":465,"o":"m 465 0 l 224 0 l 224 533 l 54 533 l 54 602 l 293 602 l 293 69 l 465 69 l 465 0 z "},"ၥ":{"ha":781,"x_min":79,"x_max":700,"o":"m 700 301 q 606 74 700 168 q 378 -20 511 -20 q 199 28 283 -20 q 79 164 115 76 l 138 199 q 240 89 175 129 q 378 49 305 49 q 557 123 483 49 q 631 301 631 198 q 557 479 631 404 q 378 553 483 553 q 240 513 305 553 q 138 403 175 473 l 79 437 q 199 574 115 525 q 378 623 283 623 q 605 528 510 623 q 700 301 700 433 z "},"ၦ":{"ha":792,"x_min":75,"x_max":718,"o":"m 431 -610 l 250 -610 l 250 -541 l 362 -541 l 362 -129 l 431 -129 l 431 -610 m 718 326 q 625 77 718 174 q 396 -20 532 -20 q 168 77 260 -20 q 75 326 75 174 q 208 620 75 510 l 248 562 q 144 326 144 467 q 217 127 144 205 q 396 49 290 49 q 575 127 502 49 q 648 326 648 205 q 545 562 648 467 l 586 620 q 718 326 718 515 z "},"ၧ":{"ha":376,"x_min":54,"x_max":321,"o":"m 232 68 q 241 78 232 68 q 250 114 250 88 q 231 158 250 140 q 187 176 213 176 q 142 158 161 176 q 123 114 123 140 q 142 68 123 87 q 187 49 161 49 q 232 68 214 49 m 321 623 l 321 132 q 284 22 321 64 q 187 -20 247 -20 q 94 20 133 -20 q 54 114 54 60 q 94 206 54 167 q 187 245 133 245 q 252 228 222 245 l 252 623 l 321 623 z "},"ၨ":{"ha":456,"x_min":75,"x_max":381,"o":"m 313 0 l 75 0 l 75 69 l 244 69 l 244 602 l 313 602 l 313 0 m 342 899 q 323 943 342 925 q 279 962 305 962 q 235 943 254 962 q 216 899 216 925 q 235 853 216 872 q 279 834 254 834 q 323 853 305 834 q 342 899 342 872 m 381 899 q 351 826 381 857 q 279 795 320 795 q 208 826 237 795 q 178 899 178 857 q 208 970 178 940 q 279 1001 237 1001 q 351 970 320 1001 q 381 899 381 940 z "},"ၩ":{"ha":480,"x_min":54,"x_max":425,"o":"m 425 453 q 382 350 425 388 q 319 312 357 327 q 240 288 281 297 q 187 273 199 278 q 123 187 123 243 q 163 81 123 113 q 244 49 202 49 q 358 98 309 49 l 403 45 q 244 -20 353 -20 q 185 -9 216 -20 q 124 24 155 1 q 74 89 94 46 q 54 189 54 132 q 75 262 54 221 q 144 328 95 302 q 234 358 163 338 q 330 399 305 378 q 355 453 355 420 q 328 524 355 492 q 252 555 300 555 q 138 506 194 555 l 94 559 q 252 624 146 624 q 375 579 326 624 q 425 453 425 534 z "},"ၪ":{"ha":395,"x_min":76,"x_max":340,"o":"m 340 602 l 340 132 q 303 22 340 64 q 208 -20 266 -20 q 112 18 148 -20 q 76 111 76 56 l 145 111 q 164 66 145 84 q 208 49 183 49 q 252 70 233 49 q 271 132 271 91 l 271 602 l 340 602 z "},"ၫ":{"ha":395,"x_min":54,"x_max":319,"o":"m 319 0 l 250 0 l 250 469 q 231 532 250 511 q 187 553 213 553 q 143 536 163 553 q 123 490 123 518 l 54 490 q 90 584 54 545 q 187 623 126 623 q 282 581 245 623 q 319 469 319 538 l 319 0 z "},"ၬ":{"ha":395,"x_min":54,"x_max":319,"o":"m 319 111 q 283 18 319 56 q 187 -20 247 -20 q 92 22 129 -20 q 54 132 54 64 l 54 602 l 123 602 l 123 132 q 142 70 123 91 q 187 49 161 49 q 231 66 212 49 q 250 111 250 84 l 319 111 z "},"ၭ":{"ha":480,"x_min":54,"x_max":425,"o":"m 425 189 q 363 31 425 81 q 236 -20 302 -20 q 77 45 127 -20 l 122 98 q 236 49 170 49 q 281 58 256 49 q 330 102 305 68 q 355 187 355 136 q 293 273 355 244 q 240 288 281 278 q 161 312 199 297 q 98 350 123 327 q 54 453 54 388 q 104 579 54 534 q 228 624 153 624 q 387 559 332 624 l 342 506 q 228 555 285 555 q 152 524 180 555 q 123 453 123 492 q 151 399 123 422 q 245 358 174 378 q 335 328 316 338 q 404 262 384 302 q 425 189 425 221 z "},"ၮ":{"ha":1607,"x_min":75,"x_max":1533,"o":"m 1533 301 q 1440 74 1533 168 q 1218 -20 1347 -20 q 1122 0 1164 -20 l 1149 62 q 1218 49 1180 49 q 1392 123 1320 49 q 1463 301 1463 197 q 1392 479 1463 406 q 1218 553 1320 553 q 1044 460 1120 553 q 967 260 967 368 q 836 -20 966 81 l 795 38 q 898 274 898 132 q 825 473 898 395 q 646 551 751 551 q 600 547 616 551 q 718 274 718 450 q 684 98 716 165 q 586 -20 651 31 l 545 38 q 648 274 648 132 q 575 473 648 395 q 396 551 502 551 q 217 473 290 551 q 144 274 144 395 q 248 38 144 132 l 208 -20 q 109 100 144 33 q 75 274 75 168 q 168 523 75 426 q 396 620 260 620 q 521 595 468 620 q 646 620 570 620 q 822 568 743 620 q 939 425 901 515 q 1057 568 982 513 q 1218 623 1131 623 q 1440 528 1347 623 q 1533 301 1533 433 z "},"ၯ":{"ha":1359,"x_min":75,"x_max":1283,"o":"m 1000 -610 l 818 -610 l 818 -541 l 930 -541 l 930 -129 l 1000 -129 l 1000 -610 m 1283 301 q 1190 74 1283 168 q 968 -20 1097 -20 q 872 0 914 -20 l 899 62 q 968 49 928 49 q 1142 123 1070 49 q 1214 301 1214 197 q 1142 479 1214 406 q 968 553 1070 553 q 794 464 871 553 q 718 298 718 374 q 631 79 718 179 q 396 -20 544 -20 q 168 77 260 -20 q 75 326 75 174 q 208 620 75 510 l 248 562 q 144 326 144 467 q 217 127 144 205 q 396 49 290 49 q 575 127 502 49 q 648 326 648 205 q 545 562 648 467 l 586 620 q 701 452 674 545 q 819 575 747 528 q 968 623 890 623 q 1190 528 1097 623 q 1283 301 1283 433 z "},"ၰ":{"ha":1355,"x_min":75,"x_max":1279,"o":"m 1000 -610 l 818 -610 l 818 -541 l 930 -541 l 930 -129 l 1000 -129 l 1000 -610 m 1279 301 q 1186 74 1279 168 q 964 -20 1093 -20 q 800 34 875 -20 q 680 176 724 88 q 562 32 640 84 q 387 -20 484 -20 q 163 59 252 -20 q 75 228 75 138 q 104 326 75 286 q 170 380 134 365 q 235 416 205 396 q 264 460 264 435 q 243 528 264 506 q 193 549 221 549 q 157 537 174 549 q 134 509 141 525 l 75 545 q 123 596 90 574 q 193 618 156 618 q 292 576 251 618 q 334 460 334 533 q 314 398 334 425 q 267 355 294 372 q 211 324 239 339 q 163 285 183 309 q 144 228 144 260 q 158 185 144 213 q 199 126 172 157 q 276 72 227 95 q 387 49 326 49 q 570 134 502 49 q 639 342 639 218 q 534 562 639 457 l 575 620 q 674 500 640 568 q 708 326 708 431 q 789 139 708 229 q 964 49 869 49 q 1138 123 1066 49 q 1210 301 1210 197 q 1138 479 1210 406 q 964 553 1066 553 q 895 538 925 553 l 868 602 q 964 623 914 623 q 1186 528 1093 623 q 1279 301 1279 433 z "},"ၱ":{"ha":627,"x_min":73,"x_max":553,"o":"m 514 833 q 496 876 514 856 q 452 895 479 895 q 406 876 425 895 q 388 833 388 856 q 406 788 388 808 q 452 768 425 768 q 496 788 479 768 q 514 833 514 808 m 553 833 q 523 759 553 789 q 452 728 492 728 q 380 759 411 728 q 350 833 350 789 q 380 905 350 875 q 452 935 411 935 q 523 905 492 935 q 553 833 553 875 m 237 833 q 220 876 237 856 q 175 895 202 895 q 130 876 148 895 q 111 833 111 856 q 130 788 111 808 q 175 768 148 768 q 220 788 202 768 q 237 833 237 808 m 277 833 q 246 759 277 789 q 175 728 216 728 q 104 759 134 728 q 73 833 73 789 q 104 905 73 875 q 175 935 134 935 q 246 905 216 935 q 277 833 277 875 z "},"ၲ":{"ha":0,"x_min":-502,"x_max":-75,"o":"m -75 1131 l -114 1099 q -260 1183 -164 1183 q -391 1128 -334 1183 q -449 987 -449 1074 q -426 894 -449 936 q -369 830 -403 852 q -305 797 -335 808 q -254 785 -275 785 l -254 732 q -420 803 -339 732 q -502 987 -502 873 q -429 1164 -502 1093 q -262 1236 -357 1236 q -149 1207 -199 1236 q -75 1131 -98 1179 z "},"ၳ":{"ha":614,"x_min":0,"x_max":614,"o":"m 614 868 l 575 830 l 307 1100 l 38 830 l 0 868 l 307 1176 l 614 868 z "},"ၴ":{"ha":0,"x_min":-689,"x_max":-75,"o":"m -75 1138 l -382 830 l -689 1138 l -651 1176 l -382 906 l -114 1176 l -75 1138 z "},"ၵ":{"ha":783,"x_min":75,"x_max":708,"o":"m 708 274 q 674 100 708 168 q 575 -20 640 31 l 534 38 q 639 274 639 133 q 566 473 639 395 q 387 551 492 551 q 276 528 326 551 q 199 473 227 505 q 158 414 172 441 q 144 372 144 387 q 163 315 144 339 q 211 275 183 290 q 267 244 239 260 q 314 201 294 228 q 334 140 334 175 q 292 24 334 66 q 193 -19 251 -19 q 118 5 153 -19 q 75 54 83 28 l 134 91 q 156 63 138 76 q 193 50 174 50 q 243 72 221 50 q 264 140 264 94 q 235 183 264 163 q 170 218 205 203 q 104 273 134 233 q 75 372 75 313 q 163 541 75 461 q 387 620 252 620 q 616 523 524 620 q 708 274 708 426 z "},"ၶ":{"ha":789,"x_min":75,"x_max":713,"o":"m 514 79 q 421 172 477 137 q 297 208 365 208 q 164 172 232 208 q 392 49 233 49 q 514 79 450 49 m 713 301 q 619 74 713 168 q 392 -20 525 -20 q 256 5 317 -20 q 159 70 194 31 q 105 144 125 109 q 83 208 85 180 q 293 277 212 277 q 450 235 374 277 q 574 123 526 194 q 644 301 644 203 q 569 481 644 408 q 412 553 494 553 q 368 534 384 553 q 345 486 353 514 q 328 431 338 458 q 292 383 317 403 q 224 363 267 363 q 122 400 170 363 q 75 502 75 437 q 146 623 75 586 l 183 563 q 144 505 144 545 q 165 454 144 476 q 224 433 187 433 q 272 463 255 433 q 295 528 289 492 q 330 593 301 563 q 412 623 359 623 q 622 526 530 623 q 713 301 713 429 z "},"ၷ":{"ha":783,"x_min":75,"x_max":708,"o":"m 639 274 q 590 441 639 374 q 492 248 492 368 q 544 87 492 165 q 639 274 639 187 m 708 274 q 694 176 708 221 q 650 93 680 130 q 599 33 621 56 q 540 -20 576 11 q 423 245 423 94 q 541 496 423 397 q 387 551 479 551 q 276 528 326 551 q 199 473 227 505 q 158 414 172 441 q 144 372 144 387 q 163 315 144 339 q 211 275 183 290 q 267 244 239 260 q 314 201 294 228 q 334 140 334 175 q 292 24 334 66 q 193 -19 251 -19 q 115 7 152 -19 q 75 54 79 34 l 134 91 q 153 66 134 81 q 193 50 171 50 q 243 72 221 50 q 264 140 264 94 q 245 176 264 160 q 197 205 225 191 q 142 237 170 218 q 94 290 114 255 q 75 372 75 324 q 163 541 75 461 q 387 620 252 620 q 616 524 524 620 q 708 274 708 429 z "},"ၸ":{"ha":1352,"x_min":75,"x_max":1278,"o":"m 1137 123 q 1173 160 1137 123 q 1208 301 1208 197 q 1136 479 1208 406 q 960 553 1063 553 q 786 477 856 553 q 716 294 716 401 q 787 124 716 199 q 964 49 859 49 q 1137 123 1065 49 m 1278 301 q 1186 73 1278 167 q 960 -20 1095 -20 q 791 33 865 -20 q 682 153 716 85 q 647 282 647 221 q 619 386 647 326 q 530 500 591 446 q 391 553 468 553 q 216 479 288 553 q 144 301 144 406 q 216 123 144 197 q 391 49 288 49 q 457 62 420 49 l 486 0 q 391 -20 435 -20 q 168 74 262 -20 q 75 301 75 168 q 168 528 75 433 q 391 623 262 623 q 551 568 475 623 q 673 429 628 513 q 789 569 709 515 q 964 623 868 623 q 1185 528 1093 623 q 1278 301 1278 433 z "},"ၹ":{"ha":1271,"x_min":75,"x_max":1196,"o":"m 152 240 q 239 103 171 157 q 395 49 308 49 q 449 54 426 49 q 398 156 429 117 q 309 224 368 195 q 210 247 259 247 q 152 240 186 247 m 1056 123 q 1092 160 1056 123 q 1127 301 1127 197 q 1055 479 1127 406 q 879 553 982 553 q 706 479 777 553 q 635 301 635 406 q 707 123 635 197 q 883 49 780 49 q 1056 123 985 49 m 1196 301 q 1103 74 1196 168 q 879 -20 1010 -20 q 657 74 749 -20 q 566 301 566 168 q 604 453 566 382 q 396 553 521 553 q 221 483 294 553 q 142 313 148 412 q 197 317 170 317 q 338 286 271 317 q 467 181 425 245 q 541 9 510 117 q 403 -20 476 -20 q 172 71 270 -20 q 75 301 75 161 q 169 529 75 435 q 396 623 263 623 q 644 514 549 623 q 883 623 743 623 q 1105 528 1013 623 q 1196 301 1196 433 z "},"ၺ":{"ha":1367,"x_min":75,"x_max":1291,"o":"m 1291 301 q 1198 74 1291 168 q 977 -20 1105 -20 q 836 20 902 -20 q 722 126 769 61 l 722 -541 l 834 -541 l 834 -610 l 652 -610 l 652 274 q 574 474 652 395 q 388 553 495 553 q 216 479 288 553 q 144 302 144 404 q 218 120 144 191 q 388 49 293 49 q 494 71 450 49 l 518 5 q 388 -20 469 -20 q 168 72 260 -20 q 75 301 75 164 q 165 526 75 433 q 388 620 255 620 q 619 528 522 620 q 722 289 716 435 q 814 123 739 198 q 977 49 888 49 q 1150 123 1078 49 q 1222 301 1222 197 q 1150 479 1222 406 q 977 553 1078 553 q 907 538 936 553 l 880 602 q 977 623 928 623 q 1198 528 1105 623 q 1291 301 1291 433 z "},"ၻ":{"ha":1271,"x_min":75,"x_max":1196,"o":"m 1119 240 q 1062 245 1092 245 q 962 224 1009 245 q 873 156 903 195 q 822 54 842 117 q 873 49 845 49 q 1028 102 959 49 q 1119 240 1097 155 m 564 123 q 600 160 564 123 q 636 301 636 197 q 565 479 636 406 q 392 553 494 553 q 216 479 289 553 q 144 301 144 406 q 215 123 144 197 q 388 49 286 49 q 564 123 491 49 m 1196 301 q 1099 71 1196 161 q 868 -20 1001 -20 q 730 9 795 -20 q 806 185 761 122 q 932 285 852 248 q 1073 317 1002 317 q 1128 313 1100 317 q 1050 483 1123 412 q 875 553 977 553 q 667 453 750 553 q 705 301 705 382 q 614 74 705 168 q 392 -20 522 -20 q 168 74 260 -20 q 75 301 75 168 q 166 528 75 433 q 388 623 258 623 q 627 514 528 623 q 875 623 723 623 q 1102 529 1008 623 q 1196 301 1196 435 z "},"ၼ":{"ha":1343,"x_min":83,"x_max":1259,"o":"m 1173 171 q 958 273 1089 273 q 849 245 909 273 q 742 164 789 217 q 958 49 833 49 q 1081 80 1020 49 q 1173 171 1142 111 m 598 164 q 496 243 555 213 q 384 273 438 273 q 167 171 254 273 q 259 80 199 111 q 384 49 319 49 q 598 164 514 49 m 1259 175 q 1234 125 1252 152 q 1183 62 1217 98 q 1090 3 1150 26 q 958 -20 1031 -20 q 788 27 864 -20 q 671 155 712 75 q 553 28 631 76 q 384 -20 476 -20 q 273 -4 324 -20 q 191 35 222 12 q 134 88 159 58 q 99 138 110 118 q 83 175 88 157 q 384 342 179 342 q 628 233 524 342 q 636 296 636 258 q 562 479 636 404 q 384 553 487 553 q 247 513 312 553 q 144 403 182 473 l 85 437 q 205 574 122 525 q 384 623 289 623 q 553 574 476 623 q 671 445 631 525 q 789 574 712 525 q 958 623 865 623 q 1137 574 1053 623 q 1257 437 1221 525 l 1198 403 q 1096 513 1161 473 q 958 553 1031 553 q 779 479 853 553 q 705 296 705 406 q 713 233 705 262 q 826 317 769 293 q 958 342 883 342 q 1259 175 1162 342 z "},"ၽ":{"ha":1359,"x_min":84,"x_max":1279,"o":"m 1198 172 q 1066 208 1124 208 q 848 79 930 208 q 970 49 910 49 q 1198 172 1127 49 m 1279 208 q 1258 144 1278 180 q 1203 71 1238 109 q 1106 6 1168 33 q 970 -20 1044 -20 q 799 28 876 -20 q 681 159 722 77 q 566 27 642 75 q 396 -20 490 -20 q 173 59 262 -20 q 84 228 84 138 q 114 326 84 286 q 179 380 144 365 q 244 416 214 396 q 274 460 274 437 q 253 528 274 506 q 205 549 232 549 q 168 537 184 549 q 144 509 151 525 l 84 545 q 131 596 98 574 q 202 618 164 618 q 302 576 260 618 q 343 460 343 533 q 313 385 343 416 q 248 339 283 354 q 183 296 213 324 q 153 228 153 267 q 168 186 153 213 q 208 127 182 159 q 285 72 235 95 q 396 49 335 49 q 575 127 502 49 q 648 326 648 205 q 545 562 648 469 l 586 620 q 696 468 663 560 q 812 581 739 538 q 970 623 886 623 q 1148 573 1063 623 q 1270 437 1233 524 l 1210 403 q 1108 513 1173 473 q 970 553 1043 553 q 793 481 868 553 q 718 311 718 410 q 789 123 718 202 q 909 234 834 191 q 1066 277 983 277 q 1279 208 1160 277 z "},"ၾ":{"ha":1359,"x_min":84,"x_max":1279,"o":"m 1198 172 q 1066 208 1124 208 q 848 79 930 208 q 970 49 910 49 q 1198 172 1127 49 m 1279 208 q 1258 144 1278 180 q 1203 71 1238 109 q 1106 6 1168 33 q 970 -20 1044 -20 q 799 28 876 -20 q 681 159 722 77 q 566 27 642 75 q 396 -20 490 -20 q 173 59 262 -20 q 84 228 84 138 q 114 326 84 286 q 179 380 144 365 q 244 416 214 396 q 274 460 274 437 q 253 528 274 506 q 205 549 232 549 q 168 537 184 549 q 144 509 151 525 l 84 545 q 131 596 98 574 q 202 618 164 618 q 302 576 260 618 q 343 460 343 533 q 313 385 343 416 q 248 339 283 354 q 183 296 213 324 q 153 228 153 267 q 168 186 153 213 q 208 127 182 159 q 285 72 235 95 q 396 49 335 49 q 575 127 502 49 q 648 326 648 205 q 545 562 648 469 l 586 620 q 696 468 663 560 q 812 581 739 538 q 970 623 886 623 q 1148 573 1063 623 q 1270 437 1233 524 l 1210 403 q 1108 513 1173 473 q 970 553 1043 553 q 793 481 868 553 q 718 311 718 410 q 789 123 718 202 q 909 234 834 191 q 1066 277 983 277 q 1279 208 1160 277 m 1000 -610 l 818 -610 l 818 -541 l 930 -541 l 930 -129 l 1000 -129 l 1000 -610 z "},"ၿ":{"ha":793,"x_min":75,"x_max":718,"o":"m 290 351 q 239 513 290 434 q 144 326 144 420 q 193 159 144 227 q 290 351 290 232 m 718 326 q 625 76 718 172 q 396 -20 532 -20 q 168 76 260 -20 q 75 326 75 172 q 117 483 75 414 q 243 620 160 552 q 359 354 359 506 q 241 103 359 202 q 396 49 305 49 q 575 127 502 49 q 648 326 648 205 q 544 562 648 467 l 585 620 q 718 326 718 513 z "},"ႀ":{"ha":1352,"x_min":75,"x_max":1278,"o":"m 506 79 q 413 172 469 137 q 289 208 357 208 q 156 172 224 208 q 384 49 225 49 q 506 79 442 49 m 1278 301 q 1185 74 1278 168 q 962 -20 1092 -20 q 800 33 876 -20 q 680 172 724 87 q 560 33 640 85 q 384 -20 480 -20 q 248 5 309 -20 q 151 70 186 31 q 97 144 117 109 q 75 208 77 180 q 285 277 197 277 q 442 235 366 277 q 566 123 518 194 q 636 301 636 203 q 567 475 636 397 q 384 553 498 553 q 247 513 312 553 q 144 403 182 473 l 85 437 q 205 574 122 525 q 384 623 289 623 q 608 530 514 623 q 705 309 701 438 q 793 129 718 209 q 962 49 869 49 q 1137 123 1065 49 q 1208 301 1208 197 q 1137 479 1208 406 q 962 553 1065 553 q 892 538 925 553 l 867 602 q 962 623 914 623 q 1185 528 1092 623 q 1278 301 1278 433 z "},"ႂ":{"ha":578,"x_min":209,"x_max":636,"o":"m 636 -528 q 563 -603 613 -575 q 452 -631 513 -631 q 282 -560 355 -631 q 209 -382 209 -490 q 290 -199 209 -270 q 457 -129 372 -129 l 457 -182 q 406 -193 437 -182 q 342 -227 376 -205 q 285 -290 308 -248 q 262 -382 262 -331 q 320 -522 262 -468 q 452 -576 378 -576 q 598 -495 548 -576 l 636 -528 z "},"ႃ":{"ha":384,"x_min":27,"x_max":438,"o":"m 438 -610 l 201 -610 l 201 533 l 27 533 l 27 602 l 266 602 l 266 -541 l 438 -541 l 438 -610 z "},"ႄ":{"ha":724,"x_min":75,"x_max":648,"o":"m 648 156 q 574 28 648 76 q 362 -20 499 -20 q 146 31 218 -20 q 75 167 75 83 q 106 253 75 216 q 189 301 137 290 q 106 349 137 312 q 75 435 75 387 q 146 570 75 518 q 362 623 218 623 q 574 574 500 623 q 648 445 648 525 l 586 420 q 362 553 586 553 q 208 526 271 553 q 144 435 144 498 q 335 335 144 350 l 335 266 q 144 167 144 252 q 208 77 144 104 q 362 49 271 49 q 586 180 586 52 l 648 156 z "},"ႅ":{"ha":0,"x_min":-518,"x_max":-75,"o":"m -75 867 q -132 767 -75 804 q -297 730 -190 730 q -463 770 -408 730 q -518 875 -518 811 q -494 942 -518 913 q -429 978 -469 971 q -494 1015 -469 986 q -518 1082 -518 1044 q -463 1187 -518 1147 q -297 1226 -408 1226 q -132 1190 -190 1226 q -75 1090 -75 1153 l -123 1070 q -297 1173 -123 1173 q -416 1152 -368 1173 q -465 1082 -465 1131 q -420 1025 -465 1046 q -317 1005 -374 1005 l -317 952 q -419 930 -373 949 q -465 875 -465 910 q -297 783 -465 783 q -170 809 -217 783 q -123 887 -123 836 l -75 867 z "},"ႆ":{"ha":0,"x_min":-382,"x_max":-75,"o":"m -127 1074 q -157 1143 -127 1112 q -229 1173 -186 1173 q -301 1143 -273 1173 q -330 1074 -330 1112 q -300 1001 -330 1036 q -229 966 -271 966 q -156 998 -184 966 q -127 1074 -127 1031 m -75 1074 l -75 1066 q -136 856 -75 945 q -273 730 -198 766 l -294 746 q -218 823 -251 774 q -171 920 -186 871 q -229 913 -201 913 q -337 960 -292 913 q -382 1074 -382 1008 q -337 1182 -382 1138 q -229 1226 -292 1226 q -119 1183 -164 1226 q -75 1074 -75 1139 z "},"ႇ":{"ha":350,"x_min":73,"x_max":277,"o":"m 237 103 q 220 147 237 127 q 175 167 202 167 q 129 147 146 167 q 111 103 111 127 q 129 58 111 79 q 175 38 146 38 q 220 56 203 38 q 237 103 237 75 m 277 103 l 277 99 q 235 -40 275 19 q 146 -121 194 -99 l 132 -110 q 212 5 191 -72 q 175 0 195 0 q 103 31 133 0 q 73 103 73 61 q 103 175 73 145 q 175 205 133 205 q 246 175 216 205 q 277 103 277 145 z "},"ႈ":{"ha":350,"x_min":73,"x_max":277,"o":"m 237 521 q 220 564 237 544 q 175 583 202 583 q 130 564 148 583 q 111 521 111 544 q 130 476 111 496 q 175 456 148 456 q 220 476 202 456 q 237 521 237 496 m 277 521 q 246 447 277 477 q 175 416 216 416 q 104 447 134 416 q 73 521 73 477 q 104 593 73 563 q 175 623 134 623 q 246 593 216 623 q 277 521 277 563 m 237 103 q 220 147 237 127 q 175 167 202 167 q 130 147 148 167 q 111 103 111 127 q 130 59 111 80 q 175 38 148 38 q 220 59 202 38 q 237 103 237 80 m 277 94 q 233 -42 275 19 q 146 -121 191 -103 l 132 -110 q 212 5 190 -72 q 175 0 195 0 q 104 31 134 0 q 73 103 73 61 q 103 176 73 146 q 175 205 133 205 q 247 174 217 205 q 277 95 277 142 l 277 94 z "},"ႉ":{"ha":350,"x_min":73,"x_max":277,"o":"m 220 58 q 229 68 220 58 q 237 103 237 79 q 220 147 237 127 q 175 167 202 167 q 129 147 146 167 q 111 103 111 127 q 129 58 111 79 q 175 38 146 38 q 220 58 202 38 m 246 175 q 261 160 246 175 q 277 103 277 145 q 246 31 277 61 q 175 0 216 0 q 103 31 133 0 q 73 103 73 61 q 103 175 73 145 q 175 205 133 205 q 246 175 216 205 z "},"ႊ":{"ha":476,"x_min":75,"x_max":400,"o":"m 241 102 q 221 146 241 129 q 176 164 201 164 q 133 146 152 164 q 114 102 114 129 q 133 56 114 73 q 176 38 152 38 q 221 56 201 38 q 241 102 241 73 m 400 130 q 320 41 378 81 q 180 0 262 1 l 176 0 q 104 30 134 0 q 75 102 75 60 q 104 173 75 142 q 176 203 134 203 q 250 173 218 203 q 281 102 281 142 q 274 65 281 85 q 391 144 350 83 l 400 130 m 241 521 q 221 566 241 548 q 176 583 201 583 q 133 566 152 583 q 114 521 114 548 q 133 475 114 492 q 176 457 152 457 q 221 475 201 457 q 241 521 241 492 m 400 549 q 320 460 378 500 q 180 419 262 420 l 176 419 q 104 449 134 419 q 75 521 75 479 q 104 592 75 562 q 176 623 134 623 q 250 592 218 623 q 281 521 281 562 q 274 484 281 505 q 391 563 350 502 l 400 549 z "},"ႋ":{"ha":350,"x_min":73,"x_max":277,"o":"m 237 311 q 220 353 237 334 q 175 373 202 373 q 130 353 148 373 q 111 311 111 334 q 130 266 111 286 q 175 245 148 245 q 220 266 202 245 q 237 311 237 286 m 277 311 q 246 237 277 267 q 175 206 216 206 q 104 237 134 206 q 73 311 73 267 q 104 382 73 353 q 175 412 134 412 q 246 382 216 412 q 277 311 277 353 z "},"ႌ":{"ha":627,"x_min":73,"x_max":553,"o":"m 514 311 q 496 353 514 334 q 452 373 479 373 q 406 353 425 373 q 388 311 388 334 q 406 266 388 286 q 452 245 425 245 q 496 266 479 245 q 514 311 514 286 m 553 311 q 523 237 553 267 q 452 206 492 206 q 380 237 411 206 q 350 311 350 267 q 380 382 350 353 q 452 412 411 412 q 523 382 492 412 q 553 311 553 353 m 237 311 q 220 353 237 334 q 175 373 202 373 q 130 353 148 373 q 111 311 111 334 q 130 266 111 286 q 175 245 148 245 q 220 266 202 245 q 237 311 237 286 m 277 311 q 246 237 277 267 q 175 206 216 206 q 104 237 134 206 q 73 311 73 267 q 104 382 73 353 q 175 412 134 412 q 246 382 216 412 q 277 311 277 353 z "},"ႍ":{"ha":787,"x_min":75,"x_max":712,"o":"m 712 -183 l 75 -183 l 75 -114 l 712 -114 l 712 -183 z "},"ႎ":{"ha":781,"x_min":75,"x_max":705,"o":"m 582 457 q 388 553 506 553 q 197 457 275 553 q 388 370 282 370 q 582 457 496 370 m 636 301 q 618 396 636 351 q 388 301 524 301 q 163 395 256 301 q 144 301 144 346 q 216 123 144 197 q 388 49 288 49 q 564 123 491 49 q 636 301 636 197 m 613 528 q 659 481 613 528 q 705 301 705 434 q 612 74 705 168 q 388 -20 519 -20 q 165 73 256 -20 q 75 301 75 167 q 166 528 75 433 q 388 623 258 623 q 613 528 521 623 z "},"ႏ":{"ha":350,"x_min":73,"x_max":277,"o":"m 220 476 q 229 486 220 476 q 237 521 237 496 q 220 564 237 545 q 175 583 202 583 q 129 564 146 583 q 111 521 111 545 q 129 476 111 496 q 175 456 146 456 q 220 476 202 456 m 246 593 q 261 578 246 593 q 277 521 277 563 q 246 448 277 479 q 175 416 216 416 q 103 447 133 416 q 73 521 73 477 q 103 593 73 563 q 175 623 133 623 q 246 593 216 623 m 220 58 q 229 68 220 58 q 237 103 237 79 q 220 147 237 127 q 175 167 202 167 q 129 147 146 167 q 111 103 111 127 q 129 58 111 79 q 175 38 146 38 q 220 58 202 38 m 246 175 q 261 160 246 175 q 277 103 277 145 q 246 31 277 61 q 175 0 216 0 q 138 5 155 0 q 217 -110 156 -72 l 203 -121 q 114 -41 155 -99 q 73 94 73 16 l 73 95 q 103 174 73 142 q 175 205 133 205 q 246 175 216 205 z "},"႐":{"ha":780,"x_min":75,"x_max":705,"o":"m 636 -289 l 636 301 q 566 481 636 410 q 389 553 495 553 q 213 481 283 553 q 142 301 142 410 l 142 -289 q 213 -471 142 -400 q 389 -541 283 -541 q 566 -471 495 -541 q 636 -289 636 -400 m 705 -293 q 619 -515 705 -419 q 389 -610 533 -610 q 161 -515 247 -610 q 75 -293 75 -419 l 75 301 q 161 524 75 426 q 389 623 247 623 q 619 524 533 623 q 705 301 705 426 l 705 -293 z "},"႑":{"ha":821,"x_min":75,"x_max":746,"o":"m 746 -433 l 376 -610 l 376 506 l 102 374 l 75 437 l 445 614 l 445 -502 l 719 -370 l 746 -433 z "},"႒":{"ha":792,"x_min":75,"x_max":718,"o":"m 718 301 q 686 152 718 221 q 604 31 654 83 q 492 -68 553 -20 q 370 -165 431 -117 q 258 -264 308 -213 q 176 -384 208 -315 q 144 -532 144 -453 l 144 -610 l 75 -610 l 75 -538 q 106 -368 75 -446 q 189 -234 138 -290 q 300 -127 239 -178 q 422 -31 361 -77 q 534 62 484 15 q 616 171 585 110 q 648 301 648 232 q 574 477 648 399 q 400 555 499 555 q 219 476 294 555 q 144 260 144 397 l 75 260 l 75 621 l 142 621 l 142 492 q 249 585 182 548 q 400 621 316 621 q 625 527 532 621 q 718 301 718 433 z "},"႓":{"ha":887,"x_min":75,"x_max":812,"o":"m 812 -610 l 743 -610 l 743 -309 q 673 -129 743 -201 q 496 -57 602 -57 q 458 -60 481 -57 q 392 -79 435 -64 q 317 -122 349 -95 l 146 -610 l 75 -610 l 509 609 l 576 609 l 354 -19 q 496 12 423 12 q 726 -86 640 12 q 812 -309 812 -184 l 812 -610 z "},"႔":{"ha":977,"x_min":75,"x_max":902,"o":"m 902 -433 l 532 -610 l 532 408 l 146 -610 l 75 -610 l 533 609 l 601 609 l 601 -502 l 875 -370 l 902 -433 z "},"႕":{"ha":878,"x_min":75,"x_max":803,"o":"m 648 -263 l 648 -37 l 460 -37 q 225 -107 307 -37 q 144 -290 144 -178 q 219 -467 144 -389 q 392 -544 294 -544 q 573 -465 498 -544 q 648 -263 648 -385 m 803 -37 l 718 -37 l 718 -263 q 623 -513 718 -416 q 392 -610 529 -610 q 167 -516 259 -610 q 75 -290 75 -422 q 174 -60 75 -151 q 460 31 274 31 l 648 31 l 648 621 l 718 621 l 718 31 l 803 31 l 803 -37 z "},"႖":{"ha":878,"x_min":75,"x_max":802,"o":"m 648 47 l 648 274 q 573 475 648 396 q 392 555 498 555 q 217 481 290 555 q 144 301 144 407 q 225 117 144 187 q 460 47 307 47 l 648 47 m 802 -20 l 718 -20 l 718 -610 l 648 -610 l 648 -20 l 460 -20 q 174 71 274 -20 q 75 301 75 161 q 168 527 75 433 q 392 621 260 621 q 623 524 529 621 q 718 274 718 427 l 718 47 l 802 47 l 802 -20 z "},"႗":{"ha":713,"x_min":75,"x_max":639,"o":"m 639 -610 l 142 -610 l 481 533 l 75 533 l 75 602 l 571 602 l 232 -541 l 639 -541 l 639 -610 z "},"႘":{"ha":792,"x_min":75,"x_max":718,"o":"m 646 -288 q 569 -101 646 -180 q 397 -22 492 -22 q 229 -102 305 -22 q 152 -288 152 -182 q 227 -469 152 -396 q 399 -541 301 -541 q 571 -467 496 -541 q 646 -288 646 -393 m 715 -288 q 625 -511 715 -411 q 399 -610 534 -610 q 174 -511 264 -610 q 84 -288 84 -411 q 132 -115 84 -195 q 273 4 180 -34 q 210 39 240 18 q 147 98 180 61 q 94 193 114 134 q 75 326 75 252 q 208 620 75 510 l 248 562 q 144 326 144 467 q 217 127 144 205 q 396 49 290 49 q 575 127 502 49 q 648 326 648 205 q 545 562 648 467 l 586 620 q 718 326 718 515 q 697 193 718 252 q 644 96 677 133 q 580 37 610 60 q 519 4 549 15 q 665 -115 616 -34 q 715 -288 715 -195 z "},"႙":{"ha":792,"x_min":75,"x_max":718,"o":"m 646 297 q 571 477 646 403 q 399 551 496 551 q 227 478 301 551 q 152 297 152 406 q 229 111 152 191 q 397 31 305 31 q 569 111 492 31 q 646 297 646 190 m 718 -316 q 586 -610 718 -506 l 545 -552 q 648 -316 648 -457 q 575 -117 648 -195 q 396 -39 502 -39 q 217 -117 290 -39 q 144 -316 144 -195 q 248 -552 144 -457 l 208 -610 q 75 -316 75 -502 q 94 -184 75 -243 q 147 -88 114 -125 q 210 -30 180 -52 q 273 5 240 -8 q 132 124 180 43 q 84 297 84 205 q 174 520 84 420 q 399 620 264 620 q 625 520 534 620 q 715 297 715 420 q 665 124 715 205 q 519 5 616 43 q 580 -28 549 -5 q 644 -87 610 -50 q 697 -183 677 -123 q 718 -316 718 -243 z "},"ႚ":{"ha":350,"x_min":73,"x_max":277,"o":"m 237 521 q 220 564 237 544 q 175 583 202 583 q 130 564 148 583 q 111 521 111 544 q 130 476 111 496 q 175 456 148 456 q 220 476 202 456 q 237 521 237 496 m 277 521 q 246 447 277 477 q 175 416 216 416 q 104 447 134 416 q 73 521 73 477 q 104 593 73 563 q 175 623 134 623 q 246 593 216 623 q 277 521 277 563 z "},"ႛ":{"ha":350,"x_min":73,"x_max":277,"o":"m 220 788 q 229 798 220 788 q 237 833 237 808 q 220 877 237 857 q 175 897 202 897 q 129 877 146 897 q 111 833 111 857 q 129 788 111 808 q 175 768 146 768 q 220 788 202 768 m 277 833 q 236 691 277 751 q 146 609 195 631 l 132 620 q 212 735 191 658 q 175 730 195 730 q 103 760 133 730 q 73 833 73 791 q 103 905 73 875 q 175 935 133 935 q 246 905 216 935 q 277 833 277 875 z "},"ႜ":{"ha":476,"x_min":75,"x_max":400,"o":"m 241 102 q 221 148 241 130 q 176 165 201 165 q 133 148 152 165 q 114 102 114 130 q 133 57 114 75 q 176 39 152 39 q 221 57 201 39 q 241 102 241 75 m 400 73 l 391 60 q 274 138 350 121 q 281 102 281 118 q 250 31 281 61 q 176 0 218 0 q 104 31 134 0 q 75 102 75 61 q 104 174 75 144 q 176 203 134 203 l 178 203 q 319 163 259 203 q 400 73 378 122 m 221 476 q 231 485 221 476 q 241 521 241 494 q 222 566 241 548 q 176 585 202 585 q 133 567 152 585 q 114 521 114 549 q 133 476 114 494 q 176 458 152 458 q 221 476 201 458 m 400 492 l 391 479 q 274 557 350 540 q 281 521 281 537 q 250 450 281 480 q 176 419 218 419 q 104 450 134 419 q 75 521 75 480 q 104 593 75 563 q 176 623 134 623 l 178 623 q 319 582 259 623 q 400 492 378 541 z "},"ႝ":{"ha":75,"x_min":-418,"x_max":-136,"o":"m -136 471 l -189 471 l -189 849 q -218 916 -189 884 q -290 948 -247 948 q -377 898 -346 948 l -418 935 q -290 1001 -373 1001 q -181 956 -227 1001 q -136 849 -136 911 l -136 471 z "},"႞":{"ha":384,"x_min":27,"x_max":438,"o":"m 252 833 q 235 876 252 856 q 190 895 217 895 q 144 876 163 895 q 126 833 126 856 q 144 788 126 808 q 190 768 163 768 q 235 788 217 768 q 252 833 252 808 m 292 833 q 261 759 292 789 q 190 728 231 728 q 119 759 149 728 q 88 833 88 789 q 119 905 88 875 q 190 935 149 935 q 261 905 231 935 q 292 833 292 875 m 438 -610 l 201 -610 l 201 533 l 27 533 l 27 602 l 266 602 l 266 -541 l 438 -541 l 438 -610 z "},"႟":{"ha":1039,"x_min":75,"x_max":964,"o":"m 944 -445 q 898 -570 944 -530 q 798 -610 852 -610 q 699 -570 745 -610 q 652 -445 652 -530 l 652 274 q 577 475 652 396 q 396 553 502 553 q 217 475 290 553 q 144 275 144 396 q 248 39 144 134 l 208 -19 q 75 275 75 88 q 168 523 75 426 q 396 620 260 620 q 627 523 532 620 q 722 274 722 426 l 722 -445 q 798 -541 722 -541 q 875 -445 875 -541 l 875 529 q 850 625 875 582 q 789 696 826 669 q 709 753 751 723 q 629 812 666 784 q 567 884 591 840 q 543 985 543 929 q 615 1156 543 1085 q 787 1226 688 1226 q 903 1190 857 1226 q 964 1107 949 1154 l 901 1080 q 857 1136 890 1115 q 787 1157 825 1157 q 664 1107 716 1157 q 612 985 612 1057 q 636 905 612 941 q 698 844 661 868 q 778 788 735 819 q 858 726 821 757 q 920 644 895 694 q 944 529 944 593 l 944 -445 z "},"​":{"ha":0,"x_min":0,"x_max":0,"o":""},"‌":{"ha":0,"x_min":0,"x_max":0,"o":""},"‍":{"ha":0,"x_min":0,"x_max":0,"o":""},"“":{"ha":629,"x_min":54,"x_max":575,"o":"m 575 921 q 543 843 575 873 q 472 812 511 812 q 401 842 431 812 q 370 921 370 871 q 414 1099 370 1019 q 510 1198 458 1179 l 529 1185 q 439 998 439 1123 q 444 956 439 968 q 488 979 454 966 q 541 993 522 993 q 575 921 575 993 m 259 921 q 227 843 259 873 q 156 812 195 812 q 85 842 115 812 q 54 921 54 871 q 98 1099 54 1019 q 194 1198 142 1179 l 213 1185 q 123 998 123 1123 q 127 956 123 968 q 172 979 138 966 q 225 993 206 993 q 259 921 259 993 z "},"”":{"ha":629,"x_min":54,"x_max":575,"o":"m 259 1089 q 215 911 259 991 q 119 812 171 831 l 100 825 q 190 1012 190 887 q 186 1054 190 1042 q 141 1031 175 1044 q 88 1017 107 1017 q 54 1089 54 1017 q 86 1167 54 1137 q 157 1198 118 1198 q 229 1168 198 1198 q 259 1089 259 1139 m 575 1089 q 531 911 575 991 q 435 812 487 831 l 416 825 q 506 1012 506 887 q 502 1054 506 1042 q 457 1031 491 1044 q 404 1017 423 1017 q 370 1089 370 1017 q 402 1167 370 1137 q 473 1198 434 1198 q 545 1168 514 1198 q 575 1089 575 1139 z "},"‘":{"ha":313,"x_min":54,"x_max":259,"o":"m 259 921 q 227 843 259 873 q 156 812 195 812 q 85 842 115 812 q 54 921 54 871 q 98 1099 54 1019 q 194 1198 142 1179 l 213 1185 q 123 998 123 1123 q 127 956 123 968 q 172 979 138 966 q 225 993 206 993 q 259 921 259 993 z "},"’":{"ha":316,"x_min":54,"x_max":259,"o":"m 259 1089 q 215 911 259 991 q 119 812 171 831 l 100 825 q 190 1012 190 887 q 186 1054 190 1042 q 141 1031 175 1044 q 88 1017 107 1017 q 54 1089 54 1017 q 86 1167 54 1137 q 157 1198 118 1198 q 229 1168 198 1198 q 259 1089 259 1139 z "},"–":{"ha":631,"x_min":0,"x_max":631,"o":"m 631 266 l 0 266 l 0 335 l 631 335 l 631 266 z "},"—":{"ha":1118,"x_min":0,"x_max":1118,"o":"m 1118 266 l 0 266 l 0 335 l 1118 335 l 1118 266 z "},"⁠":{"ha":0,"x_min":0,"x_max":0,"o":""},"≠":{"ha":781,"x_min":71,"x_max":705,"o":"m 705 151 l 297 151 l 118 -52 l 71 0 l 203 151 l 75 151 l 75 220 l 264 220 l 408 382 l 75 382 l 75 452 l 469 452 l 635 636 l 688 587 l 566 452 l 705 452 l 705 382 l 502 382 l 358 220 l 705 220 l 705 151 z "},"◌":{"ha":863,"x_min":73,"x_max":787,"o":"m 730 221 q 761 189 761 221 q 730 156 761 156 q 697 189 697 156 q 730 221 697 221 m 659 115 q 675 115 659 115 q 692 83 692 115 q 659 50 692 50 q 627 83 627 50 q 659 115 627 115 m 586 14 q 553 -16 586 -16 q 522 14 522 -16 q 553 46 522 46 q 586 14 586 46 m 461 -11 q 431 -41 461 -41 q 399 -11 399 -41 q 431 20 399 20 q 461 -11 461 20 m 339 14 q 307 -16 339 -16 q 274 14 274 -16 q 307 46 274 46 q 339 14 339 46 m 201 115 q 217 115 201 115 q 233 83 233 115 q 201 50 233 50 q 168 83 168 50 q 201 115 168 115 m 132 221 q 163 189 163 221 q 132 156 163 156 q 99 189 99 156 q 132 221 99 221 m 106 346 q 138 313 138 346 q 106 281 138 281 q 73 313 75 281 q 106 346 76 346 m 163 437 q 132 404 163 404 q 99 437 99 404 q 132 468 99 468 q 163 437 163 468 m 201 574 q 217 574 201 574 q 233 541 233 574 q 201 509 233 509 q 168 541 168 509 q 201 574 168 574 m 307 644 q 323 644 307 644 q 339 612 339 644 q 307 579 339 579 q 274 612 274 579 q 307 644 274 644 m 431 669 q 461 636 461 669 q 431 604 461 604 q 399 636 399 604 q 431 669 399 669 m 553 644 q 586 612 586 644 q 553 579 586 579 q 522 612 522 579 q 553 644 522 644 m 659 574 q 675 574 659 574 q 692 541 692 574 q 659 509 692 509 q 627 541 627 509 q 659 574 627 574 m 761 437 q 730 404 761 404 q 697 437 697 404 q 730 468 697 468 q 761 437 761 468 m 754 346 q 770 346 754 346 q 787 313 787 346 q 754 281 787 281 q 722 313 722 281 q 754 346 722 346 z "},"ᜀ":{"ha":863,"x_min":73,"x_max":787,"o":"m 730 221 q 761 189 761 221 q 730 156 761 156 q 697 189 697 156 q 730 221 697 221 m 659 115 q 675 115 659 115 q 692 83 692 115 q 659 50 692 50 q 627 83 627 50 q 659 115 627 115 m 586 14 q 553 -16 586 -16 q 522 14 522 -16 q 553 46 522 46 q 586 14 586 46 m 461 -11 q 431 -41 461 -41 q 399 -11 399 -41 q 431 20 399 20 q 461 -11 461 20 m 339 14 q 307 -16 339 -16 q 274 14 274 -16 q 307 46 274 46 q 339 14 339 46 m 201 115 q 217 115 201 115 q 233 83 233 115 q 201 50 233 50 q 168 83 168 50 q 201 115 168 115 m 132 221 q 163 189 163 221 q 132 156 163 156 q 99 189 99 156 q 132 221 99 221 m 106 346 q 138 313 138 346 q 106 281 138 281 q 73 313 75 281 q 106 346 76 346 m 163 437 q 132 404 163 404 q 99 437 99 404 q 132 468 99 468 q 163 437 163 468 m 201 574 q 217 574 201 574 q 233 541 233 574 q 201 509 233 509 q 168 541 168 509 q 201 574 168 574 m 307 644 q 323 644 307 644 q 339 612 339 644 q 307 579 339 579 q 274 612 274 579 q 307 644 274 644 m 431 669 q 461 636 461 669 q 431 604 461 604 q 399 636 399 604 q 431 669 399 669 m 553 644 q 586 612 586 644 q 553 579 586 579 q 522 612 522 579 q 553 644 522 644 m 659 574 q 675 574 659 574 q 692 541 692 574 q 659 509 692 509 q 627 541 627 509 q 659 574 627 574 m 761 437 q 730 404 761 404 q 697 437 697 404 q 730 468 697 468 q 761 437 761 468 m 754 346 q 770 346 754 346 q 787 313 787 346 q 754 281 787 281 q 722 313 722 281 q 754 346 722 346 z "},"꤮":{"ha":743,"x_min":75,"x_max":667,"o":"m 667 239 q 508 308 571 289 q 372 327 445 327 q 231 307 298 327 q 75 237 164 288 l 75 290 q 372 395 232 395 q 667 290 517 395 l 667 239 z "},"ꧠ":{"ha":780,"x_min":75,"x_max":705,"o":"m 252 419 q 238 454 252 439 q 203 469 224 469 q 169 454 183 469 q 155 419 155 439 q 169 384 155 397 q 203 370 183 370 q 238 385 224 370 q 252 419 252 400 m 506 79 q 416 171 476 134 q 289 208 355 208 q 156 172 222 208 q 384 49 225 49 q 506 79 442 49 m 705 301 q 611 74 705 168 q 384 -20 517 -20 q 180 43 267 -20 q 75 208 92 107 q 285 277 190 277 q 452 231 374 277 q 566 123 530 186 q 636 301 636 201 q 562 479 636 404 q 384 553 488 553 q 263 522 311 553 q 321 419 321 488 q 287 334 321 369 q 203 300 252 300 q 119 334 155 300 q 84 419 84 369 q 103 484 84 458 q 227 586 152 549 q 384 623 301 623 q 611 528 517 623 q 705 301 705 433 z "},"ꧡ":{"ha":1275,"x_min":75,"x_max":1200,"o":"m 1200 301 q 1105 75 1200 170 q 880 -20 1010 -20 q 741 12 808 -20 q 631 98 674 43 q 384 -20 534 -20 q 205 28 289 -20 q 85 164 122 76 l 144 199 q 247 89 182 129 q 384 49 312 49 q 567 127 498 49 q 636 301 636 205 q 566 477 636 400 q 444 368 519 410 q 285 326 369 326 q 75 395 203 326 q 97 458 77 422 q 151 532 117 494 q 248 597 186 571 q 384 623 309 623 q 611 525 517 623 q 705 309 705 427 q 673 161 705 228 q 880 49 751 49 q 1057 123 983 49 q 1131 301 1131 198 q 1061 480 1131 407 q 880 553 991 553 q 810 541 842 553 l 784 604 q 880 623 830 623 q 1109 528 1019 623 q 1200 301 1200 434 m 506 522 q 384 553 444 553 q 156 429 225 553 q 289 395 227 395 q 413 429 355 395 q 506 522 471 463 z "},"ꧢ":{"ha":1272,"x_min":75,"x_max":1198,"o":"m 696 301 q 661 152 696 220 q 875 49 754 49 q 1053 121 977 49 q 1128 290 1128 193 q 1066 286 1096 286 q 848 370 935 286 q 730 593 762 454 q 868 623 795 623 q 1099 532 1001 623 q 1198 301 1198 441 q 1103 73 1198 167 q 875 -20 1008 -20 q 621 92 728 -20 q 374 -20 526 -20 q 193 29 277 -20 q 75 164 110 79 l 136 199 q 237 89 172 129 q 374 49 301 49 q 554 125 481 49 q 627 301 627 202 q 554 480 627 407 q 374 553 481 553 q 237 513 301 553 q 136 403 172 472 l 75 437 q 196 573 114 524 q 374 623 278 623 q 602 528 507 623 q 696 301 696 434 m 1119 362 q 1030 502 1099 450 q 875 553 962 553 q 822 548 845 553 q 915 408 852 460 q 1065 357 978 357 q 1119 362 1093 357 z "},"ꧣ":{"ha":1341,"x_min":75,"x_max":1267,"o":"m 248 414 q 234 449 248 434 q 199 464 220 464 q 165 449 179 464 q 151 414 151 434 q 165 378 151 392 q 199 365 179 365 q 234 380 220 365 q 248 414 248 395 m 724 203 q 817 92 753 134 q 958 49 882 49 q 1180 165 1118 49 q 724 203 1089 203 m 617 203 q 161 165 252 203 q 384 49 227 49 q 524 92 460 49 q 617 203 589 134 m 636 301 q 562 479 636 404 q 384 553 488 553 q 254 518 309 553 q 317 414 317 487 q 283 329 317 363 q 199 294 248 294 q 115 329 151 294 q 80 414 80 363 q 99 479 80 453 q 222 583 144 544 q 384 623 301 623 q 553 574 476 623 q 671 445 631 525 q 789 574 712 525 q 958 623 865 623 q 1140 572 1057 623 q 1257 437 1223 522 l 1198 403 q 1095 513 1160 472 q 958 553 1031 553 q 780 479 854 553 q 705 301 705 404 q 707 273 705 282 q 1092 261 983 273 q 1267 208 1200 250 q 1246 144 1265 180 q 1191 69 1226 107 q 1094 5 1156 31 q 958 -20 1032 -20 q 789 28 865 -20 q 671 156 712 76 q 554 28 631 76 q 384 -20 477 -20 q 180 43 267 -20 q 75 208 92 107 q 256 261 151 250 q 635 273 361 273 q 636 301 636 282 z "},"ꧤ":{"ha":1352,"x_min":75,"x_max":1278,"o":"m 1160 1044 l 1124 985 q 964 1025 1061 1025 q 791 955 867 1025 q 716 777 716 884 l 716 500 q 964 623 812 623 q 1185 528 1093 623 q 1278 301 1278 433 q 1187 73 1278 167 q 964 -20 1097 -20 q 789 33 868 -20 q 673 172 709 85 q 553 33 629 87 q 391 -20 476 -20 q 168 74 262 -20 q 75 301 75 168 q 168 528 75 433 q 391 623 262 623 q 486 602 441 623 l 460 538 q 391 553 429 553 q 216 479 288 553 q 144 301 144 406 q 216 123 144 197 q 391 49 288 49 q 528 102 465 49 q 618 215 590 156 q 647 313 647 274 l 647 777 q 741 1002 647 910 q 964 1095 834 1095 q 1160 1044 1076 1095 m 1208 301 q 1136 479 1208 404 q 964 553 1063 553 q 788 477 860 553 q 716 307 716 400 q 787 123 716 198 q 964 49 857 49 q 1137 123 1065 49 q 1208 301 1208 197 z "},"ꧥ":{"ha":75,"x_min":-301,"x_max":0,"o":"m -3 1036 l -49 1004 q -137 1055 -81 1055 q -210 1025 -179 1055 q -241 951 -241 994 q -220 885 -241 917 q -168 840 -198 853 q -159 840 -165 840 q -151 841 -153 841 q 0 755 -54 841 l -47 728 q -151 785 -91 785 q -254 728 -212 785 l -301 755 q -235 819 -277 793 q -298 951 -298 869 q -250 1061 -298 1013 q -137 1109 -202 1109 q -3 1036 -47 1109 z "},"ꧦ":{"ha":326,"x_min":-34,"x_max":380,"o":"m 165 734 l 103 734 l 317 1104 l 380 1104 l 165 734 m 27 734 l -34 734 l 180 1104 l 243 1104 l 27 734 z "},"ꧧ":{"ha":1354,"x_min":75,"x_max":1279,"o":"m 1186 528 q 1233 480 1186 528 q 1279 301 1279 433 q 1186 75 1279 170 q 964 -20 1093 -20 q 868 0 910 -20 l 895 62 q 964 49 926 49 q 1138 123 1066 49 q 1210 301 1210 197 q 1138 479 1210 406 q 964 553 1066 553 q 789 463 869 553 q 708 277 708 372 l 708 -541 l 821 -541 l 821 -610 l 639 -610 l 639 262 q 571 470 639 385 q 387 555 503 555 q 275 532 326 555 q 199 477 225 509 q 158 418 172 445 q 144 376 144 391 q 174 308 144 336 q 239 264 203 279 q 304 216 274 250 q 334 130 334 182 q 292 25 334 65 q 193 -15 250 -15 q 118 7 155 -15 q 75 58 81 30 l 133 94 q 193 54 152 54 q 243 74 222 54 q 264 130 264 94 q 235 184 264 161 q 170 223 205 208 q 104 278 134 239 q 75 376 75 317 q 163 545 75 465 q 387 624 252 624 q 562 570 484 624 q 680 425 640 517 q 800 568 724 513 q 964 623 876 623 q 1186 528 1093 623 z "},"ꧨ":{"ha":1352,"x_min":75,"x_max":1278,"o":"m 1160 1044 l 1124 985 q 964 1025 1061 1025 q 791 955 867 1025 q 716 777 716 884 l 716 500 q 964 623 812 623 q 1185 528 1093 623 q 1278 301 1278 433 q 1187 73 1278 167 q 964 -20 1097 -20 q 826 12 891 -20 q 716 100 761 45 l 716 -610 l 534 -610 l 534 -541 l 647 -541 l 647 129 q 532 20 600 61 q 391 -20 464 -20 q 168 74 262 -20 q 75 301 75 168 q 168 528 75 433 q 391 623 262 623 q 486 602 441 623 l 460 538 q 391 553 429 553 q 216 479 288 553 q 144 301 144 406 q 216 123 144 197 q 391 49 288 49 q 528 102 465 49 q 618 215 590 156 q 647 313 647 274 l 647 777 q 741 1002 647 910 q 964 1095 834 1095 q 1160 1044 1076 1095 m 1208 301 q 1136 479 1208 404 q 964 553 1063 553 q 788 477 860 553 q 716 307 716 400 q 787 123 716 198 q 964 49 857 49 q 1137 123 1065 49 q 1208 301 1208 197 z "},"ꧩ":{"ha":1358,"x_min":75,"x_max":1283,"o":"m 1040 371 q 1054 356 1040 371 q 1069 300 1069 342 q 1040 229 1069 258 q 968 199 1010 199 q 897 229 926 199 q 868 300 868 258 q 897 371 868 342 q 968 400 926 400 q 1040 371 1010 400 m 1283 301 q 1190 74 1283 168 q 968 -20 1097 -20 q 872 0 914 -20 l 899 62 q 968 49 930 49 q 1142 123 1070 49 q 1214 301 1214 197 q 1142 479 1214 406 q 968 553 1070 553 q 794 460 871 553 q 718 260 718 368 q 586 -20 716 81 l 545 38 q 648 274 648 132 q 575 473 648 395 q 396 551 502 551 q 217 473 290 551 q 144 274 144 395 q 248 38 144 132 l 208 -20 q 109 100 144 33 q 75 274 75 168 q 168 523 75 426 q 396 620 260 620 q 572 568 494 620 q 689 425 651 515 q 807 568 732 513 q 968 623 882 623 q 1190 528 1097 623 q 1283 301 1283 433 z "},"ꧪ":{"ha":1301,"x_min":75,"x_max":1226,"o":"m 991 371 q 1005 356 991 371 q 1020 300 1020 342 q 991 229 1020 258 q 920 199 962 199 q 848 229 878 199 q 819 300 819 258 q 848 371 819 342 q 920 400 878 400 q 991 371 962 400 m 1226 301 q 1138 73 1226 167 q 921 -20 1050 -20 q 827 0 871 -20 l 853 62 q 921 49 882 49 q 1088 122 1020 49 q 1157 301 1157 195 q 1088 479 1157 404 q 921 553 1020 553 q 763 482 823 553 q 685 301 703 411 q 582 70 661 160 q 380 -20 503 -20 q 162 73 250 -20 q 75 301 75 167 q 162 528 75 434 q 380 623 250 623 q 473 602 431 623 l 446 538 q 380 553 414 553 q 212 479 281 553 q 144 301 144 406 q 212 122 144 195 q 380 49 279 49 q 538 121 476 49 q 616 301 600 193 q 717 530 636 438 q 921 623 798 623 q 1137 528 1048 623 q 1226 301 1226 434 z "},"ꧫ":{"ha":1352,"x_min":75,"x_max":1278,"o":"m 1033 370 q 1047 355 1033 370 q 1062 298 1062 340 q 1033 227 1062 256 q 962 198 1004 198 q 890 227 920 198 q 861 298 861 256 q 890 370 861 340 q 962 399 920 399 q 1033 370 1004 399 m 1137 123 q 1173 160 1137 123 q 1208 301 1208 197 q 1136 479 1208 406 q 960 553 1063 553 q 786 477 856 553 q 716 294 716 401 q 787 124 716 199 q 964 49 859 49 q 1137 123 1065 49 m 1278 301 q 1186 73 1278 167 q 960 -20 1095 -20 q 791 33 865 -20 q 682 153 716 85 q 647 282 647 221 q 619 386 647 326 q 530 500 591 446 q 391 553 468 553 q 216 479 288 553 q 144 301 144 406 q 216 123 144 197 q 391 49 288 49 q 457 62 420 49 l 486 0 q 391 -20 435 -20 q 168 74 262 -20 q 75 301 75 168 q 168 528 75 433 q 391 623 262 623 q 551 568 475 623 q 673 429 628 513 q 789 569 709 515 q 964 623 868 623 q 1185 528 1093 623 q 1278 301 1278 433 z "},"ꧬ":{"ha":1341,"x_min":75,"x_max":1267,"o":"m 1056 372 q 1070 358 1056 372 q 1085 301 1085 343 q 1056 230 1085 259 q 985 201 1027 201 q 913 230 943 201 q 884 301 884 259 q 913 372 884 343 q 985 401 943 401 q 1056 372 1027 401 m 1267 301 q 1183 74 1267 168 q 972 -20 1099 -20 q 852 1 901 -20 q 785 55 804 23 q 752 124 765 87 q 735 193 739 161 q 715 247 731 225 q 671 269 700 269 q 627 247 643 269 q 607 193 612 225 q 589 124 602 161 q 557 55 576 87 q 490 1 538 23 q 370 -20 442 -20 q 158 73 241 -20 q 75 301 75 167 q 149 530 75 438 q 350 623 224 623 q 425 602 393 623 l 396 541 q 350 553 377 553 q 197 482 251 553 q 144 301 144 411 q 208 122 144 195 q 370 49 271 49 q 479 79 441 49 q 528 151 517 109 q 549 235 540 193 q 587 308 559 278 q 671 338 614 338 q 747 316 719 338 q 783 262 774 294 q 803 193 792 231 q 826 124 814 156 q 876 71 838 92 q 972 49 913 49 q 1135 122 1072 49 q 1198 301 1198 195 q 1144 481 1198 410 q 993 553 1090 553 q 945 541 963 553 l 917 602 q 993 623 947 623 q 1192 530 1118 623 q 1267 301 1267 438 z "},"ꧭ":{"ha":1352,"x_min":75,"x_max":1278,"o":"m 1034 374 q 1048 359 1034 374 q 1063 301 1063 345 q 1033 228 1063 258 q 962 198 1002 198 q 890 228 920 198 q 860 301 860 258 q 890 374 860 345 q 962 403 920 403 q 1034 374 1004 403 m 464 374 q 479 359 464 374 q 494 301 494 345 q 463 228 494 258 q 392 198 433 198 q 320 228 350 198 q 290 301 290 258 q 320 374 290 345 q 392 403 350 403 q 464 374 434 403 m 636 294 q 566 477 636 401 q 392 553 496 553 q 216 479 289 553 q 144 301 144 406 q 215 123 144 197 q 388 49 286 49 q 565 123 494 49 q 636 294 636 198 m 1184 528 q 1231 480 1184 528 q 1278 301 1278 433 q 1185 75 1278 170 q 963 -20 1092 -20 q 867 0 909 -20 l 894 62 q 963 49 922 49 q 1137 123 1065 49 q 1208 301 1208 197 q 1137 479 1208 406 q 962 553 1065 553 q 851 522 902 553 q 770 446 800 491 q 722 357 739 401 q 705 282 705 313 q 671 153 705 221 q 562 33 636 85 q 392 -20 487 -20 q 166 73 258 -20 q 75 301 75 167 q 166 528 75 433 q 388 623 258 623 q 562 569 484 623 q 680 429 640 515 q 802 568 726 513 q 962 623 878 623 q 1184 528 1090 623 z "},"ꧮ":{"ha":1341,"x_min":75,"x_max":1267,"o":"m 1024 374 q 1039 359 1024 374 q 1054 301 1054 345 q 1023 228 1054 258 q 952 198 993 198 q 880 228 910 198 q 850 301 850 258 q 880 374 850 345 q 952 403 910 403 q 1024 374 994 403 m 464 374 q 479 359 464 374 q 494 301 494 345 q 463 228 494 258 q 392 198 433 198 q 320 228 350 198 q 290 301 290 258 q 320 374 290 345 q 392 403 350 403 q 464 374 434 403 m 564 123 q 600 160 564 123 q 636 301 636 197 q 565 479 636 406 q 392 553 494 553 q 216 479 289 553 q 144 301 144 406 q 215 123 144 197 q 388 49 286 49 q 564 123 491 49 m 1126 123 q 1162 160 1126 123 q 1198 301 1198 197 q 1126 479 1198 406 q 952 553 1054 553 q 777 479 849 553 q 705 301 705 406 q 777 123 705 197 q 952 49 849 49 q 1126 123 1054 49 m 1267 301 q 1174 74 1267 168 q 952 -20 1081 -20 q 785 28 861 -20 q 671 155 709 76 q 555 27 628 75 q 392 -20 483 -20 q 166 73 258 -20 q 75 301 75 167 q 166 528 75 433 q 388 623 258 623 q 553 575 479 623 q 671 448 628 528 q 785 574 709 526 q 952 623 861 623 q 1174 528 1081 623 q 1267 301 1267 433 z "},"ꧯ":{"ha":954,"x_min":68,"x_max":879,"o":"m 682 350 q 695 337 682 350 q 708 285 708 324 q 681 219 708 245 q 617 193 654 193 q 552 219 579 193 q 525 285 525 245 q 552 350 525 324 q 617 376 579 376 q 682 350 655 376 m 427 148 q 394 239 427 199 q 304 294 361 278 q 300 255 300 282 q 324 149 300 206 q 391 65 349 92 q 416 96 404 73 q 427 148 427 119 m 879 274 q 845 99 879 167 q 747 -20 811 31 l 707 38 q 810 274 810 137 q 736 473 810 396 q 557 551 663 551 q 400 494 467 551 q 316 363 334 437 q 492 148 492 297 q 406 -20 492 54 q 277 93 321 15 q 232 266 232 171 q 239 326 232 288 q 111 409 155 361 q 68 536 68 457 q 77 602 68 557 l 146 602 q 138 536 138 570 q 146 491 138 511 q 163 457 153 471 q 188 431 172 444 q 214 413 203 419 q 239 400 224 407 q 255 392 254 393 q 369 559 288 498 q 557 620 450 620 q 786 523 693 620 q 879 274 879 426 z "},"ꧺ":{"ha":1301,"x_min":75,"x_max":1226,"o":"m 452 374 q 467 359 452 374 q 481 301 481 345 q 451 228 481 258 q 380 198 420 198 q 308 228 338 198 q 278 301 278 258 q 308 374 278 345 q 380 403 338 403 q 452 374 422 403 m 1226 301 q 1139 73 1226 167 q 921 -20 1051 -20 q 719 70 798 -20 q 616 301 640 160 q 538 482 598 411 q 380 553 477 553 q 212 479 281 553 q 144 301 144 404 q 212 122 144 195 q 380 49 281 49 q 448 62 419 49 l 473 0 q 380 -20 431 -20 q 163 73 251 -20 q 75 301 75 167 q 163 528 75 434 q 380 623 252 623 q 584 530 503 623 q 685 301 665 438 q 763 121 701 193 q 921 49 825 49 q 1089 122 1021 49 q 1157 301 1157 195 q 1088 479 1157 406 q 921 553 1020 553 q 854 538 887 553 l 827 602 q 921 623 871 623 q 1139 528 1051 623 q 1226 301 1226 434 z "},"ꧻ":{"ha":1352,"x_min":75,"x_max":1278,"o":"m 1034 374 q 1048 359 1034 374 q 1063 301 1063 345 q 1033 228 1063 258 q 962 198 1002 198 q 890 228 920 198 q 860 301 860 258 q 890 374 860 345 q 962 403 920 403 q 1034 374 1004 403 m 636 294 q 566 477 636 401 q 392 553 496 553 q 216 479 289 553 q 144 301 144 406 q 216 123 144 197 q 388 49 288 49 q 565 124 494 49 q 636 294 636 199 m 1278 301 q 1184 74 1278 168 q 962 -20 1090 -20 q 867 0 907 -20 l 895 62 q 962 49 926 49 q 1137 123 1065 49 q 1208 301 1208 197 q 1137 479 1208 406 q 962 553 1065 553 q 823 500 884 553 q 733 386 761 446 q 705 282 705 326 q 671 153 705 221 q 562 33 636 85 q 392 -20 487 -20 q 166 73 258 -20 q 75 301 75 167 q 167 528 75 433 q 388 623 259 623 q 564 569 484 623 q 680 429 643 515 q 801 568 724 513 q 962 623 878 623 q 1184 528 1090 623 q 1278 301 1278 433 z "},"ꧼ":{"ha":1341,"x_min":75,"x_max":1267,"o":"m 1024 374 q 1039 359 1024 374 q 1054 301 1054 345 q 1023 228 1054 258 q 952 198 993 198 q 880 228 910 198 q 850 301 850 258 q 880 374 850 345 q 952 403 910 403 q 1024 374 994 403 m 564 123 q 600 160 564 123 q 636 301 636 197 q 565 479 636 406 q 392 553 494 553 q 216 479 289 553 q 144 301 144 406 q 215 123 144 197 q 388 49 286 49 q 564 123 491 49 m 1126 123 q 1162 160 1126 123 q 1198 301 1198 197 q 1126 479 1198 406 q 952 553 1054 553 q 777 479 849 553 q 705 301 705 406 q 777 123 705 197 q 952 49 849 49 q 1126 123 1054 49 m 1267 301 q 1174 74 1267 168 q 952 -20 1081 -20 q 785 28 861 -20 q 671 155 709 76 q 555 27 628 75 q 392 -20 483 -20 q 166 73 258 -20 q 75 301 75 167 q 166 528 75 433 q 388 623 258 623 q 553 575 479 623 q 671 448 628 528 q 785 574 709 526 q 952 623 861 623 q 1174 528 1081 623 q 1267 301 1267 433 z "},"ꧽ":{"ha":792,"x_min":75,"x_max":718,"o":"m 468 387 q 483 373 468 387 q 498 315 498 358 q 467 241 498 271 q 396 212 437 212 q 324 241 354 212 q 294 315 294 271 q 324 387 294 358 q 396 416 354 416 q 468 387 438 416 m 718 326 q 625 77 718 174 q 396 -20 532 -20 q 168 77 260 -20 q 75 326 75 174 q 208 620 75 510 l 248 562 q 144 326 144 467 q 217 127 144 205 q 396 49 290 49 q 575 127 502 49 q 648 326 648 205 q 545 562 648 467 l 586 620 q 718 326 718 515 z "},"ꧾ":{"ha":1352,"x_min":75,"x_max":1278,"o":"m 1160 970 l 1124 910 q 964 951 1061 951 q 791 880 867 951 q 716 703 716 810 l 716 500 q 964 623 812 623 q 1185 528 1093 623 q 1278 301 1278 433 q 1187 73 1278 167 q 964 -20 1097 -20 q 789 33 868 -20 q 673 172 709 85 q 553 33 629 87 q 391 -20 476 -20 q 168 74 262 -20 q 75 301 75 168 q 168 528 75 433 q 391 623 262 623 q 486 602 441 623 l 460 538 q 391 553 429 553 q 216 479 288 553 q 144 301 144 406 q 216 123 144 197 q 391 49 288 49 q 528 102 465 49 q 618 215 590 156 q 647 313 647 274 l 647 703 q 741 928 647 836 q 964 1020 834 1020 q 1160 970 1076 1020 m 1036 374 q 1051 359 1036 374 q 1066 301 1066 345 q 1036 228 1066 258 q 964 198 1005 198 q 892 228 922 198 q 863 301 863 258 q 892 374 863 345 q 964 403 922 403 q 1036 374 1006 403 m 1208 301 q 1136 479 1208 404 q 964 553 1063 553 q 788 477 860 553 q 716 307 716 400 q 787 123 716 198 q 964 49 857 49 q 1137 123 1065 49 q 1208 301 1208 197 z "},"꧰":{"ha":780,"x_min":75,"x_max":705,"o":"m 636 301 l 636 699 q 566 879 636 807 q 389 951 495 951 q 213 879 283 951 q 142 699 142 807 l 142 301 q 213 119 142 190 q 389 49 283 49 q 566 119 495 49 q 636 301 636 190 m 705 297 q 619 75 705 171 q 389 -20 533 -20 q 161 75 247 -20 q 75 297 75 171 l 75 699 q 161 922 75 823 q 389 1020 247 1020 q 619 922 533 1020 q 705 699 705 823 l 705 297 z "},"꧱":{"ha":722,"x_min":75,"x_max":647,"o":"m 237 764 q 223 796 237 783 q 190 810 209 810 q 155 797 168 810 q 142 764 142 784 q 157 729 142 743 q 190 715 171 715 q 223 729 209 715 q 237 764 237 743 m 647 784 q 571 631 647 686 l 528 684 q 578 784 578 716 q 517 904 578 857 q 358 951 457 951 q 174 875 225 951 q 190 878 180 878 q 271 845 237 878 q 305 764 305 812 q 271 681 305 715 q 190 647 236 647 q 106 681 138 647 q 75 773 75 715 q 152 951 75 882 q 358 1020 229 1020 q 572 949 498 1020 q 647 784 647 879 m 292 319 q 299 327 292 319 q 307 353 307 334 q 292 386 307 372 q 259 400 278 400 q 226 386 240 400 q 212 353 212 372 q 226 319 212 334 q 259 305 240 305 q 292 319 278 305 m 613 -20 l 431 -20 l 431 130 q 454 254 431 203 q 498 344 476 304 q 521 431 521 384 q 476 519 521 480 q 359 557 431 557 q 239 522 289 557 q 186 439 190 487 q 259 468 214 468 q 340 435 307 468 q 374 353 374 401 q 340 271 374 305 q 259 237 307 237 q 155 294 194 237 q 115 431 115 350 q 186 569 115 511 q 359 627 258 627 q 524 570 458 627 q 590 431 590 513 q 545 286 590 365 q 500 130 500 206 l 500 49 l 613 49 l 613 -20 z "},"꧲":{"ha":781,"x_min":75,"x_max":707,"o":"m 705 1013 l 705 944 q 661 780 705 854 q 707 621 707 731 q 678 491 707 544 q 616 438 650 438 q 585 456 605 438 q 545 496 566 475 q 481 535 524 517 q 389 553 439 553 q 215 479 286 553 q 144 301 144 406 q 215 123 144 197 q 389 49 286 49 q 518 83 460 49 q 608 179 576 118 l 665 142 q 550 24 624 68 q 389 -20 476 -20 q 168 74 260 -20 q 75 301 75 168 q 168 527 75 433 q 389 621 260 621 q 614 524 522 621 q 639 621 639 548 q 616 720 639 693 q 389 624 524 624 q 167 718 259 624 q 75 944 75 811 l 75 1013 l 144 1013 l 144 944 q 215 766 144 840 q 389 692 286 692 q 563 766 490 692 q 636 944 636 841 l 636 1013 l 705 1013 z "},"꧳":{"ha":781,"x_min":75,"x_max":707,"o":"m 707 225 q 615 53 707 126 q 385 -20 524 -20 q 196 27 279 -20 q 75 164 113 75 l 136 198 q 232 87 167 126 q 385 49 297 49 q 560 98 483 49 q 637 225 637 146 q 571 359 637 313 q 385 404 505 404 q 281 378 339 404 q 187 353 222 353 q 119 398 142 353 q 96 500 96 444 q 119 603 96 557 q 187 648 142 648 q 281 623 222 648 q 385 597 339 597 q 570 642 503 597 q 637 772 637 686 q 561 902 637 853 q 385 951 484 951 q 229 911 300 951 q 138 808 157 872 l 75 836 q 193 970 104 921 q 385 1020 282 1020 q 615 947 524 1020 q 707 772 707 873 q 620 589 707 651 q 385 528 533 528 q 269 553 328 528 q 193 579 210 579 q 165 500 165 579 q 193 422 165 422 q 269 448 210 422 q 385 473 328 473 q 620 411 533 473 q 707 225 707 349 z "},"꧴":{"ha":781,"x_min":75,"x_max":707,"o":"m 707 164 q 585 27 669 75 q 396 -20 502 -20 q 166 53 258 -20 q 75 225 75 126 q 161 411 75 349 q 396 473 248 473 q 515 448 453 473 q 595 422 578 422 q 623 500 623 422 q 595 579 623 579 q 515 553 578 579 q 396 528 453 528 q 161 589 248 528 q 75 772 75 651 q 166 947 75 873 q 396 1020 258 1020 q 588 970 499 1020 q 707 836 677 921 l 643 808 q 553 911 624 872 q 396 951 481 951 q 220 902 297 951 q 144 772 144 853 q 211 642 144 686 q 396 597 278 597 q 504 623 442 597 q 601 648 566 648 q 669 603 646 648 q 692 500 692 557 q 669 398 692 444 q 601 353 646 353 q 504 378 566 353 q 396 404 442 404 q 210 359 277 404 q 144 225 144 313 q 221 98 144 146 q 396 49 298 49 q 549 87 484 49 q 646 198 614 126 l 707 164 z "},"꧵":{"ha":792,"x_min":75,"x_max":718,"o":"m 718 274 q 684 103 718 168 q 586 -14 651 38 l 545 45 q 648 274 648 138 q 574 461 648 385 q 396 537 500 537 q 218 461 292 537 q 144 274 144 385 q 248 45 144 138 l 208 -14 q 109 104 142 39 q 75 274 75 168 l 75 699 q 163 924 75 829 q 389 1020 251 1020 q 566 964 492 1020 q 677 819 639 907 l 618 784 q 528 905 589 859 q 389 951 468 951 q 214 879 285 951 q 144 699 144 807 l 144 484 q 396 606 240 606 q 625 512 532 606 q 718 274 718 418 z "},"꧶":{"ha":792,"x_min":75,"x_max":718,"o":"m 585 1013 q 684 896 650 960 q 718 726 718 831 l 718 301 q 629 75 718 171 q 403 -20 541 -20 q 227 36 300 -20 q 115 180 153 92 l 174 216 q 264 95 203 141 q 403 49 324 49 q 578 121 507 49 q 648 301 648 193 l 648 515 q 396 393 552 393 q 168 488 260 393 q 75 726 75 582 q 108 897 75 831 q 206 1013 141 962 l 247 955 q 144 726 144 861 q 218 538 144 614 q 396 463 292 463 q 574 538 500 463 q 648 726 648 614 q 544 955 648 861 l 585 1013 z "},"꧷":{"ha":765,"x_min":75,"x_max":802,"o":"m 353 578 q 330 635 353 613 q 274 658 307 658 q 216 635 240 658 q 193 578 193 613 q 216 521 193 545 q 274 496 239 496 q 330 521 308 496 q 353 578 353 545 m 802 -20 l 620 -20 l 620 713 q 553 884 620 817 q 381 951 487 951 q 215 878 286 951 q 144 713 144 806 q 148 658 144 675 q 201 707 165 688 q 274 727 236 727 q 376 684 330 727 q 422 578 422 642 q 378 471 422 513 q 274 430 334 430 q 131 512 187 430 q 75 713 75 594 q 164 927 75 834 q 381 1020 254 1020 q 604 932 519 1020 q 689 713 689 844 l 689 49 l 802 49 l 802 -20 z "},"꧸":{"ha":792,"x_min":75,"x_max":718,"o":"m 597 867 l 564 806 q 396 840 492 840 q 224 796 292 840 q 157 688 157 753 q 232 555 157 625 q 387 476 307 484 l 410 476 q 635 414 553 476 q 718 241 718 353 q 622 54 718 129 q 382 -20 526 -20 q 157 41 239 -20 q 75 214 75 103 q 123 355 75 293 q 255 449 172 416 q 136 559 183 491 q 88 688 88 627 q 176 844 88 780 q 396 909 264 909 q 597 867 518 909 m 648 241 q 410 407 648 407 q 219 353 294 407 q 144 214 144 298 q 382 49 144 49 q 573 103 498 49 q 648 241 648 157 z "},"꧹":{"ha":1078,"x_min":75,"x_max":1004,"o":"m 178 469 q 144 301 144 397 q 187 130 144 197 q 296 62 231 62 q 435 142 362 62 q 507 304 507 221 q 570 536 509 449 q 742 623 632 623 q 929 533 854 623 q 1004 301 1004 444 q 941 67 1004 155 q 769 -20 879 -20 q 626 27 689 -20 q 532 156 563 75 q 423 39 490 85 q 296 -7 357 -7 q 139 81 203 -7 q 75 301 75 170 q 117 502 75 423 l 178 469 m 935 301 q 881 484 935 415 q 742 553 827 553 q 618 486 659 553 q 576 301 576 419 q 630 118 576 187 q 769 49 684 49 q 893 116 852 49 q 935 301 935 183 z "},"ꩠ":{"ha":1272,"x_min":75,"x_max":1198,"o":"m 1119 240 q 1063 247 1085 247 q 962 224 1010 247 q 873 156 903 195 q 822 54 842 117 q 875 49 845 49 q 1030 100 962 49 q 1119 240 1099 152 m 1198 301 q 1099 71 1198 161 q 868 -20 1001 -20 q 730 9 795 -20 q 804 181 762 117 q 932 285 846 245 q 1067 319 1008 319 q 1128 313 1097 319 q 1053 482 1128 411 q 875 553 977 553 q 671 461 754 553 q 718 277 718 380 q 586 -20 718 80 l 545 38 q 648 274 648 133 q 575 473 648 395 q 396 551 502 551 q 217 473 290 551 q 144 274 144 395 q 248 38 144 133 l 208 -20 q 75 274 75 87 q 168 523 75 426 q 396 620 260 620 q 631 518 532 620 q 875 623 732 623 q 1103 529 1008 623 q 1198 301 1198 435 z "},"ꩡ":{"ha":1344,"x_min":75,"x_max":1270,"o":"m 1129 123 q 1165 160 1129 123 q 1200 301 1200 197 q 1128 479 1200 406 q 952 553 1055 553 q 779 479 850 553 q 708 301 708 406 q 781 123 708 197 q 956 49 853 49 q 1129 123 1058 49 m 1178 528 q 1224 481 1178 528 q 1270 301 1270 434 q 1177 74 1270 168 q 952 -20 1085 -20 q 799 20 868 -20 q 685 130 730 60 q 575 -20 647 39 l 534 38 q 639 262 639 142 q 570 470 639 385 q 387 555 502 555 q 276 532 326 555 q 199 477 227 509 q 158 418 172 445 q 144 376 144 391 q 163 319 144 343 q 211 279 183 294 q 267 248 239 264 q 314 205 294 232 q 334 144 334 179 q 292 28 334 71 q 193 -15 251 -15 q 116 11 155 -15 q 75 58 77 37 l 134 95 q 153 69 136 84 q 193 54 171 54 q 243 76 221 54 q 264 144 264 98 q 235 187 264 167 q 170 223 205 208 q 104 278 134 239 q 75 376 75 317 q 163 545 75 465 q 387 624 252 624 q 556 575 481 624 q 671 444 631 526 q 785 574 709 525 q 956 623 860 623 q 1178 528 1086 623 z "},"ꩢ":{"ha":868,"x_min":75,"x_max":793,"o":"m 793 301 q 730 74 793 168 q 574 -20 667 -20 q 465 24 514 -20 q 390 121 415 68 q 340 218 365 174 q 301 262 316 262 q 260 218 286 262 q 199 102 235 174 q 144 0 163 31 l 75 0 l 75 602 l 144 602 l 144 148 q 218 275 184 231 q 267 329 251 320 q 301 338 283 338 q 372 292 338 338 q 430 193 407 247 q 492 94 453 140 q 574 49 530 49 q 681 123 637 49 q 724 301 724 197 q 662 492 724 430 q 518 553 600 553 q 472 541 491 553 l 444 602 q 518 623 471 623 q 719 530 644 623 q 793 301 793 438 z "},"ꩣ":{"ha":1343,"x_min":75,"x_max":1268,"o":"m 639 301 q 590 441 639 373 q 492 250 492 365 q 543 87 492 163 q 616 183 594 134 q 639 301 639 232 m 1199 301 q 1127 479 1199 404 q 955 553 1055 553 q 779 479 850 553 q 707 301 707 406 q 778 122 707 195 q 951 49 849 49 q 1126 123 1054 49 q 1199 301 1199 197 m 1176 528 q 1222 481 1176 528 q 1268 301 1268 434 q 1177 74 1268 168 q 955 -20 1085 -20 q 792 23 865 -20 q 678 141 719 66 q 538 -20 639 58 q 423 245 423 95 q 541 496 423 397 q 387 551 473 551 q 276 530 326 551 q 199 479 227 509 q 158 422 172 449 q 144 376 144 395 q 174 307 144 335 q 239 264 203 278 q 304 218 274 250 q 334 144 334 187 q 292 28 334 71 q 193 -15 251 -15 q 116 11 155 -15 q 75 58 77 37 l 134 95 q 153 69 136 84 q 193 54 171 54 q 243 76 221 54 q 264 144 264 98 q 235 187 264 167 q 170 223 205 208 q 104 278 134 239 q 75 376 75 317 q 163 541 75 461 q 387 620 252 620 q 554 573 479 620 q 670 444 629 526 q 785 574 711 525 q 951 623 860 623 q 1176 528 1084 623 z "},"ꩤ":{"ha":1355,"x_min":75,"x_max":1279,"o":"m 1137 123 q 1174 160 1137 123 q 1210 301 1210 197 q 1139 479 1210 406 q 966 553 1067 553 q 790 479 863 553 q 718 301 718 406 q 789 123 718 197 q 962 49 860 49 q 1137 123 1065 49 m 1187 528 q 1233 481 1187 528 q 1279 301 1279 434 q 1187 74 1279 168 q 966 -20 1096 -20 q 794 29 871 -20 q 680 161 718 79 q 569 30 642 77 q 396 -18 496 -18 q 168 79 260 -18 q 75 328 75 176 q 109 499 75 431 q 208 620 144 567 l 248 562 q 144 328 144 467 q 217 130 144 208 q 396 52 290 52 q 575 130 502 52 q 648 328 648 208 q 545 564 648 469 l 586 623 q 697 472 662 566 q 809 582 739 541 q 962 623 879 623 q 1187 528 1095 623 z "},"ꩥ":{"ha":1364,"x_min":75,"x_max":1290,"o":"m 1290 301 q 1197 75 1290 170 q 974 -20 1104 -20 q 879 0 921 -20 l 905 62 q 974 49 933 49 q 1149 123 1077 49 q 1221 301 1221 197 q 1149 479 1221 406 q 974 553 1077 553 q 794 463 871 553 q 718 307 718 372 l 718 -373 q 655 -543 718 -475 q 486 -610 593 -610 l 270 -610 q 141 -562 187 -610 q 95 -454 95 -514 l 95 -410 l 164 -410 l 164 -438 q 195 -517 164 -494 q 270 -541 225 -541 l 494 -541 q 602 -490 555 -541 q 648 -358 648 -438 l 648 103 q 396 -20 560 -20 q 168 77 260 -20 q 75 326 75 174 q 208 620 75 510 l 248 562 q 144 326 144 467 q 217 127 144 205 q 396 49 290 49 q 572 123 496 49 q 648 319 648 198 q 545 562 648 467 l 586 620 q 701 452 673 551 q 819 574 747 526 q 974 623 891 623 q 1197 528 1104 623 q 1290 301 1290 434 z "},"ꩦ":{"ha":1352,"x_min":75,"x_max":1278,"o":"m 464 374 q 479 359 464 374 q 494 301 494 345 q 463 228 494 258 q 392 198 433 198 q 320 228 350 198 q 290 301 290 258 q 320 374 290 345 q 392 403 350 403 q 464 374 434 403 m 636 294 q 566 477 636 401 q 392 553 496 553 q 216 479 289 553 q 144 301 144 406 q 215 123 144 197 q 388 49 286 49 q 565 123 494 49 q 636 294 636 198 m 1184 528 q 1231 480 1184 528 q 1278 301 1278 433 q 1185 75 1278 170 q 963 -20 1092 -20 q 867 0 909 -20 l 894 62 q 963 49 922 49 q 1137 123 1065 49 q 1208 301 1208 197 q 1137 479 1208 406 q 962 553 1065 553 q 851 522 902 553 q 770 446 800 491 q 722 357 739 401 q 705 282 705 313 q 671 153 705 221 q 562 33 636 85 q 392 -20 487 -20 q 166 73 258 -20 q 75 301 75 167 q 166 528 75 433 q 388 623 258 623 q 562 569 484 623 q 680 429 640 515 q 802 568 726 513 q 962 623 878 623 q 1184 528 1090 623 z "},"ꩧ":{"ha":1343,"x_min":75,"x_max":1267,"o":"m 464 374 q 479 359 464 374 q 494 301 494 345 q 463 228 494 258 q 392 198 433 198 q 320 228 350 198 q 290 301 290 258 q 320 374 290 345 q 392 403 350 403 q 464 374 434 403 m 564 123 q 600 160 564 123 q 636 301 636 197 q 565 479 636 406 q 392 553 494 553 q 216 479 289 553 q 144 301 144 406 q 215 123 144 197 q 388 49 286 49 q 564 123 491 49 m 1126 123 q 1162 160 1126 123 q 1198 301 1198 197 q 1126 479 1198 406 q 952 553 1054 553 q 777 479 849 553 q 705 301 705 406 q 777 123 705 197 q 952 49 849 49 q 1126 123 1054 49 m 1267 301 q 1174 74 1267 168 q 952 -20 1081 -20 q 785 28 861 -20 q 671 155 709 76 q 555 27 628 75 q 392 -20 483 -20 q 166 73 258 -20 q 75 301 75 167 q 166 528 75 433 q 388 623 258 623 q 553 575 479 623 q 671 448 628 528 q 785 574 709 526 q 952 623 861 623 q 1174 528 1081 623 q 1267 301 1267 433 z "},"ꩨ":{"ha":1271,"x_min":75,"x_max":1196,"o":"m 464 374 q 479 359 464 374 q 494 301 494 345 q 463 228 494 258 q 392 198 433 198 q 320 228 350 198 q 290 301 290 258 q 320 374 290 345 q 392 403 350 403 q 464 374 434 403 m 564 123 q 600 160 564 123 q 636 301 636 197 q 565 479 636 406 q 392 553 494 553 q 216 479 289 553 q 144 301 144 406 q 215 123 144 197 q 388 49 286 49 q 564 123 491 49 m 1119 240 q 1062 245 1092 245 q 962 224 1009 245 q 873 156 903 195 q 822 54 842 117 q 873 49 845 49 q 1028 102 959 49 q 1119 240 1097 155 m 1196 301 q 1099 71 1196 161 q 868 -20 1001 -20 q 730 9 795 -20 q 806 185 761 122 q 932 285 852 248 q 1073 317 1002 317 q 1128 313 1100 317 q 1050 483 1123 412 q 875 553 977 553 q 667 453 750 553 q 705 301 705 382 q 614 74 705 168 q 392 -20 522 -20 q 168 74 260 -20 q 75 301 75 168 q 166 528 75 433 q 388 623 258 623 q 627 514 528 623 q 875 623 723 623 q 1102 529 1008 623 q 1196 301 1196 435 z "},"ꩩ":{"ha":1343,"x_min":75,"x_max":1267,"o":"m 464 374 q 479 359 464 374 q 494 301 494 345 q 463 228 494 258 q 392 198 433 198 q 320 228 350 198 q 290 301 290 258 q 320 374 290 345 q 392 403 350 403 q 464 374 434 403 m 636 301 q 564 479 636 404 q 392 553 492 553 q 216 479 289 553 q 144 301 144 404 q 216 123 144 197 q 388 49 288 49 q 564 123 491 49 q 636 301 636 197 m 1012 54 q 961 156 991 117 q 872 224 930 195 q 773 247 826 247 q 715 240 749 247 q 804 100 735 152 q 959 49 872 49 q 1012 54 994 49 m 1199 301 q 1128 479 1199 406 q 955 553 1057 553 q 783 481 857 553 q 705 313 708 408 q 760 317 732 317 q 902 285 836 317 q 1008 208 970 251 q 1080 84 1046 165 q 1199 301 1199 165 m 1267 301 q 1175 74 1267 168 q 955 -20 1084 -20 q 787 27 863 -20 q 671 155 712 75 q 557 27 631 75 q 392 -20 483 -20 q 166 73 258 -20 q 75 301 75 167 q 166 528 75 433 q 388 623 258 623 q 555 574 480 623 q 671 446 631 526 q 786 574 712 526 q 951 623 860 623 q 1173 528 1080 623 q 1267 301 1267 433 z "},"ꩪ":{"ha":1343,"x_min":75,"x_max":1267,"o":"m 636 301 q 564 479 636 404 q 392 553 492 553 q 216 479 289 553 q 144 301 144 404 q 216 123 144 197 q 388 49 288 49 q 564 123 491 49 q 636 301 636 197 m 1012 54 q 961 156 991 117 q 872 224 930 195 q 772 245 829 245 q 715 240 741 245 q 804 100 735 152 q 959 49 872 49 q 1012 54 994 49 m 1199 301 q 1128 479 1199 406 q 955 553 1057 553 q 783 481 857 553 q 705 313 708 408 q 760 317 734 317 q 902 285 837 317 q 1009 206 972 248 q 1080 84 1046 164 q 1199 301 1199 165 m 1267 301 q 1175 74 1267 168 q 955 -20 1084 -20 q 787 27 863 -20 q 671 155 712 75 q 557 27 631 75 q 392 -20 483 -20 q 166 73 258 -20 q 75 301 75 167 q 166 528 75 433 q 388 623 258 623 q 555 574 480 623 q 671 446 631 526 q 786 574 712 526 q 951 623 860 623 q 1173 528 1080 623 q 1267 301 1267 433 z "},"ꩫ":{"ha":968,"x_min":81,"x_max":892,"o":"m 441 148 q 408 239 441 199 q 317 294 374 278 q 313 255 313 282 q 338 149 313 206 q 404 65 362 92 q 429 96 418 73 q 441 148 441 119 m 892 274 q 859 99 892 167 q 761 -20 825 31 l 720 38 q 823 274 823 137 q 750 473 823 396 q 571 551 677 551 q 414 494 480 551 q 330 363 347 437 q 506 148 506 297 q 419 -20 506 54 q 290 93 335 15 q 245 266 245 171 q 252 326 245 288 q 125 409 168 361 q 81 536 81 457 q 91 602 81 557 l 160 602 q 152 536 152 570 q 159 491 152 511 q 176 457 167 471 q 201 431 186 444 q 227 413 217 419 q 252 400 237 407 q 269 392 267 393 q 382 559 301 498 q 571 620 464 620 q 800 523 707 620 q 892 274 892 426 z "},"ꩬ":{"ha":1343,"x_min":75,"x_max":1267,"o":"m 1267 301 q 1183 74 1267 168 q 972 -20 1099 -20 q 852 1 901 -20 q 785 55 804 23 q 752 124 765 87 q 735 193 739 161 q 715 247 731 225 q 671 269 700 269 q 627 247 643 269 q 607 193 612 225 q 589 124 602 161 q 557 55 576 87 q 490 1 538 23 q 370 -20 442 -20 q 158 73 241 -20 q 75 301 75 167 q 149 530 75 438 q 350 623 224 623 q 425 602 393 623 l 396 541 q 350 553 377 553 q 197 482 251 553 q 144 301 144 411 q 208 122 144 195 q 370 49 271 49 q 479 79 441 49 q 528 151 517 109 q 549 235 540 193 q 587 308 559 278 q 671 338 614 338 q 747 316 719 338 q 783 262 774 294 q 803 193 792 231 q 826 124 814 156 q 876 71 838 92 q 972 49 913 49 q 1135 122 1072 49 q 1198 301 1198 195 q 1144 481 1198 410 q 993 553 1090 553 q 945 541 963 553 l 917 602 q 993 623 947 623 q 1192 530 1118 623 q 1267 301 1267 438 z "},"ꩭ":{"ha":1143,"x_min":34,"x_max":1067,"o":"m 425 472 q 401 529 425 505 q 343 553 378 553 q 287 529 309 553 q 264 472 264 505 q 288 414 264 437 q 343 392 311 392 q 401 414 377 392 q 425 472 425 437 m 1067 301 q 975 74 1067 168 q 753 -20 882 -20 q 656 0 699 -20 l 684 62 q 753 49 712 49 q 926 123 854 49 q 998 301 998 197 q 928 479 998 406 q 753 553 857 553 q 574 467 652 553 q 495 285 495 381 l 495 -370 q 429 -543 495 -476 q 264 -610 363 -610 l 209 -610 q 80 -563 126 -610 q 34 -454 34 -515 l 34 -410 l 103 -410 l 103 -438 q 134 -517 103 -494 q 209 -541 164 -541 l 273 -541 q 380 -492 335 -541 q 425 -358 425 -444 l 425 347 q 343 323 388 323 q 241 366 288 323 q 195 473 195 410 q 239 581 195 538 q 343 623 283 623 q 452 578 410 623 q 494 469 494 533 q 620 586 549 549 q 753 623 690 623 q 975 528 882 623 q 1067 301 1067 433 z "},"ꩮ":{"ha":1302,"x_min":75,"x_max":1226,"o":"m 449 54 q 398 156 429 117 q 309 224 368 195 q 209 245 266 245 q 152 240 178 245 q 239 103 171 157 q 395 49 307 49 q 449 54 423 49 m 1226 301 q 1139 73 1226 167 q 921 -20 1051 -20 q 718 70 798 -20 q 616 301 639 160 q 538 482 598 411 q 380 553 477 553 q 217 486 282 553 q 142 313 152 419 q 194 317 170 317 q 339 285 271 317 q 467 181 426 244 q 541 9 509 118 q 403 -20 477 -20 q 172 71 270 -20 q 75 301 75 161 q 163 528 75 434 q 380 623 252 623 q 583 531 503 623 q 685 301 663 439 q 764 121 701 193 q 921 49 826 49 q 1089 122 1021 49 q 1157 301 1157 195 q 1088 479 1157 404 q 921 553 1020 553 q 854 538 888 553 l 827 602 q 921 623 871 623 q 1139 528 1051 623 q 1226 301 1226 434 z "},"ꩯ":{"ha":985,"x_min":75,"x_max":909,"o":"m 767 123 q 803 160 767 123 q 840 301 840 197 q 768 479 840 406 q 595 553 697 553 q 420 479 492 553 q 347 301 347 406 q 418 123 347 197 q 591 49 490 49 q 767 123 694 49 m 817 528 q 863 481 817 528 q 909 301 909 434 q 817 74 909 168 q 595 -20 726 -20 q 380 65 472 -20 q 278 274 289 151 q 144 476 217 374 l 144 0 l 75 0 l 75 602 l 144 602 q 290 388 202 519 q 401 556 317 490 q 591 623 484 623 q 817 528 724 623 z "},"ꩰ":{"ha":724,"x_min":95,"x_max":628,"o":"m 608 852 l 570 810 q 362 922 486 922 q 153 810 237 922 l 115 852 q 225 945 160 911 q 362 978 290 978 q 498 945 431 978 q 608 852 564 911 m 628 1067 l 590 1025 q 495 1107 556 1073 q 362 1141 434 1141 q 230 1107 290 1141 q 133 1025 170 1074 l 95 1067 q 218 1162 146 1127 q 362 1196 290 1196 q 504 1162 431 1196 q 628 1067 576 1127 z "},"ꩱ":{"ha":1359,"x_min":75,"x_max":1283,"o":"m 290 250 q 193 441 290 368 q 144 274 144 372 q 240 87 144 183 q 290 250 290 165 m 1283 301 q 1190 74 1283 168 q 968 -20 1097 -20 q 872 0 924 -20 l 899 62 q 968 49 940 49 q 1142 123 1070 49 q 1214 301 1214 197 q 1142 479 1214 406 q 968 553 1070 553 q 795 463 871 553 q 718 269 720 373 l 718 262 q 683 101 715 164 q 586 -20 651 38 l 545 38 q 648 267 648 130 q 576 473 648 396 q 396 551 503 551 q 241 496 307 551 q 359 245 359 397 q 244 -20 359 95 q 164 51 195 19 q 104 143 133 83 q 75 274 75 203 q 168 523 75 426 q 396 620 260 620 q 572 567 494 620 q 689 423 651 514 q 808 566 732 510 q 968 623 883 623 q 1190 528 1097 623 q 1283 301 1283 433 z "},"ꩲ":{"ha":1637,"x_min":75,"x_max":1561,"o":"m 259 217 q 149 342 202 319 q 142 283 142 311 q 191 124 142 197 q 296 49 239 52 q 259 217 296 152 m 1420 123 q 1456 160 1420 123 q 1492 301 1492 197 q 1419 479 1492 406 q 1244 553 1347 553 q 1072 479 1143 553 q 1000 301 1000 406 q 1072 123 1000 197 q 1248 49 1145 49 q 1420 123 1348 49 m 1470 528 q 1515 481 1470 528 q 1561 301 1561 434 q 1469 74 1561 168 q 1244 -20 1377 -20 q 1090 21 1161 -20 q 978 132 1019 62 q 868 -19 947 45 l 827 41 q 930 277 930 134 q 857 475 930 397 q 678 553 784 553 q 558 524 610 553 q 479 451 506 495 q 439 362 452 407 q 426 277 426 317 q 432 207 426 255 q 438 132 438 159 q 406 25 438 71 q 296 -20 373 -20 q 140 77 206 -20 q 75 274 75 174 q 117 431 75 384 q 323 245 252 391 q 357 81 354 180 q 369 132 369 103 q 363 212 369 171 q 357 277 357 252 q 367 368 357 321 q 402 460 377 414 q 463 542 427 506 q 555 600 499 578 q 678 623 610 623 q 847 575 772 623 q 963 444 922 528 q 1078 574 1002 525 q 1248 623 1154 623 q 1470 528 1378 623 z "},"ꩳ":{"ha":868,"x_min":75,"x_max":793,"o":"m 793 301 q 734 79 793 178 q 574 -20 674 -20 q 458 30 515 -20 q 360 143 400 80 q 256 309 320 206 q 144 476 193 412 l 144 0 l 75 0 l 75 602 l 144 602 q 319 338 222 496 q 470 115 416 180 q 574 49 524 49 q 684 127 644 49 q 724 301 724 206 q 662 492 724 430 q 518 553 600 553 q 472 541 491 553 l 444 602 q 518 623 471 623 q 719 530 644 623 q 793 301 793 438 z "},"ꩴ":{"ha":1016,"x_min":75,"x_max":921,"o":"m 648 323 q 629 435 648 378 q 589 520 609 491 q 560 549 568 549 q 556 530 556 549 l 556 85 q 648 323 648 171 m 426 -541 q 469 -522 449 -541 q 488 -473 488 -502 l 488 -452 q 465 -429 483 -441 q 426 -418 448 -418 q 381 -436 399 -418 q 363 -479 363 -454 q 381 -523 363 -505 q 426 -541 399 -541 m 921 1107 l 859 1080 q 815 1136 848 1115 q 745 1157 783 1157 q 622 1107 674 1157 q 570 985 570 1057 q 594 904 570 941 q 655 843 618 867 q 735 788 692 819 q 815 726 779 757 q 876 644 852 696 q 901 529 901 593 l 901 -397 q 862 -553 901 -496 q 743 -610 823 -610 q 657 -581 708 -610 q 556 -496 606 -551 q 522 -570 556 -529 q 426 -610 488 -610 q 333 -574 372 -610 q 294 -479 294 -537 q 333 -385 294 -422 q 426 -349 372 -349 q 488 -363 464 -349 l 488 -27 q 396 -41 446 -41 q 168 56 260 -41 q 75 305 75 153 q 108 494 75 423 q 208 620 141 564 l 248 562 q 170 456 195 513 q 144 305 144 400 q 217 106 144 184 q 396 28 290 28 q 488 45 445 28 l 488 498 q 559 623 488 623 q 659 529 601 623 q 718 323 718 435 q 557 1 718 100 l 557 -403 q 743 -541 688 -541 q 814 -493 796 -541 q 833 -358 833 -445 l 833 529 q 799 640 833 591 q 716 720 765 688 q 618 786 667 753 q 534 869 568 819 q 500 985 500 920 q 572 1156 500 1085 q 745 1226 643 1226 q 852 1195 804 1226 q 921 1107 899 1164 z "},"ꩵ":{"ha":1519,"x_min":75,"x_max":1477,"o":"m 887 -541 q 927 -525 907 -541 q 949 -476 947 -509 l 949 -452 q 926 -429 944 -441 q 887 -418 909 -418 q 842 -436 860 -418 q 825 -479 825 -454 q 842 -523 825 -505 q 887 -541 860 -541 m 1477 1107 l 1415 1080 q 1371 1136 1404 1115 q 1301 1157 1339 1157 q 1177 1106 1229 1157 q 1126 985 1126 1055 q 1150 904 1126 941 q 1211 843 1175 867 q 1291 788 1248 819 q 1371 726 1335 757 q 1432 644 1408 696 q 1457 529 1457 593 l 1457 -397 q 1272 -610 1457 -610 q 1137 -578 1206 -610 q 1015 -499 1067 -547 q 974 -574 1009 -537 q 887 -610 939 -610 q 794 -574 833 -610 q 755 -479 755 -537 q 794 -385 755 -422 q 887 -349 833 -349 q 949 -368 924 -349 l 949 50 q 989 47 964 47 q 1147 125 1090 47 q 1204 301 1204 202 q 1133 479 1204 406 q 958 553 1061 553 q 785 463 860 553 q 708 269 711 373 q 575 -20 703 80 l 534 38 q 639 274 639 133 q 566 473 639 395 q 388 552 494 552 q 296 536 339 552 q 227 498 254 521 q 180 449 199 475 q 152 404 160 423 q 144 376 144 385 q 163 319 144 343 q 211 279 183 294 q 267 248 239 264 q 314 205 294 232 q 334 144 334 179 q 292 28 334 71 q 193 -15 251 -15 q 116 11 155 -15 q 75 58 77 37 l 134 95 q 153 69 136 84 q 193 54 171 54 q 243 76 221 54 q 264 144 264 98 q 235 187 264 167 q 170 223 205 208 q 104 278 134 239 q 75 376 75 317 q 163 541 75 461 q 387 620 252 620 q 562 568 484 620 q 680 423 640 517 q 796 566 722 510 q 958 623 871 623 q 1181 528 1088 623 q 1274 301 1274 433 q 1200 87 1274 175 q 1019 -16 1127 0 l 1019 -408 q 1149 -499 1074 -458 q 1272 -540 1225 -540 q 1369 -495 1348 -540 q 1390 -331 1390 -450 l 1390 529 q 1356 640 1390 591 q 1272 720 1321 688 q 1175 786 1223 753 q 1091 869 1126 819 q 1057 985 1057 920 q 1128 1156 1057 1085 q 1301 1226 1199 1226 q 1410 1194 1360 1226 q 1477 1107 1459 1161 z "},"ꩶ":{"ha":1545,"x_min":96,"x_max":1491,"o":"m 901 -541 q 941 -524 921 -541 q 963 -476 962 -507 l 963 -452 q 940 -429 958 -441 q 901 -418 922 -418 q 857 -436 875 -418 q 838 -479 838 -454 q 857 -522 838 -503 q 901 -541 875 -541 m 1491 1107 l 1428 1080 q 1385 1136 1417 1115 q 1314 1157 1352 1157 q 1191 1106 1242 1157 q 1139 985 1139 1055 q 1164 904 1139 941 q 1225 843 1188 867 q 1305 788 1261 819 q 1385 726 1348 757 q 1446 644 1421 696 q 1470 529 1470 593 l 1470 -397 q 1286 -610 1470 -610 q 1149 -577 1219 -610 q 1025 -496 1078 -544 q 990 -570 1025 -529 q 901 -610 955 -610 q 808 -574 846 -610 q 769 -479 769 -537 q 808 -385 769 -422 q 901 -349 846 -349 q 963 -368 937 -349 l 963 52 q 1001 49 985 49 q 1161 125 1104 49 q 1218 301 1218 202 q 1146 479 1218 406 q 971 553 1074 553 q 798 464 873 553 q 722 271 722 374 l 722 -373 q 651 -537 722 -467 q 483 -610 578 -610 l 258 -610 q 158 -569 195 -610 q 121 -471 121 -528 q 162 -374 121 -416 q 271 -332 203 -332 q 357 -362 327 -332 l 311 -415 q 271 -401 289 -401 q 211 -420 232 -401 q 190 -471 190 -439 q 209 -519 190 -496 q 258 -541 228 -541 l 442 -541 q 536 -532 507 -541 q 600 -491 564 -522 q 652 -358 652 -441 l 652 274 q 577 475 652 396 q 396 553 502 553 q 258 513 323 553 q 157 400 194 472 l 96 434 q 217 571 133 522 q 396 620 301 620 q 593 553 514 620 q 693 423 671 487 q 810 566 735 510 q 971 623 884 623 q 1194 528 1101 623 q 1287 301 1287 433 q 1214 87 1287 174 q 1032 -16 1141 0 l 1032 -408 q 1163 -499 1088 -458 q 1286 -540 1238 -540 q 1381 -497 1359 -540 q 1402 -331 1402 -454 l 1402 529 q 1369 640 1402 591 q 1286 720 1335 688 q 1187 786 1237 753 q 1104 869 1138 819 q 1070 985 1070 920 q 1141 1156 1070 1085 q 1314 1226 1213 1226 q 1423 1194 1374 1226 q 1491 1107 1473 1161 z "},"꩷":{"ha":1128,"x_min":75,"x_max":1074,"o":"m 1074 0 l 833 0 l 833 533 l 618 533 q 722 274 722 434 l 722 -541 l 834 -541 l 834 -610 l 652 -610 l 652 274 q 577 475 652 396 q 396 553 502 553 q 220 476 296 553 q 144 301 144 399 q 223 117 144 184 q 399 49 302 49 q 517 73 465 49 l 538 9 q 396 -20 476 -20 q 169 74 263 -20 q 75 301 75 168 q 146 501 75 414 q 327 612 218 589 q 200 702 252 637 q 148 856 148 766 q 220 1034 148 963 q 389 1104 293 1104 q 501 1076 450 1104 q 575 1001 552 1048 l 536 968 q 389 1051 486 1051 q 259 996 317 1051 q 201 856 201 941 q 241 739 201 788 q 324 673 282 690 q 396 655 366 655 l 396 620 q 503 602 448 620 l 902 602 l 902 69 l 1074 69 l 1074 0 z "},"꩸":{"ha":667,"x_min":75,"x_max":1031,"o":"m 117 526 q 222 302 222 439 q 117 79 222 165 l 75 138 q 155 302 155 206 q 75 467 155 399 l 117 526 m 600 582 q 376 476 513 476 q 152 582 239 476 l 212 624 q 376 544 279 544 q 540 624 472 544 l 600 582 m 1031 854 l 990 802 q 924 854 959 854 q 863 817 902 854 q 779 705 825 779 q 692 538 732 632 q 625 319 652 445 q 598 68 598 194 q 599 45 598 60 q 600 23 600 30 l 540 -19 q 461 42 509 23 q 376 61 414 61 q 292 42 339 61 q 212 -19 244 23 l 152 23 q 376 129 236 129 q 533 83 460 129 q 577 398 534 239 q 681 670 620 557 q 808 853 742 783 q 924 924 875 924 q 1031 854 985 924 z "},"꩹":{"ha":798,"x_min":75,"x_max":834,"o":"m 834 -610 l 652 -610 l 652 274 q 577 475 652 396 q 396 553 502 553 q 220 476 296 553 q 144 301 144 399 q 223 117 144 184 q 399 49 302 49 q 517 73 461 49 l 538 9 q 396 -20 472 -20 q 169 74 263 -20 q 75 301 75 168 q 170 526 75 431 q 396 620 264 620 q 627 524 533 620 q 722 274 722 427 l 722 -541 l 834 -541 l 834 -610 z "},"ꩺ":{"ha":1478,"x_min":95,"x_max":1383,"o":"m 1383 301 q 1296 73 1383 167 q 1078 -20 1208 -20 q 989 -5 1031 -20 q 1000 -127 1000 -68 q 975 -304 1000 -220 q 899 -458 949 -388 q 762 -569 848 -528 q 567 -610 677 -610 q 320 -541 430 -610 q 153 -362 210 -472 q 95 -129 95 -252 l 95 430 q 207 762 95 644 q 490 879 319 879 q 864 1027 785 879 l 924 986 q 770 857 886 903 q 490 810 655 810 q 250 712 335 810 q 164 446 164 614 l 164 -104 q 275 -409 164 -277 q 567 -541 385 -541 q 730 -506 659 -541 q 845 -411 802 -471 q 910 -278 888 -351 q 932 -123 932 -205 q 910 38 932 -37 q 773 301 804 122 q 695 482 755 411 q 537 553 635 553 q 370 479 438 553 q 301 301 301 404 q 370 122 301 195 q 537 49 438 49 q 605 62 576 49 l 631 0 q 537 -20 589 -20 q 320 73 408 -20 q 232 301 232 167 q 321 528 232 434 q 537 623 410 623 q 741 530 661 623 q 842 301 822 438 q 920 121 859 193 q 1078 49 982 49 q 1246 122 1179 49 q 1314 301 1314 195 q 1246 479 1314 406 q 1078 553 1177 553 q 1012 538 1044 553 l 985 602 q 1078 623 1028 623 q 1296 528 1208 623 q 1383 301 1383 434 z "},"ꩻ":{"ha":350,"x_min":73,"x_max":277,"o":"m 221 58 q 230 68 221 58 q 239 103 239 79 q 221 147 239 127 q 175 167 203 167 q 130 147 148 167 q 113 103 113 127 q 130 58 113 79 q 175 38 148 38 q 221 58 203 38 m 247 175 q 262 160 247 175 q 277 103 277 145 q 247 31 277 61 q 175 0 217 0 q 138 5 155 0 q 218 -110 159 -72 l 203 -121 q 115 -39 156 -99 q 73 99 73 20 l 73 103 q 104 175 73 145 q 175 205 134 205 q 247 175 217 205 z "},"ꩼ":{"ha":75,"x_min":-631,"x_max":0,"o":"m 0 810 l -631 810 l -631 879 l 0 879 l 0 810 z "},"ꩽ":{"ha":671,"x_min":75,"x_max":595,"o":"m 595 335 l 595 266 l 75 266 l 75 335 l 595 335 z "},"ꩾ":{"ha":985,"x_min":75,"x_max":910,"o":"m 910 -617 l 555 -491 l 555 -610 l 373 -610 l 373 -541 l 486 -541 l 486 -4 q 384 -20 437 -20 q 180 43 267 -20 q 75 208 92 107 q 285 277 189 277 q 451 231 374 277 q 566 123 528 186 q 636 301 636 201 q 562 479 636 404 q 384 553 488 553 q 245 513 312 553 q 144 403 178 472 l 85 437 q 205 572 121 521 q 384 623 289 623 q 611 528 517 623 q 705 301 705 433 q 665 144 705 216 q 555 28 624 72 l 555 -418 l 841 -519 l 841 602 l 910 602 l 910 -617 m 507 80 q 416 172 477 136 q 289 208 355 208 q 156 172 221 208 q 384 49 229 49 q 507 80 449 49 z "},"ꩿ":{"ha":1546,"x_min":75,"x_max":1472,"o":"m 1472 -610 l 1116 -484 l 1116 -610 l 935 -610 l 935 -541 l 1047 -541 l 1047 -5 q 952 -20 1000 -20 q 785 28 861 -20 q 671 155 709 76 q 553 28 629 76 q 384 -20 476 -20 q 180 44 273 -20 q 75 208 87 109 q 149 244 122 232 q 212 267 175 256 q 285 277 250 277 q 441 235 366 277 q 566 123 515 194 q 636 301 636 201 q 562 479 636 404 q 384 553 488 553 q 248 513 313 553 q 144 403 183 472 l 85 437 q 203 572 121 522 q 384 623 286 623 q 553 574 476 623 q 671 448 629 526 q 785 574 709 526 q 952 623 861 623 q 1174 528 1081 623 q 1267 301 1267 433 q 1226 143 1267 216 q 1116 27 1185 71 l 1116 -411 l 1402 -513 l 1402 602 l 1472 602 l 1472 -610 m 506 79 q 415 172 472 137 q 290 208 358 208 q 156 171 236 208 q 384 49 225 49 q 506 79 442 49 m 1198 301 q 1126 479 1198 404 q 952 553 1054 553 q 778 479 850 553 q 705 301 705 404 q 778 123 705 197 q 952 49 850 49 q 1126 123 1054 49 q 1198 301 1198 197 z "},"ႁ":{"ha":769,"x_min":41,"x_max":696,"o":"m 696 437 l 636 403 q 534 513 600 473 q 396 553 469 553 q 218 479 293 553 q 144 301 144 404 q 210 130 144 202 q 374 49 277 58 l 439 232 l 505 209 l 212 -610 l 41 -549 l 65 -484 l 168 -521 l 350 -16 q 153 89 232 -1 q 75 301 75 179 q 170 528 75 433 q 396 623 264 623 q 575 574 491 623 q 696 437 659 525 z "},"︀":{"ha":0,"x_min":0,"x_max":0,"o":""}}}
